{
.appVersion = "3151";
DisplayStrings = (
"ABCDEFG/Gcommaaccent HIJK/Kcommaaccent L/Lcommaaccent MN/Ncommaaccent/Eng OPR/Rcommaaccent S/Scommaaccent T/uni021A UWYZ/uni01C4/uni01C5/uni0200/uni0202/uni0204/uni0206/uni0208/uni020A/uni020C/uni020E/uni0210/uni0212/uni0214/uni0216/uni021A aæ/uni01E3 cdefg/gcommaaccent hi/uni0209/uni020B/iogonek j/uni0237/jcircumflex k/kcommaaccent l/lcommaaccent mn/napostrophe/ncommaaccent/eng o/oe pr/rcommaaccent s/scommaaccent ßt/uni021B u/uni01C6/uni01F0/uni0201/uni0203/uni0205/uni0207/uni0209/uni020B/uni020D/uni020F/uni0211/uni0213/uni0215/uni0217/uni021B wyz/uniFB00/uniFB03/uniFB04 ª/Delta µ35¼¾¹²³/uni2074 ?{}/quoteleft/uni00A0/approxequal ~/infinity/partialdiff/afii61289 &@§¸/ogonek/tilde/uni030F/uni0311/uni0312/uni0326/afii57929",
"/uni0202"
);
copyright = "Copyright 2012 The Pontano Sans Project Authors (https://github.com/googlefonts/PontanoSans) with Reserved Font Names \"Pontano\"";
customParameters = (
{
name = "Use Typo Metrics";
value = 1;
},
{
name = fsType;
value = (
);
},
{
name = license;
value = "This Font Software is licensed under the SIL Open Font License, Version 1.1. This license is available with a FAQ at: https://scripts.sil.org/OFL";
},
{
name = licenseURL;
value = "https://scripts.sil.org/OFL";
},
{
name = trademark;
value = "Pontano Sans is a trademark of Vernon Adams and may be registered in certain jurisdictions.";
},
{
name = vendorID;
value = NeWT;
},
{
name = Axes;
value = (
{
Name = Weight;
Tag = wght;
}
);
}
);
date = "2013-12-31 17:20:12 +0000";
designer = "Vernon Adams";
designerURL = "http://www.sansoxygen.com";
disablesAutomaticAlignment = 1;
familyName = "Pontano Sans";
fontMaster = (
{
ascender = 1474;
capHeight = 1464;
customParameters = (
{
name = typoAscender;
value = 2074;
},
{
name = typoDescender;
value = -605;
},
{
name = typoLineGap;
value = 0;
},
{
name = winAscent;
value = 2074;
},
{
name = winDescent;
value = 605;
}
);
descender = -410;
id = "E322F6D1-BA90-436B-BB35-51D9BD3EA9D1";

glyphs = (
{
glyphname = A;
lastChange = "2023-02-01 16:10:13 +0000";
layers = (
{
anchors = (
{
name = ogonek;
position = "{1134, 0}";
},
{
name = top;
position = "{631.5, 1464}";
}
);
background = {
anchors = (
{
name = ogonek;
position = "{1134, 0}";
},
{
name = top;
position = "{631.5, 1464}";
}
);
paths = (
{
closed = 1;
nodes = (
"204 0 LINE",
"327 391 LINE",
"923 391 LINE",
"1052 0 LINE",
"1234 0 LINE",
"757 1464 LINE",
"501 1464 LINE",
"29 0 LINE"
);
},
{
closed = 1;
nodes = (
"626 1349 LINE",
"882 521 LINE",
"367 521 LINE"
);
}
);
};
layerId = "8E6A00A3-5EF9-4E6D-9A7B-9C1BBC7D44AD";
paths = (
{
closed = 1;
nodes = (
"204 0 LINE",
"327 391 LINE",
"923 391 LINE",
"1052 0 LINE",
"1234 0 LINE",
"757 1464 LINE",
"501 1464 LINE",
"29 0 LINE"
);
},
{
closed = 1;
nodes = (
"626 1349 LINE",
"882 521 LINE",
"367 521 LINE"
);
}
);
userData = {
com.typemytype.robofont.layerData = {
};
};
vertWidth = 0;
width = 1263;
},
{
anchors = (
{
name = ogonek;
position = "{1143, 0}";
},
{
name = top;
position = "{643, 1464}";
}
);
background = {
anchors = (
{
name = ogonek;
position = "{1143, 0}";
},
{
name = top;
position = "{643, 1464}";
}
);
paths = (
{
closed = 1;
nodes = (
"233 0 LINE",
"352 383 LINE",
"918 383 LINE",
"1043 0 LINE",
"1257 0 LINE",
"788 1464 LINE",
"490 1464 LINE",
"28 0 LINE"
);
},
{
closed = 1;
nodes = (
"635 1330 LINE",
"871 534 LINE",
"397 534 LINE"
);
}
);
};
layerId = "8DE4C137-4DC6-43A7-909D-C9F8072E6A1C";
paths = (
{
closed = 1;
nodes = (
"233 0 LINE",
"352 383 LINE",
"918 383 LINE",
"1043 0 LINE",
"1257 0 LINE",
"788 1464 LINE",
"490 1464 LINE",
"28 0 LINE"
);
},
{
closed = 1;
nodes = (
"635 1330 LINE",
"871 534 LINE",
"397 534 LINE"
);
}
);
userData = {
com.typemytype.robofont.layerData = {
};
};
vertWidth = 0;
width = 1286;
},
{
anchors = (
{
name = bot;
position = "{653, 0}";
},
{
name = ogonek;
position = "{1150, 0}";
},
{
name = top;
position = "{653, 1464}";
}
);
background = {
anchors = (
{
name = bot;
position = "{653, 0}";
},
{
name = ogonek;
position = "{1150, 0}";
},
{
name = top;
position = "{653, 1464}";
}
);
paths = (
{
closed = 1;
nodes = (
"259 0 LINE",
"373 376 LINE",
"914 376 LINE",
"1035 0 LINE",
"1278 0 LINE",
"816 1464 LINE",
"480 1464 LINE",
"28 0 LINE"
);
},
{
closed = 1;
nodes = (
"643 1313 LINE",
"862 545 LINE",
"423 545 LINE"
);
}
);
};
layerId = "28683A17-BAD2-44EA-B42B-E882FFDD4FE1";
paths = (
{
closed = 1;
nodes = (
"259 0 LINE",
"373 376 LINE",
"914 376 LINE",
"1035 0 LINE",
"1278 0 LINE",
"816 1464 LINE",
"480 1464 LINE",
"28 0 LINE"
);
},
{
closed = 1;
nodes = (
"643 1313 LINE",
"862 545 LINE",
"423 545 LINE"
);
}
);
userData = {
com.typemytype.robofont.layerData = {
};
};
vertWidth = 0;
width = 1306;
},
{
anchors = (
{
name = ogonek;
position = "{1123, 0}";
},
{
name = top;
position = "{617, 1464}";
}
);
background = {
anchors = (
{
name = ogonek;
position = "{1123, 0}";
},
{
name = top;
position = "{617, 1464}";
}
);
paths = (
{
closed = 1;
nodes = (
"168 0 LINE",
"297 401 LINE",
"928 401 LINE",
"1063 0 LINE",
"1205 0 LINE",
"717 1464 LINE",
"516 1464 LINE",
"29 0 LINE"
);
},
{
closed = 1;
nodes = (
"615 1373 LINE",
"896 505 LINE",
"330 505 LINE"
);
}
);
};
layerId = "E322F6D1-BA90-436B-BB35-51D9BD3EA9D1";
paths = (
{
closed = 1;
nodes = (
"168 0 LINE",
"297 401 LINE",
"928 401 LINE",
"1063 0 LINE",
"1205 0 LINE",
"717 1464 LINE",
"516 1464 LINE",
"29 0 LINE"
);
},
{
closed = 1;
nodes = (
"615 1373 LINE",
"896 505 LINE",
"330 505 LINE"
);
}
);
userData = {
com.typemytype.robofont.layerData = {
b = {
anchors = (
);
components = (
);
contours = (
);
lib = {
};
name = A;
unicodes = (
);
width = 1234;
};
};
};
vertWidth = 0;
width = 1234;
}
);
unicode = 0041;
},
{
glyphname = Aacute;
lastChange = "2023-02-01 16:10:23 +0000";
layers = (
{
background = {
anchors = (
{
name = ogonek;
position = "{1134, 0}";
},
{
name = top;
position = "{631.5, 1464}";
}
);
paths = (
{
closed = 1;
nodes = (
"204 0 LINE",
"327 391 LINE",
"923 391 LINE",
"1052 0 LINE",
"1234 0 LINE",
"757 1464 LINE",
"501 1464 LINE",
"29 0 LINE"
);
},
{
closed = 1;
nodes = (
"626 1349 LINE",
"882 521 LINE",
"367 521 LINE"
);
},
{
closed = 1;
nodes = (
"968 1911 LINE",
"735 1911 LINE",
"531 1592 LINE",
"644 1591 LINE"
);
}
);
};
components = (
{
name = A;
},
{
name = acute;
transform = "{1, 0, 0, 1, 484, 441}";
}
);
layerId = "8E6A00A3-5EF9-4E6D-9A7B-9C1BBC7D44AD";
userData = {
com.typemytype.robofont.layerData = {
};
};
vertWidth = 0;
width = 1263;
},
{
background = {
anchors = (
{
name = ogonek;
position = "{1143, 0}";
},
{
name = top;
position = "{643, 1464}";
}
);
paths = (
{
closed = 1;
nodes = (
"233 0 LINE",
"352 383 LINE",
"918 383 LINE",
"1043 0 LINE",
"1257 0 LINE",
"788 1464 LINE",
"490 1464 LINE",
"28 0 LINE"
);
},
{
closed = 1;
nodes = (
"635 1330 LINE",
"871 534 LINE",
"397 534 LINE"
);
},
{
closed = 1;
nodes = (
"676 1587 LINE",
"1018 1907 LINE",
"747 1907 LINE",
"544 1587 LINE"
);
}
);
};
components = (
{
name = A;
},
{
name = acute;
transform = "{1, 0, 0, 1, 525, 441}";
}
);
layerId = "8DE4C137-4DC6-43A7-909D-C9F8072E6A1C";
userData = {
com.typemytype.robofont.layerData = {
};
};
vertWidth = 0;
width = 1286;
},
{
background = {
anchors = (
{
name = bot;
position = "{653, 0}";
},
{
name = ogonek;
position = "{1150, 0}";
},
{
name = top;
position = "{653, 1464}";
}
);
paths = (
{
closed = 1;
nodes = (
"259 0 LINE",
"373 376 LINE",
"914 376 LINE",
"1035 0 LINE",
"1278 0 LINE",
"816 1464 LINE",
"480 1464 LINE",
"28 0 LINE"
);
},
{
closed = 1;
nodes = (
"643 1313 LINE",
"862 545 LINE",
"423 545 LINE"
);
},
{
closed = 1;
nodes = (
"688 1584 LINE",
"1045 1904 LINE",
"741 1904 LINE",
"539 1583 LINE"
);
}
);
};
components = (
{
name = A;
},
{
name = acute;
transform = "{1, 0, 0, 1, 545, 441}";
}
);
layerId = "28683A17-BAD2-44EA-B42B-E882FFDD4FE1";
userData = {
com.typemytype.robofont.layerData = {
};
};
vertWidth = 0;
width = 1306;
},
{
background = {
anchors = (
{
name = ogonek;
position = "{1123, 0}";
},
{
name = top;
position = "{617, 1464}";
}
);
paths = (
{
closed = 1;
nodes = (
"168 0 LINE",
"297 401 LINE",
"928 401 LINE",
"1063 0 LINE",
"1205 0 LINE",
"717 1464 LINE",
"516 1464 LINE",
"29 0 LINE"
);
},
{
closed = 1;
nodes = (
"615 1373 LINE",
"896 505 LINE",
"330 505 LINE"
);
},
{
closed = 1;
nodes = (
"902 1916 LINE",
"716 1916 LINE",
"511 1597 LINE",
"600 1596 LINE"
);
}
);
};
components = (
{
name = A;
},
{
name = acute;
transform = "{1, 0, 0, 1, 429, 441}";
}
);
layerId = "E322F6D1-BA90-436B-BB35-51D9BD3EA9D1";
userData = {
com.typemytype.robofont.layerData = {
b = {
anchors = (
);
components = (
);
contours = (
);
lib = {
};
name = Aacute;
unicodes = (
);
width = 1234;
};
};
};
vertWidth = 0;
width = 1234;
}
);
unicode = 00C1;
},
{
glyphname = Abreve;
lastChange = "2023-02-01 16:10:23 +0000";
layers = (
{
background = {
anchors = (
{
name = ogonek;
position = "{1134, 0}";
},
{
name = top;
position = "{631.5, 1464}";
}
);
paths = (
{
closed = 1;
nodes = (
"204 0 LINE",
"327 391 LINE",
"923 391 LINE",
"1052 0 LINE",
"1234 0 LINE",
"757 1464 LINE",
"501 1464 LINE",
"29 0 LINE"
);
},
{
closed = 1;
nodes = (
"626 1349 LINE",
"882 521 LINE",
"367 521 LINE"
);
},
{
closed = 1;
nodes = (
"772 1666 OFFCURVE",
"902 1741 OFFCURVE",
"906 1929 CURVE",
"768 1929 LINE",
"768 1838 OFFCURVE",
"727 1790 OFFCURVE",
"629 1790 CURVE SMOOTH",
"532 1790 OFFCURVE",
"491 1838 OFFCURVE",
"491 1929 CURVE",
"352 1929 LINE",
"356 1741 OFFCURVE",
"486 1666 OFFCURVE",
"629 1666 CURVE SMOOTH"
);
}
);
};
components = (
{
name = A;
},
{
name = breve;
transform = "{1, 0, 0, 1, 229, 441}";
}
);
layerId = "8E6A00A3-5EF9-4E6D-9A7B-9C1BBC7D44AD";
userData = {
com.typemytype.robofont.layerData = {
};
};
vertWidth = 0;
width = 1263;
},
{
background = {
anchors = (
{
name = ogonek;
position = "{1143, 0}";
},
{
name = top;
position = "{643, 1464}";
}
);
paths = (
{
closed = 1;
nodes = (
"233 0 LINE",
"352 383 LINE",
"918 383 LINE",
"1043 0 LINE",
"1257 0 LINE",
"788 1464 LINE",
"490 1464 LINE",
"28 0 LINE"
);
},
{
closed = 1;
nodes = (
"635 1330 LINE",
"871 534 LINE",
"397 534 LINE"
);
},
{
closed = 1;
nodes = (
"781 1648 OFFCURVE",
"917 1724 OFFCURVE",
"921 1920 CURVE",
"759 1920 LINE",
"759 1845 OFFCURVE",
"738 1793 OFFCURVE",
"642 1793 CURVE SMOOTH",
"547 1793 OFFCURVE",
"526 1845 OFFCURVE",
"526 1920 CURVE",
"364 1920 LINE",
"368 1724 OFFCURVE",
"503 1648 OFFCURVE",
"642 1648 CURVE SMOOTH"
);
}
);
};
components = (
{
name = A;
},
{
name = breve;
transform = "{1, 0, 0, 1, 241, 441}";
}
);
layerId = "8DE4C137-4DC6-43A7-909D-C9F8072E6A1C";
userData = {
com.typemytype.robofont.layerData = {
};
};
vertWidth = 0;
width = 1286;
},
{
background = {
anchors = (
{
name = bot;
position = "{653, 0}";
},
{
name = ogonek;
position = "{1150, 0}";
},
{
name = top;
position = "{653, 1464}";
}
);
paths = (
{
closed = 1;
nodes = (
"259 0 LINE",
"373 376 LINE",
"914 376 LINE",
"1035 0 LINE",
"1278 0 LINE",
"816 1464 LINE",
"480 1464 LINE",
"28 0 LINE"
);
},
{
closed = 1;
nodes = (
"643 1313 LINE",
"862 545 LINE",
"423 545 LINE"
);
},
{
closed = 1;
nodes = (
"789 1632 OFFCURVE",
"929 1708 OFFCURVE",
"933 1911 CURVE",
"751 1911 LINE",
"751 1850 OFFCURVE",
"747 1795 OFFCURVE",
"653 1795 CURVE SMOOTH",
"560 1795 OFFCURVE",
"556 1850 OFFCURVE",
"556 1911 CURVE",
"374 1911 LINE",
"378 1708 OFFCURVE",
"518 1632 OFFCURVE",
"653 1632 CURVE SMOOTH"
);
}
);
};
components = (
{
name = A;
},
{
name = breve;
transform = "{1, 0, 0, 1, 251, 441}";
}
);
layerId = "28683A17-BAD2-44EA-B42B-E882FFDD4FE1";
userData = {
com.typemytype.robofont.layerData = {
};
};
vertWidth = 0;
width = 1306;
},
{
background = {
anchors = (
{
name = ogonek;
position = "{1123, 0}";
},
{
name = top;
position = "{617, 1464}";
}
);
paths = (
{
closed = 1;
nodes = (
"168 0 LINE",
"297 401 LINE",
"928 401 LINE",
"1063 0 LINE",
"1205 0 LINE",
"717 1464 LINE",
"516 1464 LINE",
"29 0 LINE"
);
},
{
closed = 1;
nodes = (
"615 1373 LINE",
"896 505 LINE",
"330 505 LINE"
);
},
{
closed = 1;
nodes = (
"762 1689 OFFCURVE",
"885 1763 OFFCURVE",
"889 1941 CURVE",
"779 1941 LINE",
"779 1830 OFFCURVE",
"714 1786 OFFCURVE",
"614 1786 CURVE SMOOTH",
"514 1786 OFFCURVE",
"448 1830 OFFCURVE",
"448 1941 CURVE",
"338 1941 LINE",
"342 1763 OFFCURVE",
"466 1689 OFFCURVE",
"614 1689 CURVE SMOOTH"
);
}
);
};
components = (
{
name = A;
},
{
name = breve;
transform = "{1, 0, 0, 1, 215, 441}";
}
);
layerId = "E322F6D1-BA90-436B-BB35-51D9BD3EA9D1";
userData = {
com.typemytype.robofont.layerData = {
b = {
anchors = (
);
components = (
);
contours = (
);
lib = {
};
name = Abreve;
unicodes = (
);
width = 1234;
};
};
};
vertWidth = 0;
width = 1234;
}
);
unicode = 0102;
},
{
glyphname = Acircumflex;
lastChange = "2023-02-01 16:10:23 +0000";
layers = (
{
background = {
anchors = (
{
name = ogonek;
position = "{1134, 0}";
},
{
name = top;
position = "{631.5, 1464}";
}
);
paths = (
{
closed = 1;
nodes = (
"204 0 LINE",
"327 391 LINE",
"923 391 LINE",
"1052 0 LINE",
"1234 0 LINE",
"757 1464 LINE",
"501 1464 LINE",
"29 0 LINE"
);
},
{
closed = 1;
nodes = (
"626 1349 LINE",
"882 521 LINE",
"367 521 LINE"
);
},
{
closed = 1;
nodes = (
"463 1595 LINE",
"624 1834 LINE",
"786 1595 LINE",
"901 1595 LINE",
"728 1915 LINE",
"521 1915 LINE",
"348 1595 LINE"
);
}
);
};
components = (
{
name = A;
},
{
name = circumflex;
transform = "{1, 0, 0, 1, 213, 441}";
}
);
layerId = "8E6A00A3-5EF9-4E6D-9A7B-9C1BBC7D44AD";
userData = {
com.typemytype.robofont.layerData = {
};
};
vertWidth = 0;
width = 1263;
},
{
background = {
anchors = (
{
name = ogonek;
position = "{1143, 0}";
},
{
name = top;
position = "{643, 1464}";
}
);
paths = (
{
closed = 1;
nodes = (
"233 0 LINE",
"352 383 LINE",
"918 383 LINE",
"1043 0 LINE",
"1257 0 LINE",
"788 1464 LINE",
"490 1464 LINE",
"28 0 LINE"
);
},
{
closed = 1;
nodes = (
"635 1330 LINE",
"871 534 LINE",
"397 534 LINE"
);
},
{
closed = 1;
nodes = (
"497 1595 LINE",
"644 1820 LINE",
"792 1595 LINE",
"925 1595 LINE",
"764 1915 LINE",
"525 1915 LINE",
"364 1595 LINE"
);
}
);
};
components = (
{
name = A;
},
{
name = circumflex;
transform = "{1, 0, 0, 1, 224, 441}";
}
);
layerId = "8DE4C137-4DC6-43A7-909D-C9F8072E6A1C";
userData = {
com.typemytype.robofont.layerData = {
};
};
vertWidth = 0;
width = 1286;
},
{
background = {
anchors = (
{
name = bot;
position = "{653, 0}";
},
{
name = ogonek;
position = "{1150, 0}";
},
{
name = top;
position = "{653, 1464}";
}
);
paths = (
{
closed = 1;
nodes = (
"259 0 LINE",
"373 376 LINE",
"914 376 LINE",
"1035 0 LINE",
"1278 0 LINE",
"816 1464 LINE",
"480 1464 LINE",
"28 0 LINE"
);
},
{
closed = 1;
nodes = (
"643 1313 LINE",
"862 545 LINE",
"423 545 LINE"
);
},
{
closed = 1;
nodes = (
"527 1595 LINE",
"661 1808 LINE",
"797 1595 LINE",
"946 1595 LINE",
"795 1915 LINE",
"528 1915 LINE",
"378 1595 LINE"
);
}
);
};
components = (
{
name = A;
},
{
name = circumflex;
transform = "{1, 0, 0, 1, 234, 441}";
}
);
layerId = "28683A17-BAD2-44EA-B42B-E882FFDD4FE1";
userData = {
com.typemytype.robofont.layerData = {
};
};
vertWidth = 0;
width = 1306;
},
{
background = {
anchors = (
{
name = ogonek;
position = "{1123, 0}";
},
{
name = top;
position = "{617, 1464}";
}
);
paths = (
{
closed = 1;
nodes = (
"168 0 LINE",
"297 401 LINE",
"928 401 LINE",
"1063 0 LINE",
"1205 0 LINE",
"717 1464 LINE",
"516 1464 LINE",
"29 0 LINE"
);
},
{
closed = 1;
nodes = (
"615 1373 LINE",
"896 505 LINE",
"330 505 LINE"
);
},
{
closed = 1;
nodes = (
"419 1595 LINE",
"598 1852 LINE",
"777 1595 LINE",
"870 1595 LINE",
"682 1915 LINE",
"515 1915 LINE",
"327 1595 LINE"
);
}
);
};
components = (
{
name = A;
},
{
name = circumflex;
transform = "{1, 0, 0, 1, 198, 441}";
}
);
layerId = "E322F6D1-BA90-436B-BB35-51D9BD3EA9D1";
userData = {
com.typemytype.robofont.layerData = {
b = {
anchors = (
);
components = (
);
contours = (
);
lib = {
};
name = Acircumflex;
unicodes = (
);
width = 1234;
};
};
};
vertWidth = 0;
width = 1234;
}
);
unicode = 00C2;
},
{
glyphname = Adieresis;
lastChange = "2023-02-01 16:10:23 +0000";
layers = (
{
background = {
anchors = (
{
name = ogonek;
position = "{1134, 0}";
},
{
name = top;
position = "{631.5, 1464}";
}
);
paths = (
{
closed = 1;
nodes = (
"204 0 LINE",
"327 391 LINE",
"923 391 LINE",
"1052 0 LINE",
"1234 0 LINE",
"757 1464 LINE",
"501 1464 LINE",
"29 0 LINE"
);
},
{
closed = 1;
nodes = (
"626 1349 LINE",
"882 521 LINE",
"367 521 LINE"
);
},
{
closed = 1;
nodes = (
"914 1621 LINE",
"914 1819 LINE",
"720 1819 LINE",
"720 1621 LINE"
);
},
{
closed = 1;
nodes = (
"507 1621 LINE",
"507 1819 LINE",
"313 1819 LINE",
"313 1621 LINE"
);
}
);
};
components = (
{
name = A;
},
{
name = dieresis;
transform = "{1, 0, 0, 1, 202, 441}";
}
);
layerId = "8E6A00A3-5EF9-4E6D-9A7B-9C1BBC7D44AD";
userData = {
com.typemytype.robofont.layerData = {
};
};
vertWidth = 0;
width = 1263;
},
{
background = {
anchors = (
{
name = ogonek;
position = "{1143, 0}";
},
{
name = top;
position = "{643, 1464}";
}
);
paths = (
{
closed = 1;
nodes = (
"233 0 LINE",
"352 383 LINE",
"918 383 LINE",
"1043 0 LINE",
"1257 0 LINE",
"788 1464 LINE",
"490 1464 LINE",
"28 0 LINE"
);
},
{
closed = 1;
nodes = (
"635 1330 LINE",
"871 534 LINE",
"397 534 LINE"
);
},
{
closed = 1;
nodes = (
"957 1610 LINE",
"957 1832 LINE",
"735 1832 LINE",
"735 1610 LINE"
);
},
{
closed = 1;
nodes = (
"522 1610 LINE",
"522 1832 LINE",
"300 1832 LINE",
"300 1610 LINE"
);
}
);
};
components = (
{
name = A;
},
{
name = dieresis;
transform = "{1, 0, 0, 1, 213, 441}";
}
);
layerId = "8DE4C137-4DC6-43A7-909D-C9F8072E6A1C";
userData = {
com.typemytype.robofont.layerData = {
};
};
vertWidth = 0;
width = 1286;
},
{
background = {
anchors = (
{
name = bot;
position = "{653, 0}";
},
{
name = ogonek;
position = "{1150, 0}";
},
{
name = top;
position = "{653, 1464}";
}
);
paths = (
{
closed = 1;
nodes = (
"259 0 LINE",
"373 376 LINE",
"914 376 LINE",
"1035 0 LINE",
"1278 0 LINE",
"816 1464 LINE",
"480 1464 LINE",
"28 0 LINE"
);
},
{
closed = 1;
nodes = (
"643 1313 LINE",
"862 545 LINE",
"423 545 LINE"
);
},
{
closed = 1;
nodes = (
"536 1601 LINE",
"536 1844 LINE",
"289 1844 LINE",
"289 1601 LINE"
);
},
{
closed = 1;
nodes = (
"995 1601 LINE",
"995 1844 LINE",
"749 1844 LINE",
"749 1601 LINE"
);
}
);
};
components = (
{
name = A;
},
{
name = dieresis;
transform = "{1, 0, 0, 1, 223, 441}";
}
);
layerId = "28683A17-BAD2-44EA-B42B-E882FFDD4FE1";
userData = {
com.typemytype.robofont.layerData = {
};
};
vertWidth = 0;
width = 1306;
},
{
background = {
anchors = (
{
name = ogonek;
position = "{1123, 0}";
},
{
name = top;
position = "{617, 1464}";
}
);
paths = (
{
closed = 1;
nodes = (
"168 0 LINE",
"297 401 LINE",
"928 401 LINE",
"1063 0 LINE",
"1205 0 LINE",
"717 1464 LINE",
"516 1464 LINE",
"29 0 LINE"
);
},
{
closed = 1;
nodes = (
"615 1373 LINE",
"896 505 LINE",
"330 505 LINE"
);
},
{
closed = 1;
nodes = (
"859 1635 LINE",
"859 1803 LINE",
"700 1803 LINE",
"700 1635 LINE"
);
},
{
closed = 1;
nodes = (
"487 1635 LINE",
"487 1803 LINE",
"328 1803 LINE",
"328 1635 LINE"
);
}
);
};
components = (
{
name = A;
},
{
name = dieresis;
transform = "{1, 0, 0, 1, 187, 441}";
}
);
layerId = "E322F6D1-BA90-436B-BB35-51D9BD3EA9D1";
userData = {
com.typemytype.robofont.layerData = {
b = {
anchors = (
);
components = (
);
contours = (
);
lib = {
};
name = Adieresis;
unicodes = (
);
width = 1234;
};
};
};
vertWidth = 0;
width = 1234;
}
);
unicode = 00C4;
},
{
glyphname = Agrave;
lastChange = "2023-02-01 16:10:23 +0000";
layers = (
{
background = {
anchors = (
{
name = ogonek;
position = "{1134, 0}";
},
{
name = top;
position = "{631.5, 1464}";
}
);
paths = (
{
closed = 1;
nodes = (
"204 0 LINE",
"327 391 LINE",
"923 391 LINE",
"1052 0 LINE",
"1234 0 LINE",
"757 1464 LINE",
"501 1464 LINE",
"29 0 LINE"
);
},
{
closed = 1;
nodes = (
"626 1349 LINE",
"882 521 LINE",
"367 521 LINE"
);
},
{
closed = 1;
nodes = (
"753 1596 LINE",
"549 1915 LINE",
"316 1915 LINE",
"640 1595 LINE"
);
}
);
};
components = (
{
name = A;
},
{
name = grave;
transform = "{1, 0, 0, 1, 284, 441}";
}
);
layerId = "8E6A00A3-5EF9-4E6D-9A7B-9C1BBC7D44AD";
userData = {
com.typemytype.robofont.layerData = {
};
};
vertWidth = 0;
width = 1263;
},
{
background = {
anchors = (
{
name = ogonek;
position = "{1143, 0}";
},
{
name = top;
position = "{643, 1464}";
}
);
paths = (
{
closed = 1;
nodes = (
"233 0 LINE",
"352 383 LINE",
"918 383 LINE",
"1043 0 LINE",
"1257 0 LINE",
"788 1464 LINE",
"490 1464 LINE",
"28 0 LINE"
);
},
{
closed = 1;
nodes = (
"635 1330 LINE",
"871 534 LINE",
"397 534 LINE"
);
},
{
closed = 1;
nodes = (
"876 1595 LINE",
"673 1915 LINE",
"402 1915 LINE",
"744 1595 LINE"
);
}
);
};
components = (
{
name = A;
},
{
name = grave;
transform = "{1, 0, 0, 1, 395, 441}";
}
);
layerId = "8DE4C137-4DC6-43A7-909D-C9F8072E6A1C";
userData = {
com.typemytype.robofont.layerData = {
};
};
vertWidth = 0;
width = 1286;
},
{
background = {
anchors = (
{
name = bot;
position = "{653, 0}";
},
{
name = ogonek;
position = "{1150, 0}";
},
{
name = top;
position = "{653, 1464}";
}
);
paths = (
{
closed = 1;
nodes = (
"259 0 LINE",
"373 376 LINE",
"914 376 LINE",
"1035 0 LINE",
"1278 0 LINE",
"816 1464 LINE",
"480 1464 LINE",
"28 0 LINE"
);
},
{
closed = 1;
nodes = (
"643 1313 LINE",
"862 545 LINE",
"423 545 LINE"
);
},
{
closed = 1;
nodes = (
"747 1595 LINE",
"545 1915 LINE",
"241 1915 LINE",
"598 1595 LINE"
);
}
);
};
components = (
{
name = A;
},
{
name = grave;
transform = "{1, 0, 0, 1, 255, 441}";
}
);
layerId = "28683A17-BAD2-44EA-B42B-E882FFDD4FE1";
userData = {
com.typemytype.robofont.layerData = {
};
};
vertWidth = 0;
width = 1306;
},
{
background = {
anchors = (
{
name = ogonek;
position = "{1123, 0}";
},
{
name = top;
position = "{617, 1464}";
}
);
paths = (
{
closed = 1;
nodes = (
"168 0 LINE",
"297 401 LINE",
"928 401 LINE",
"1063 0 LINE",
"1205 0 LINE",
"717 1464 LINE",
"516 1464 LINE",
"29 0 LINE"
);
},
{
closed = 1;
nodes = (
"615 1373 LINE",
"896 505 LINE",
"330 505 LINE"
);
},
{
closed = 1;
nodes = (
"713 1596 LINE",
"508 1915 LINE",
"322 1915 LINE",
"624 1595 LINE"
);
}
);
};
components = (
{
name = A;
},
{
name = grave;
transform = "{1, 0, 0, 1, 259, 441}";
}
);
layerId = "E322F6D1-BA90-436B-BB35-51D9BD3EA9D1";
userData = {
com.typemytype.robofont.layerData = {
b = {
anchors = (
);
components = (
);
contours = (
);
lib = {
};
name = Agrave;
unicodes = (
);
width = 1234;
};
};
};
vertWidth = 0;
width = 1234;
}
);
unicode = 00C0;
},
{
glyphname = Amacron;
lastChange = "2023-02-01 16:10:23 +0000";
layers = (
{
background = {
anchors = (
{
name = ogonek;
position = "{1134, 0}";
},
{
name = top;
position = "{631.5, 1464}";
}
);
paths = (
{
closed = 1;
nodes = (
"204 0 LINE",
"327 391 LINE",
"923 391 LINE",
"1052 0 LINE",
"1234 0 LINE",
"757 1464 LINE",
"501 1464 LINE",
"29 0 LINE"
);
},
{
closed = 1;
nodes = (
"626 1349 LINE",
"882 521 LINE",
"367 521 LINE"
);
},
{
closed = 1;
nodes = (
"852 1668 LINE",
"852 1788 LINE",
"398 1788 LINE",
"398 1668 LINE"
);
}
);
};
components = (
{
name = A;
},
{
name = macron;
transform = "{1, 0, 0, 1, 260, 441}";
}
);
layerId = "8E6A00A3-5EF9-4E6D-9A7B-9C1BBC7D44AD";
userData = {
com.typemytype.robofont.layerData = {
};
};
vertWidth = 0;
width = 1263;
},
{
background = {
anchors = (
{
name = ogonek;
position = "{1143, 0}";
},
{
name = top;
position = "{643, 1464}";
}
);
paths = (
{
closed = 1;
nodes = (
"233 0 LINE",
"352 383 LINE",
"918 383 LINE",
"1043 0 LINE",
"1257 0 LINE",
"788 1464 LINE",
"490 1464 LINE",
"28 0 LINE"
);
},
{
closed = 1;
nodes = (
"635 1330 LINE",
"871 534 LINE",
"397 534 LINE"
);
},
{
closed = 1;
nodes = (
"882 1635 LINE",
"882 1775 LINE",
"428 1775 LINE",
"428 1635 LINE"
);
}
);
};
components = (
{
name = A;
},
{
name = macron;
transform = "{1, 0, 0, 1, 281, 441}";
}
);
layerId = "8DE4C137-4DC6-43A7-909D-C9F8072E6A1C";
userData = {
com.typemytype.robofont.layerData = {
};
};
vertWidth = 0;
width = 1286;
},
{
background = {
anchors = (
{
name = bot;
position = "{653, 0}";
},
{
name = ogonek;
position = "{1150, 0}";
},
{
name = top;
position = "{653, 1464}";
}
);
paths = (
{
closed = 1;
nodes = (
"259 0 LINE",
"373 376 LINE",
"914 376 LINE",
"1035 0 LINE",
"1278 0 LINE",
"816 1464 LINE",
"480 1464 LINE",
"28 0 LINE"
);
},
{
closed = 1;
nodes = (
"643 1313 LINE",
"862 545 LINE",
"423 545 LINE"
);
},
{
closed = 1;
nodes = (
"899 1607 LINE",
"899 1764 LINE",
"445 1764 LINE",
"445 1607 LINE"
);
}
);
};
components = (
{
name = A;
},
{
name = macron;
transform = "{1, 0, 0, 1, 291, 441}";
}
);
layerId = "28683A17-BAD2-44EA-B42B-E882FFDD4FE1";
userData = {
com.typemytype.robofont.layerData = {
};
};
vertWidth = 0;
width = 1306;
},
{
background = {
anchors = (
{
name = ogonek;
position = "{1123, 0}";
},
{
name = top;
position = "{617, 1464}";
}
);
paths = (
{
closed = 1;
nodes = (
"168 0 LINE",
"297 401 LINE",
"928 401 LINE",
"1063 0 LINE",
"1205 0 LINE",
"717 1464 LINE",
"516 1464 LINE",
"29 0 LINE"
);
},
{
closed = 1;
nodes = (
"615 1373 LINE",
"896 505 LINE",
"330 505 LINE"
);
},
{
closed = 1;
nodes = (
"837 1708 LINE",
"837 1803 LINE",
"383 1803 LINE",
"383 1708 LINE"
);
}
);
};
components = (
{
name = A;
},
{
name = macron;
transform = "{1, 0, 0, 1, 255, 441}";
}
);
layerId = "E322F6D1-BA90-436B-BB35-51D9BD3EA9D1";
userData = {
com.typemytype.robofont.layerData = {
b = {
anchors = (
);
components = (
);
contours = (
);
lib = {
};
name = Amacron;
unicodes = (
);
width = 1234;
};
};
};
vertWidth = 0;
width = 1234;
}
);
unicode = 0100;
},
{
glyphname = Aogonek;
lastChange = "2023-02-01 16:10:23 +0000";
layers = (
{
background = {
anchors = (
{
name = ogonek;
position = "{1134, 0}";
},
{
name = top;
position = "{631.5, 1464}";
}
);
paths = (
{
closed = 1;
nodes = (
"204 0 LINE",
"327 391 LINE",
"923 391 LINE",
"1052 0 LINE",
"1234 0 LINE",
"757 1464 LINE",
"501 1464 LINE",
"29 0 LINE"
);
},
{
closed = 1;
nodes = (
"626 1349 LINE",
"882 521 LINE",
"367 521 LINE"
);
},
{
closed = 1;
nodes = (
"1151 -379 OFFCURVE",
"1179 -376 OFFCURVE",
"1210 -368 CURVE",
"1210 -272 LINE",
"1193 -276 OFFCURVE",
"1179 -278 OFFCURVE",
"1166 -278 CURVE SMOOTH",
"1118 -278 OFFCURVE",
"1102 -250 OFFCURVE",
"1102 -212 CURVE SMOOTH",
"1102 -154 OFFCURVE",
"1141 -77 OFFCURVE",
"1175 0 CURVE",
"1092 0 LINE",
"1028 -80 OFFCURVE",
"961 -162 OFFCURVE",
"961 -244 CURVE SMOOTH",
"961 -309 OFFCURVE",
"1012 -379 OFFCURVE",
"1125 -379 CURVE SMOOTH"
);
}
);
};
components = (
{
name = A;
},
{
name = ogonek;
transform = "{1, 0, 0, 1, 844, 0}";
}
);
layerId = "8E6A00A3-5EF9-4E6D-9A7B-9C1BBC7D44AD";
userData = {
com.typemytype.robofont.layerData = {
};
};
vertWidth = 0;
width = 1263;
},
{
background = {
anchors = (
{
name = ogonek;
position = "{1143, 0}";
},
{
name = top;
position = "{643, 1464}";
}
);
paths = (
{
closed = 1;
nodes = (
"233 0 LINE",
"352 383 LINE",
"918 383 LINE",
"1043 0 LINE",
"1257 0 LINE",
"788 1464 LINE",
"490 1464 LINE",
"28 0 LINE"
);
},
{
closed = 1;
nodes = (
"635 1330 LINE",
"871 534 LINE",
"397 534 LINE"
);
},
{
closed = 1;
nodes = (
"1166 -387 OFFCURVE",
"1196 -383 OFFCURVE",
"1230 -375 CURVE",
"1230 -264 LINE",
"1213 -268 OFFCURVE",
"1199 -270 OFFCURVE",
"1187 -270 CURVE SMOOTH",
"1139 -270 OFFCURVE",
"1125 -242 OFFCURVE",
"1125 -205 CURVE SMOOTH",
"1125 -147 OFFCURVE",
"1156 -80 OFFCURVE",
"1191 0 CURVE",
"1096 0 LINE",
"1033 -72 OFFCURVE",
"961 -156 OFFCURVE",
"961 -243 CURVE SMOOTH",
"961 -308 OFFCURVE",
"1014 -387 OFFCURVE",
"1139 -387 CURVE SMOOTH"
);
}
);
};
components = (
{
name = A;
},
{
name = ogonek;
transform = "{1, 0, 0, 1, 844, 0}";
}
);
layerId = "8DE4C137-4DC6-43A7-909D-C9F8072E6A1C";
userData = {
com.typemytype.robofont.layerData = {
};
};
vertWidth = 0;
width = 1286;
},
{
background = {
anchors = (
{
name = bot;
position = "{653, 0}";
},
{
name = ogonek;
position = "{1150, 0}";
},
{
name = top;
position = "{653, 1464}";
}
);
paths = (
{
closed = 1;
nodes = (
"259 0 LINE",
"373 376 LINE",
"914 376 LINE",
"1035 0 LINE",
"1278 0 LINE",
"816 1464 LINE",
"480 1464 LINE",
"28 0 LINE"
);
},
{
closed = 1;
nodes = (
"643 1313 LINE",
"862 545 LINE",
"423 545 LINE"
);
},
{
closed = 1;
nodes = (
"1248 -257 LINE",
"1165 -276 OFFCURVE",
"1145 -244 OFFCURVE",
"1145 -199 CURVE SMOOTH",
"1145 -141 OFFCURVE",
"1170 -83 OFFCURVE",
"1205 0 CURVE",
"1100 0 LINE",
"1037 -65 OFFCURVE",
"961 -151 OFFCURVE",
"961 -241 CURVE SMOOTH",
"961 -321 OFFCURVE",
"1040 -431 OFFCURVE",
"1248 -382 CURVE"
);
}
);
};
components = (
{
name = A;
},
{
name = ogonek;
transform = "{1, 0, 0, 1, 844, 0}";
}
);
layerId = "28683A17-BAD2-44EA-B42B-E882FFDD4FE1";
userData = {
com.typemytype.robofont.layerData = {
};
};
vertWidth = 0;
width = 1306;
},
{
background = {
anchors = (
{
name = ogonek;
position = "{1123, 0}";
},
{
name = top;
position = "{617, 1464}";
}
);
paths = (
{
closed = 1;
nodes = (
"168 0 LINE",
"297 401 LINE",
"928 401 LINE",
"1063 0 LINE",
"1205 0 LINE",
"717 1464 LINE",
"516 1464 LINE",
"29 0 LINE"
);
},
{
closed = 1;
nodes = (
"615 1373 LINE",
"896 505 LINE",
"330 505 LINE"
);
},
{
closed = 1;
nodes = (
"1130 -369 OFFCURVE",
"1156 -366 OFFCURVE",
"1184 -359 CURVE",
"1184 -282 LINE",
"1167 -286 OFFCURVE",
"1152 -288 OFFCURVE",
"1140 -288 CURVE SMOOTH",
"1090 -288 OFFCURVE",
"1072 -260 OFFCURVE",
"1072 -221 CURVE SMOOTH",
"1072 -163 OFFCURVE",
"1120 -73 OFFCURVE",
"1154 0 CURVE",
"1086 0 LINE",
"1020 -91 OFFCURVE",
"960 -168 OFFCURVE",
"960 -246 CURVE SMOOTH",
"960 -309 OFFCURVE",
"1008 -369 OFFCURVE",
"1108 -369 CURVE SMOOTH"
);
}
);
};
components = (
{
name = A;
},
{
name = ogonek;
transform = "{1, 0, 0, 1, 843, 0}";
}
);
layerId = "E322F6D1-BA90-436B-BB35-51D9BD3EA9D1";
userData = {
com.typemytype.robofont.layerData = {
b = {
anchors = (
);
components = (
);
contours = (
);
lib = {
};
name = Aogonek;
unicodes = (
);
width = 1234;
};
};
};
vertWidth = 0;
width = 1234;
}
);
unicode = 0104;
},
{
glyphname = Aring;
lastChange = "2023-02-01 16:10:23 +0000";
layers = (
{
background = {
anchors = (
{
name = ogonek;
position = "{1134, 0}";
},
{
name = top;
position = "{631.5, 1464}";
}
);
paths = (
{
closed = 1;
nodes = (
"204 0 LINE",
"327 391 LINE",
"923 391 LINE",
"1052 0 LINE",
"1234 0 LINE",
"757 1464 LINE",
"501 1464 LINE",
"29 0 LINE"
);
},
{
closed = 1;
nodes = (
"626 1349 LINE",
"882 521 LINE",
"367 521 LINE"
);
},
{
closed = 1;
nodes = (
"787 1634 OFFCURVE",
"880 1750 OFFCURVE",
"880 1877 CURVE SMOOTH",
"880 2005 OFFCURVE",
"787 2120 OFFCURVE",
"631 2120 CURVE SMOOTH",
"475 2120 OFFCURVE",
"382 2005 OFFCURVE",
"382 1877 CURVE SMOOTH",
"382 1750 OFFCURVE",
"475 1634 OFFCURVE",
"631 1634 CURVE SMOOTH"
);
},
{
closed = 1;
nodes = (
"545 1735 OFFCURVE",
"499 1803 OFFCURVE",
"499 1877 CURVE SMOOTH",
"499 1951 OFFCURVE",
"545 2020 OFFCURVE",
"631 2020 CURVE SMOOTH",
"717 2020 OFFCURVE",
"763 1951 OFFCURVE",
"763 1877 CURVE SMOOTH",
"763 1803 OFFCURVE",
"717 1735 OFFCURVE",
"631 1735 CURVE SMOOTH"
);
}
);
};
components = (
{
name = A;
},
{
name = ring;
transform = "{1, 0, 0, 1, 268, 441}";
}
);
layerId = "8E6A00A3-5EF9-4E6D-9A7B-9C1BBC7D44AD";
userData = {
com.typemytype.robofont.layerData = {
};
};
vertWidth = 0;
width = 1263;
},
{
background = {
anchors = (
{
name = ogonek;
position = "{1143, 0}";
},
{
name = top;
position = "{643, 1464}";
}
);
paths = (
{
closed = 1;
nodes = (
"233 0 LINE",
"352 383 LINE",
"918 383 LINE",
"1043 0 LINE",
"1257 0 LINE",
"788 1464 LINE",
"490 1464 LINE",
"28 0 LINE"
);
},
{
closed = 1;
nodes = (
"635 1330 LINE",
"871 534 LINE",
"397 534 LINE"
);
},
{
closed = 1;
nodes = (
"808 1655 OFFCURVE",
"902 1775 OFFCURVE",
"902 1906 CURVE SMOOTH",
"902 2038 OFFCURVE",
"808 2157 OFFCURVE",
"644 2157 CURVE SMOOTH",
"480 2157 OFFCURVE",
"386 2038 OFFCURVE",
"386 1906 CURVE SMOOTH",
"386 1775 OFFCURVE",
"480 1655 OFFCURVE",
"644 1655 CURVE SMOOTH"
);
},
{
closed = 1;
nodes = (
"565 1772 OFFCURVE",
"521 1832 OFFCURVE",
"521 1906 CURVE SMOOTH",
"521 1980 OFFCURVE",
"565 2041 OFFCURVE",
"644 2041 CURVE SMOOTH",
"723 2041 OFFCURVE",
"767 1980 OFFCURVE",
"767 1906 CURVE SMOOTH",
"767 1832 OFFCURVE",
"723 1772 OFFCURVE",
"644 1772 CURVE SMOOTH"
);
}
);
};
components = (
{
name = A;
},
{
name = ring;
transform = "{1, 0, 0, 1, 279, 441}";
}
);
layerId = "8DE4C137-4DC6-43A7-909D-C9F8072E6A1C";
userData = {
com.typemytype.robofont.layerData = {
};
};
vertWidth = 0;
width = 1286;
},
{
background = {
anchors = (
{
name = bot;
position = "{653, 0}";
},
{
name = ogonek;
position = "{1150, 0}";
},
{
name = top;
position = "{653, 1464}";
}
);
paths = (
{
closed = 1;
nodes = (
"259 0 LINE",
"373 376 LINE",
"914 376 LINE",
"1035 0 LINE",
"1278 0 LINE",
"816 1464 LINE",
"480 1464 LINE",
"28 0 LINE"
);
},
{
closed = 1;
nodes = (
"643 1313 LINE",
"862 545 LINE",
"423 545 LINE"
);
},
{
closed = 1;
nodes = (
"827 1674 OFFCURVE",
"921 1798 OFFCURVE",
"921 1932 CURVE SMOOTH",
"921 2066 OFFCURVE",
"827 2190 OFFCURVE",
"656 2190 CURVE SMOOTH",
"485 2190 OFFCURVE",
"390 2066 OFFCURVE",
"390 1932 CURVE SMOOTH",
"390 1798 OFFCURVE",
"485 1674 OFFCURVE",
"656 1674 CURVE SMOOTH"
);
},
{
closed = 1;
nodes = (
"584 1805 OFFCURVE",
"541 1858 OFFCURVE",
"541 1932 CURVE SMOOTH",
"541 2006 OFFCURVE",
"584 2059 OFFCURVE",
"656 2059 CURVE SMOOTH",
"728 2059 OFFCURVE",
"770 2006 OFFCURVE",
"770 1932 CURVE SMOOTH",
"770 1858 OFFCURVE",
"728 1805 OFFCURVE",
"656 1805 CURVE SMOOTH"
);
}
);
};
components = (
{
name = A;
},
{
name = ring;
transform = "{1, 0, 0, 1, 289, 441}";
}
);
layerId = "28683A17-BAD2-44EA-B42B-E882FFDD4FE1";
userData = {
com.typemytype.robofont.layerData = {
};
};
vertWidth = 0;
width = 1306;
},
{
background = {
anchors = (
{
name = ogonek;
position = "{1123, 0}";
},
{
name = top;
position = "{617, 1464}";
}
);
paths = (
{
closed = 1;
nodes = (
"168 0 LINE",
"297 401 LINE",
"928 401 LINE",
"1063 0 LINE",
"1205 0 LINE",
"717 1464 LINE",
"516 1464 LINE",
"29 0 LINE"
);
},
{
closed = 1;
nodes = (
"615 1373 LINE",
"896 505 LINE",
"330 505 LINE"
);
},
{
closed = 1;
nodes = (
"760 1608 OFFCURVE",
"851 1718 OFFCURVE",
"851 1841 CURVE SMOOTH",
"851 1964 OFFCURVE",
"760 2074 OFFCURVE",
"614 2074 CURVE SMOOTH",
"468 2074 OFFCURVE",
"376 1964 OFFCURVE",
"376 1841 CURVE SMOOTH",
"376 1718 OFFCURVE",
"468 1608 OFFCURVE",
"614 1608 CURVE SMOOTH"
);
},
{
closed = 1;
nodes = (
"518 1688 OFFCURVE",
"469 1767 OFFCURVE",
"469 1841 CURVE SMOOTH",
"469 1915 OFFCURVE",
"518 1994 OFFCURVE",
"614 1994 CURVE SMOOTH",
"709 1994 OFFCURVE",
"758 1915 OFFCURVE",
"758 1841 CURVE SMOOTH",
"758 1767 OFFCURVE",
"709 1688 OFFCURVE",
"614 1688 CURVE SMOOTH"
);
}
);
};
components = (
{
name = A;
},
{
name = ring;
transform = "{1, 0, 0, 1, 253, 441}";
}
);
layerId = "E322F6D1-BA90-436B-BB35-51D9BD3EA9D1";
userData = {
com.typemytype.robofont.layerData = {
b = {
anchors = (
);
components = (
);
contours = (
);
lib = {
};
name = Aring;
unicodes = (
);
width = 1234;
};
};
};
vertWidth = 0;
width = 1234;
}
);
unicode = 00C5;
},
{
glyphname = Atilde;
lastChange = "2023-02-01 16:10:23 +0000";
layers = (
{
background = {
anchors = (
{
name = ogonek;
position = "{1134, 0}";
},
{
name = top;
position = "{631.5, 1464}";
}
);
paths = (
{
closed = 1;
nodes = (
"204 0 LINE",
"327 391 LINE",
"923 391 LINE",
"1052 0 LINE",
"1234 0 LINE",
"757 1464 LINE",
"501 1464 LINE",
"29 0 LINE"
);
},
{
closed = 1;
nodes = (
"626 1349 LINE",
"882 521 LINE",
"367 521 LINE"
);
},
{
closed = 1;
nodes = (
"863 1638 OFFCURVE",
"910 1685 OFFCURVE",
"910 1809 CURVE SMOOTH",
"910 1822 OFFCURVE",
"910 1836 OFFCURVE",
"909 1851 CURVE",
"798 1851 LINE",
"798 1794 OFFCURVE",
"791 1763 OFFCURVE",
"762 1763 CURVE SMOOTH",
"705 1763 OFFCURVE",
"559 1852 OFFCURVE",
"462 1852 CURVE SMOOTH",
"409 1852 OFFCURVE",
"343 1816 OFFCURVE",
"343 1692 CURVE SMOOTH",
"343 1676 OFFCURVE",
"344 1659 OFFCURVE",
"347 1640 CURVE",
"456 1640 LINE",
"456 1700 OFFCURVE",
"473 1725 OFFCURVE",
"497 1725 CURVE",
"577 1719 OFFCURVE",
"698 1638 OFFCURVE",
"800 1638 CURVE SMOOTH"
);
}
);
};
components = (
{
name = A;
},
{
name = tilde;
transform = "{1, 0, 0, 1, 233, 441}";
}
);
layerId = "8E6A00A3-5EF9-4E6D-9A7B-9C1BBC7D44AD";
userData = {
com.typemytype.robofont.layerData = {
};
};
vertWidth = 0;
width = 1263;
},
{
background = {
anchors = (
{
name = ogonek;
position = "{1143, 0}";
},
{
name = top;
position = "{643, 1464}";
}
);
paths = (
{
closed = 1;
nodes = (
"233 0 LINE",
"352 383 LINE",
"918 383 LINE",
"1043 0 LINE",
"1257 0 LINE",
"788 1464 LINE",
"490 1464 LINE",
"28 0 LINE"
);
},
{
closed = 1;
nodes = (
"635 1330 LINE",
"871 534 LINE",
"397 534 LINE"
);
},
{
closed = 1;
nodes = (
"898 1635 OFFCURVE",
"935 1704 OFFCURVE",
"935 1820 CURVE SMOOTH",
"935 1835 OFFCURVE",
"935 1851 OFFCURVE",
"933 1868 CURVE",
"809 1868 LINE",
"809 1810 OFFCURVE",
"799 1788 OFFCURVE",
"772 1788 CURVE SMOOTH",
"701 1788 OFFCURVE",
"585 1873 OFFCURVE",
"470 1873 CURVE SMOOTH",
"409 1873 OFFCURVE",
"351 1823 OFFCURVE",
"351 1699 CURVE SMOOTH",
"351 1681 OFFCURVE",
"352 1662 OFFCURVE",
"355 1641 CURVE",
"478 1641 LINE",
"478 1701 OFFCURVE",
"499 1723 OFFCURVE",
"523 1723 CURVE",
"624 1716 OFFCURVE",
"720 1635 OFFCURVE",
"830 1635 CURVE SMOOTH"
);
}
);
};
components = (
{
name = A;
},
{
name = tilde;
transform = "{1, 0, 0, 1, 244, 441}";
}
);
layerId = "8DE4C137-4DC6-43A7-909D-C9F8072E6A1C";
userData = {
com.typemytype.robofont.layerData = {
};
};
vertWidth = 0;
width = 1286;
},
{
background = {
anchors = (
{
name = bot;
position = "{653, 0}";
},
{
name = ogonek;
position = "{1150, 0}";
},
{
name = top;
position = "{653, 1464}";
}
);
paths = (
{
closed = 1;
nodes = (
"259 0 LINE",
"373 376 LINE",
"914 376 LINE",
"1035 0 LINE",
"1278 0 LINE",
"816 1464 LINE",
"480 1464 LINE",
"28 0 LINE"
);
},
{
closed = 1;
nodes = (
"643 1313 LINE",
"862 545 LINE",
"423 545 LINE"
);
},
{
closed = 1;
nodes = (
"911 1641 OFFCURVE",
"930 1766 OFFCURVE",
"930 1867 CURVE",
"794 1867 LINE",
"790 1813 OFFCURVE",
"777 1799 OFFCURVE",
"751 1800 CURVE SMOOTH",
"669 1806 OFFCURVE",
"593 1871 OFFCURVE",
"462 1881 CURVE SMOOTH",
"349 1888 OFFCURVE",
"321 1786 OFFCURVE",
"321 1689 CURVE SMOOTH",
"321 1679 OFFCURVE",
"322 1669 OFFCURVE",
"322 1658 CURVE",
"457 1658 LINE",
"461 1713 OFFCURVE",
"486 1731 OFFCURVE",
"510 1729 CURVE",
"629 1713 OFFCURVE",
"680 1657 OFFCURVE",
"796 1649 CURVE SMOOTH"
);
}
);
};
components = (
{
name = A;
},
{
name = tilde;
transform = "{1, 0, 0, 1, 221, 441}";
}
);
layerId = "28683A17-BAD2-44EA-B42B-E882FFDD4FE1";
userData = {
com.typemytype.robofont.layerData = {
};
};
vertWidth = 0;
width = 1306;
},
{
background = {
anchors = (
{
name = ogonek;
position = "{1123, 0}";
},
{
name = top;
position = "{617, 1464}";
}
);
paths = (
{
closed = 1;
nodes = (
"168 0 LINE",
"297 401 LINE",
"928 401 LINE",
"1063 0 LINE",
"1205 0 LINE",
"717 1464 LINE",
"516 1464 LINE",
"29 0 LINE"
);
},
{
closed = 1;
nodes = (
"615 1373 LINE",
"896 505 LINE",
"330 505 LINE"
);
},
{
closed = 1;
nodes = (
"427 1639 LINE",
"427 1699 OFFCURVE",
"439 1728 OFFCURVE",
"463 1728 CURVE",
"517 1724 OFFCURVE",
"669 1642 OFFCURVE",
"761 1642 CURVE SMOOTH",
"818 1642 OFFCURVE",
"878 1661 OFFCURVE",
"878 1795 CURVE SMOOTH",
"878 1806 OFFCURVE",
"878 1817 OFFCURVE",
"877 1830 CURVE",
"783 1830 LINE",
"783 1774 OFFCURVE",
"780 1732 OFFCURVE",
"748 1732 CURVE SMOOTH",
"708 1732 OFFCURVE",
"524 1825 OFFCURVE",
"451 1825 CURVE SMOOTH",
"407 1825 OFFCURVE",
"332 1807 OFFCURVE",
"332 1683 CURVE SMOOTH",
"332 1670 OFFCURVE",
"333 1655 OFFCURVE",
"335 1639 CURVE"
);
}
);
};
components = (
{
name = A;
},
{
name = tilde;
transform = "{1, 0, 0, 1, 218, 441}";
}
);
layerId = "E322F6D1-BA90-436B-BB35-51D9BD3EA9D1";
userData = {
com.typemytype.robofont.layerData = {
b = {
anchors = (
);
components = (
);
contours = (
);
lib = {
};
name = Atilde;
unicodes = (
);
width = 1234;
};
};
};
vertWidth = 0;
width = 1234;
}
);
unicode = 00C3;
},
{
glyphname = AE;
lastChange = "2023-02-01 16:10:13 +0000";
layers = (
{
anchors = (
{
name = top;
position = "{1315, 1464}";
}
);
background = {
anchors = (
{
name = top;
position = "{1315, 1464}";
}
);
paths = (
{
closed = 1;
nodes = (
"152 0 LINE",
"387 387 LINE",
"974 387 LINE",
"974 0 LINE",
"2015 0 LINE",
"2015 134 LINE",
"1148 134 LINE",
"1148 712 LINE",
"1842 712 LINE",
"1843 850 LINE",
"1148 850 LINE",
"1148 1330 LINE",
"2005 1330 LINE",
"2005 1464 LINE",
"849 1464 LINE",
"-40 0 LINE"
);
},
{
closed = 1;
nodes = (
"974 1395 LINE",
"974 518 LINE",
"459 518 LINE"
);
}
);
};
layerId = "8E6A00A3-5EF9-4E6D-9A7B-9C1BBC7D44AD";
paths = (
{
closed = 1;
nodes = (
"152 0 LINE",
"387 387 LINE",
"974 387 LINE",
"974 0 LINE",
"2015 0 LINE",
"2015 134 LINE",
"1148 134 LINE",
"1148 712 LINE",
"1842 712 LINE",
"1843 850 LINE",
"1148 850 LINE",
"1148 1330 LINE",
"2005 1330 LINE",
"2005 1464 LINE",
"849 1464 LINE",
"-40 0 LINE"
);
},
{
closed = 1;
nodes = (
"974 1395 LINE",
"974 518 LINE",
"459 518 LINE"
);
}
);
userData = {
anchors = (
);
b = {
};
com.typemytype.robofont.layerData = {
};
components = (
);
contours = (
);
lib = {
};
name = AE;
unicodes = (
);
width = "2030";
};
vertWidth = 0;
width = 2030;
},
{
anchors = (
{
name = top;
position = "{1015, 1464}";
}
);
background = {
anchors = (
{
name = top;
position = "{1015, 1464}";
}
);
paths = (
{
closed = 1;
nodes = (
"179 0 LINE",
"402 375 LINE",
"974 375 LINE",
"974 0 LINE",
"2015 0 LINE",
"2015 157 LINE",
"1177 157 LINE",
"1177 701 LINE",
"1842 701 LINE",
"1843 862 LINE",
"1177 862 LINE",
"1177 1307 LINE",
"2005 1307 LINE",
"2005 1464 LINE",
"828 1464 LINE",
"-45 0 LINE"
);
},
{
closed = 1;
nodes = (
"974 1384 LINE",
"974 527 LINE",
"486 527 LINE"
);
}
);
};
layerId = "8DE4C137-4DC6-43A7-909D-C9F8072E6A1C";
paths = (
{
closed = 1;
nodes = (
"179 0 LINE",
"402 375 LINE",
"974 375 LINE",
"974 0 LINE",
"2015 0 LINE",
"2015 157 LINE",
"1177 157 LINE",
"1177 701 LINE",
"1842 701 LINE",
"1843 862 LINE",
"1177 862 LINE",
"1177 1307 LINE",
"2005 1307 LINE",
"2005 1464 LINE",
"828 1464 LINE",
"-45 0 LINE"
);
},
{
closed = 1;
nodes = (
"974 1384 LINE",
"974 527 LINE",
"486 527 LINE"
);
}
);
userData = {
anchors = (
);
b = {
};
com.typemytype.robofont.layerData = {
};
components = (
);
contours = (
);
lib = {
};
name = AE;
unicodes = (
);
width = "2030";
};
vertWidth = 0;
width = 2030;
},
{
anchors = (
{
name = top;
position = "{1015, 1464}";
}
);
background = {
anchors = (
{
name = top;
position = "{1015, 1464}";
}
);
paths = (
{
closed = 1;
nodes = (
"203 0 LINE",
"416 365 LINE",
"974 365 LINE",
"974 0 LINE",
"2015 0 LINE",
"2015 176 LINE",
"1203 176 LINE",
"1203 692 LINE",
"1842 692 LINE",
"1843 873 LINE",
"1203 873 LINE",
"1203 1288 LINE",
"2005 1288 LINE",
"2005 1464 LINE",
"809 1464 LINE",
"-49 0 LINE"
);
},
{
closed = 1;
nodes = (
"974 1374 LINE",
"974 536 LINE",
"510 536 LINE"
);
}
);
};
layerId = "28683A17-BAD2-44EA-B42B-E882FFDD4FE1";
paths = (
{
closed = 1;
nodes = (
"203 0 LINE",
"416 365 LINE",
"974 365 LINE",
"974 0 LINE",
"2015 0 LINE",
"2015 176 LINE",
"1203 176 LINE",
"1203 692 LINE",
"1842 692 LINE",
"1843 873 LINE",
"1203 873 LINE",
"1203 1288 LINE",
"2005 1288 LINE",
"2005 1464 LINE",
"809 1464 LINE",
"-49 0 LINE"
);
},
{
closed = 1;
nodes = (
"974 1374 LINE",
"974 536 LINE",
"510 536 LINE"
);
}
);
userData = {
anchors = (
);
b = {
};
com.typemytype.robofont.layerData = {
};
components = (
);
contours = (
);
lib = {
};
name = AE;
unicodes = (
);
width = "2030";
};
vertWidth = 0;
width = 2030;
},
{
anchors = (
{
name = top;
position = "{1015, 1464}";
}
);
background = {
anchors = (
{
name = top;
position = "{1015, 1464}";
}
);
paths = (
{
closed = 1;
nodes = (
"117 0 LINE",
"367 402 LINE",
"974 402 LINE",
"974 0 LINE",
"2015 0 LINE",
"2015 106 LINE",
"1111 106 LINE",
"1111 726 LINE",
"1842 726 LINE",
"1843 835 LINE",
"1111 835 LINE",
"1111 1358 LINE",
"2005 1358 LINE",
"2005 1464 LINE",
"875 1464 LINE",
"-35 0 LINE"
);
},
{
closed = 1;
nodes = (
"974 1409 LINE",
"974 506 LINE",
"424 506 LINE"
);
}
);
};
layerId = "E322F6D1-BA90-436B-BB35-51D9BD3EA9D1";
paths = (
{
closed = 1;
nodes = (
"117 0 LINE",
"367 402 LINE",
"974 402 LINE",
"974 0 LINE",
"2015 0 LINE",
"2015 106 LINE",
"1111 106 LINE",
"1111 726 LINE",
"1842 726 LINE",
"1843 835 LINE",
"1111 835 LINE",
"1111 1358 LINE",
"2005 1358 LINE",
"2005 1464 LINE",
"875 1464 LINE",
"-35 0 LINE"
);
},
{
closed = 1;
nodes = (
"974 1409 LINE",
"974 506 LINE",
"424 506 LINE"
);
}
);
userData = {
anchors = (
);
b = {
};
com.typemytype.robofont.layerData = {
b = {
anchors = (
);
components = (
);
contours = (
);
lib = {
};
name = AE;
unicodes = (
);
width = 2030;
};
};
components = (
);
contours = (
);
lib = {
};
name = AE;
unicodes = (
);
width = "2030";
};
vertWidth = 0;
width = 2030;
}
);
unicode = 00C6;
},
{
glyphname = AEacute;
lastChange = "2023-02-01 16:10:23 +0000";
layers = (
{
background = {
anchors = (
{
name = top;
position = "{1315, 1464}";
}
);
paths = (
{
closed = 1;
nodes = (
"152 0 LINE",
"387 387 LINE",
"974 387 LINE",
"974 0 LINE",
"2015 0 LINE",
"2015 134 LINE",
"1148 134 LINE",
"1148 712 LINE",
"1842 712 LINE",
"1843 850 LINE",
"1148 850 LINE",
"1148 1330 LINE",
"2005 1330 LINE",
"2005 1464 LINE",
"849 1464 LINE",
"-40 0 LINE"
);
},
{
closed = 1;
nodes = (
"974 1395 LINE",
"974 518 LINE",
"459 518 LINE"
);
},
{
closed = 1;
nodes = (
"1651 1911 LINE",
"1418 1911 LINE",
"1214 1592 LINE",
"1327 1591 LINE"
);
}
);
};
components = (
{
name = AE;
},
{
name = acute;
transform = "{1, 0, 0, 1, 1167, 441}";
}
);
layerId = "8E6A00A3-5EF9-4E6D-9A7B-9C1BBC7D44AD";
vertWidth = 0;
width = 2030;
},
{
background = {
anchors = (
{
name = top;
position = "{1015, 1464}";
}
);
paths = (
{
closed = 1;
nodes = (
"179 0 LINE",
"402 375 LINE",
"974 375 LINE",
"974 0 LINE",
"2015 0 LINE",
"2015 157 LINE",
"1177 157 LINE",
"1177 701 LINE",
"1842 701 LINE",
"1843 862 LINE",
"1177 862 LINE",
"1177 1307 LINE",
"2005 1307 LINE",
"2005 1464 LINE",
"828 1464 LINE",
"-45 0 LINE"
);
},
{
closed = 1;
nodes = (
"974 1384 LINE",
"974 527 LINE",
"486 527 LINE"
);
},
{
closed = 1;
nodes = (
"1048 1587 LINE",
"1390 1907 LINE",
"1119 1907 LINE",
"916 1587 LINE"
);
}
);
};
components = (
{
name = AE;
},
{
name = acute;
transform = "{1, 0, 0, 1, 897, 441}";
}
);
layerId = "8DE4C137-4DC6-43A7-909D-C9F8072E6A1C";
vertWidth = 0;
width = 2030;
},
{
background = {
anchors = (
{
name = top;
position = "{1015, 1464}";
}
);
paths = (
{
closed = 1;
nodes = (
"203 0 LINE",
"416 365 LINE",
"974 365 LINE",
"974 0 LINE",
"2015 0 LINE",
"2015 176 LINE",
"1203 176 LINE",
"1203 692 LINE",
"1842 692 LINE",
"1843 873 LINE",
"1203 873 LINE",
"1203 1288 LINE",
"2005 1288 LINE",
"2005 1464 LINE",
"809 1464 LINE",
"-49 0 LINE"
);
},
{
closed = 1;
nodes = (
"974 1374 LINE",
"974 536 LINE",
"510 536 LINE"
);
},
{
closed = 1;
nodes = (
"1050 1584 LINE",
"1407 1904 LINE",
"1103 1904 LINE",
"901 1583 LINE"
);
}
);
};
components = (
{
name = AE;
},
{
name = acute;
transform = "{1, 0, 0, 1, 907, 441}";
}
);
layerId = "28683A17-BAD2-44EA-B42B-E882FFDD4FE1";
vertWidth = 0;
width = 2030;
},
{
background = {
anchors = (
{
name = top;
position = "{1015, 1464}";
}
);
paths = (
{
closed = 1;
nodes = (
"117 0 LINE",
"367 402 LINE",
"974 402 LINE",
"974 0 LINE",
"2015 0 LINE",
"2015 106 LINE",
"1111 106 LINE",
"1111 726 LINE",
"1842 726 LINE",
"1843 835 LINE",
"1111 835 LINE",
"1111 1358 LINE",
"2005 1358 LINE",
"2005 1464 LINE",
"875 1464 LINE",
"-35 0 LINE"
);
},
{
closed = 1;
nodes = (
"974 1409 LINE",
"974 506 LINE",
"424 506 LINE"
);
},
{
closed = 1;
nodes = (
"1300 1916 LINE",
"1114 1916 LINE",
"909 1597 LINE",
"998 1596 LINE"
);
}
);
};
components = (
{
name = AE;
},
{
name = acute;
transform = "{1, 0, 0, 1, 827, 441}";
}
);
layerId = "E322F6D1-BA90-436B-BB35-51D9BD3EA9D1";
vertWidth = 0;
width = 2030;
}
);
unicode = 01FC;
},
{
glyphname = AEmacron;
lastChange = "2023-02-01 16:10:23 +0000";
layers = (
{
background = {
anchors = (
{
name = top;
position = "{1315, 1464}";
}
);
paths = (
{
closed = 1;
nodes = (
"152 0 LINE",
"387 387 LINE",
"974 387 LINE",
"974 0 LINE",
"2015 0 LINE",
"2015 134 LINE",
"1148 134 LINE",
"1148 712 LINE",
"1842 712 LINE",
"1843 850 LINE",
"1148 850 LINE",
"1148 1330 LINE",
"2005 1330 LINE",
"2005 1464 LINE",
"849 1464 LINE",
"-40 0 LINE"
);
},
{
closed = 1;
nodes = (
"974 1395 LINE",
"974 518 LINE",
"459 518 LINE"
);
},
{
closed = 1;
nodes = (
"1535 1668 LINE",
"1535 1788 LINE",
"1081 1788 LINE",
"1081 1668 LINE"
);
}
);
};
components = (
{
name = AE;
},
{
name = macron;
transform = "{1, 0, 0, 1, 943, 441}";
}
);
layerId = "8E6A00A3-5EF9-4E6D-9A7B-9C1BBC7D44AD";
vertWidth = 0;
width = 2030;
},
{
background = {
anchors = (
{
name = top;
position = "{1015, 1464}";
}
);
paths = (
{
closed = 1;
nodes = (
"179 0 LINE",
"402 375 LINE",
"974 375 LINE",
"974 0 LINE",
"2015 0 LINE",
"2015 157 LINE",
"1177 157 LINE",
"1177 701 LINE",
"1842 701 LINE",
"1843 862 LINE",
"1177 862 LINE",
"1177 1307 LINE",
"2005 1307 LINE",
"2005 1464 LINE",
"828 1464 LINE",
"-45 0 LINE"
);
},
{
closed = 1;
nodes = (
"974 1384 LINE",
"974 527 LINE",
"486 527 LINE"
);
},
{
closed = 1;
nodes = (
"1254 1635 LINE",
"1254 1775 LINE",
"800 1775 LINE",
"800 1635 LINE"
);
}
);
};
components = (
{
name = AE;
},
{
name = macron;
transform = "{1, 0, 0, 1, 653, 441}";
}
);
layerId = "8DE4C137-4DC6-43A7-909D-C9F8072E6A1C";
vertWidth = 0;
width = 2030;
},
{
background = {
anchors = (
{
name = top;
position = "{1015, 1464}";
}
);
paths = (
{
closed = 1;
nodes = (
"203 0 LINE",
"416 365 LINE",
"974 365 LINE",
"974 0 LINE",
"2015 0 LINE",
"2015 176 LINE",
"1203 176 LINE",
"1203 692 LINE",
"1842 692 LINE",
"1843 873 LINE",
"1203 873 LINE",
"1203 1288 LINE",
"2005 1288 LINE",
"2005 1464 LINE",
"809 1464 LINE",
"-49 0 LINE"
);
},
{
closed = 1;
nodes = (
"974 1374 LINE",
"974 536 LINE",
"510 536 LINE"
);
},
{
closed = 1;
nodes = (
"1261 1607 LINE",
"1261 1764 LINE",
"807 1764 LINE",
"807 1607 LINE"
);
}
);
};
components = (
{
name = AE;
},
{
name = macron;
transform = "{1, 0, 0, 1, 653, 441}";
}
);
layerId = "28683A17-BAD2-44EA-B42B-E882FFDD4FE1";
vertWidth = 0;
width = 2030;
},
{
background = {
anchors = (
{
name = top;
position = "{1015, 1464}";
}
);
paths = (
{
closed = 1;
nodes = (
"117 0 LINE",
"367 402 LINE",
"974 402 LINE",
"974 0 LINE",
"2015 0 LINE",
"2015 106 LINE",
"1111 106 LINE",
"1111 726 LINE",
"1842 726 LINE",
"1843 835 LINE",
"1111 835 LINE",
"1111 1358 LINE",
"2005 1358 LINE",
"2005 1464 LINE",
"875 1464 LINE",
"-35 0 LINE"
);
},
{
closed = 1;
nodes = (
"974 1409 LINE",
"974 506 LINE",
"424 506 LINE"
);
},
{
closed = 1;
nodes = (
"1235 1708 LINE",
"1235 1803 LINE",
"781 1803 LINE",
"781 1708 LINE"
);
}
);
};
components = (
{
name = AE;
},
{
name = macron;
transform = "{1, 0, 0, 1, 653, 441}";
}
);
layerId = "E322F6D1-BA90-436B-BB35-51D9BD3EA9D1";
vertWidth = 0;
width = 2030;
}
);
unicode = 01E2;
},
{
glyphname = B;
lastChange = "2023-02-01 16:10:13 +0000";
layers = (
{
anchors = (
{
name = top;
position = "{657, 1464}";
}
);
background = {
anchors = (
{
name = top;
position = "{657, 1464}";
}
);
paths = (
{
closed = 1;
nodes = (
"557 0 LINE SMOOTH",
"1015 0 OFFCURVE",
"1231 85 OFFCURVE",
"1231 413 CURVE SMOOTH",
"1231 618 OFFCURVE",
"1148 754 OFFCURVE",
"921 780 CURVE",
"1135.87 808.114 OFFCURVE",
"1186.02 935.593 OFFCURVE",
"1186.02 1104.78 CURVE SMOOTH",
"1186.02 1416.48 OFFCURVE",
"893.471 1464 OFFCURVE",
"593 1464 CURVE SMOOTH",
"146 1464 LINE",
"146 0 LINE"
);
},
{
closed = 1;
nodes = (
"321 717 LINE",
"609 717 LINE SMOOTH",
"897 717 OFFCURVE",
"1057 684 OFFCURVE",
"1057 417 CURVE SMOOTH",
"1057 143 OFFCURVE",
"823 133 OFFCURVE",
"602 133 CURVE SMOOTH",
"321 133 LINE"
);
},
{
closed = 1;
nodes = (
"321 1331 LINE",
"600 1331 LINE SMOOTH",
"840.137 1331 OFFCURVE",
"1019.1 1326.32 OFFCURVE",
"1019.1 1094.62 CURVE SMOOTH",
"1019.1 871.119 OFFCURVE",
"900.885 845 OFFCURVE",
"595 845 CURVE SMOOTH",
"321 845 LINE"
);
}
);
};
layerId = "8E6A00A3-5EF9-4E6D-9A7B-9C1BBC7D44AD";
paths = (
{
closed = 1;
nodes = (
"557 0 LINE SMOOTH",
"1015 0 OFFCURVE",
"1231 85 OFFCURVE",
"1231 413 CURVE SMOOTH",
"1231 618 OFFCURVE",
"1148 754 OFFCURVE",
"921 780 CURVE",
"1135.87 808.114 OFFCURVE",
"1186.02 935.593 OFFCURVE",
"1186.02 1104.78 CURVE SMOOTH",
"1186.02 1416.48 OFFCURVE",
"893.471 1464 OFFCURVE",
"593 1464 CURVE SMOOTH",
"146 1464 LINE",
"146 0 LINE"
);
},
{
closed = 1;
nodes = (
"321 717 LINE",
"609 717 LINE SMOOTH",
"897 717 OFFCURVE",
"1057 684 OFFCURVE",
"1057 417 CURVE SMOOTH",
"1057 143 OFFCURVE",
"823 133 OFFCURVE",
"602 133 CURVE SMOOTH",
"321 133 LINE"
);
},
{
closed = 1;
nodes = (
"321 1331 LINE",
"600 1331 LINE SMOOTH",
"840.137 1331 OFFCURVE",
"1019.1 1326.32 OFFCURVE",
"1019.1 1094.62 CURVE SMOOTH",
"1019.1 871.119 OFFCURVE",
"900.885 845 OFFCURVE",
"595 845 CURVE SMOOTH",
"321 845 LINE"
);
}
);
userData = {
com.typemytype.robofont.layerData = {
};
};
vertWidth = 0;
width = 1314;
},
{
anchors = (
{
name = top;
position = "{662.5, 1464}";
}
);
background = {
anchors = (
{
name = top;
position = "{662.5, 1464}";
}
);
paths = (
{
closed = 1;
nodes = (
"558 0 LINE SMOOTH",
"1016 0 OFFCURVE",
"1244 85 OFFCURVE",
"1244 413 CURVE SMOOTH",
"1244 609 OFFCURVE",
"1176 749 OFFCURVE",
"958 779 CURVE",
"1160.71 811.112 OFFCURVE",
"1197 943.528 OFFCURVE",
"1197 1106.54 CURVE SMOOTH",
"1197 1417.16 OFFCURVE",
"895.501 1464 OFFCURVE",
"594 1464 CURVE SMOOTH",
"139 1464 LINE",
"139 0 LINE"
);
},
{
closed = 1;
nodes = (
"344 704 LINE",
"625 704 LINE SMOOTH",
"901 704 OFFCURVE",
"1040 674 OFFCURVE",
"1040 418 CURVE SMOOTH",
"1040 160 OFFCURVE",
"812 154 OFFCURVE",
"591 154 CURVE SMOOTH",
"344 154 LINE"
);
},
{
closed = 1;
nodes = (
"344 1310 LINE",
"601 1310 LINE",
"614.666 1310 LINE SMOOTH",
"842.07 1310 OFFCURVE",
"993.176 1308.08 OFFCURVE",
"1002 1111 CURVE SMOOTH",
"1002.54 1099.25 OFFCURVE",
"1002.82 1088.03 OFFCURVE",
"1002.82 1077.29 CURVE SMOOTH",
"1002.82 888.806 OFFCURVE",
"916.351 853 OFFCURVE",
"624 853 CURVE SMOOTH",
"344 853 LINE"
);
}
);
};
layerId = "8DE4C137-4DC6-43A7-909D-C9F8072E6A1C";
paths = (
{
closed = 1;
nodes = (
"558 0 LINE SMOOTH",
"1016 0 OFFCURVE",
"1244 85 OFFCURVE",
"1244 413 CURVE SMOOTH",
"1244 609 OFFCURVE",
"1176 749 OFFCURVE",
"958 779 CURVE",
"1160.71 811.112 OFFCURVE",
"1197 943.528 OFFCURVE",
"1197 1106.54 CURVE SMOOTH",
"1197 1417.16 OFFCURVE",
"895.501 1464 OFFCURVE",
"594 1464 CURVE SMOOTH",
"139 1464 LINE",
"139 0 LINE"
);
},
{
closed = 1;
nodes = (
"344 704 LINE",
"625 704 LINE SMOOTH",
"901 704 OFFCURVE",
"1040 674 OFFCURVE",
"1040 418 CURVE SMOOTH",
"1040 160 OFFCURVE",
"812 154 OFFCURVE",
"591 154 CURVE SMOOTH",
"344 154 LINE"
);
},
{
closed = 1;
nodes = (
"344 1310 LINE",
"601 1310 LINE",
"614.666 1310 LINE SMOOTH",
"842.07 1310 OFFCURVE",
"993.176 1308.08 OFFCURVE",
"1002 1111 CURVE SMOOTH",
"1002.54 1099.25 OFFCURVE",
"1002.82 1088.03 OFFCURVE",
"1002.82 1077.29 CURVE SMOOTH",
"1002.82 888.806 OFFCURVE",
"916.351 853 OFFCURVE",
"624 853 CURVE SMOOTH",
"344 853 LINE"
);
}
);
userData = {
com.typemytype.robofont.layerData = {
};
};
vertWidth = 0;
width = 1325;
},
{
anchors = (
{
name = top;
position = "{667.5, 1464}";
}
);
background = {
anchors = (
{
name = top;
position = "{667.5, 1464}";
}
);
paths = (
{
closed = 1;
nodes = (
"560 0 LINE SMOOTH",
"1018 0 OFFCURVE",
"1256 85 OFFCURVE",
"1256 413 CURVE SMOOTH",
"1256 601 OFFCURVE",
"1201 744 OFFCURVE",
"990 777 CURVE",
"1181 813 OFFCURVE",
"1208 951 OFFCURVE",
"1207 1110 CURVE SMOOTH",
"1206 1417 OFFCURVE",
"898 1464 OFFCURVE",
"596 1464 CURVE SMOOTH",
"134 1464 LINE",
"134 0 LINE"
);
},
{
closed = 1;
nodes = (
"365 692 LINE",
"639 692 LINE SMOOTH",
"905 692 OFFCURVE",
"1026 665 OFFCURVE",
"1026 420 CURVE SMOOTH",
"1026 174 OFFCURVE",
"803 172 OFFCURVE",
"582 172 CURVE SMOOTH",
"365 172 LINE"
);
},
{
closed = 1;
nodes = (
"365 1292 LINE",
"603 1292 LINE SMOOTH",
"838 1292 OFFCURVE",
"975 1298 OFFCURVE",
"988 1116 CURVE SMOOTH",
"1002 911 OFFCURVE",
"957 860 OFFCURVE",
"650 860 CURVE SMOOTH",
"365 860 LINE"
);
}
);
};
layerId = "28683A17-BAD2-44EA-B42B-E882FFDD4FE1";
paths = (
{
closed = 1;
nodes = (
"560 0 LINE SMOOTH",
"1018 0 OFFCURVE",
"1256 85 OFFCURVE",
"1256 413 CURVE SMOOTH",
"1256 601 OFFCURVE",
"1201 744 OFFCURVE",
"990 777 CURVE",
"1181 813 OFFCURVE",
"1208 951 OFFCURVE",
"1207 1110 CURVE SMOOTH",
"1206 1417 OFFCURVE",
"898 1464 OFFCURVE",
"596 1464 CURVE SMOOTH",
"134 1464 LINE",
"134 0 LINE"
);
},
{
closed = 1;
nodes = (
"365 692 LINE",
"639 692 LINE SMOOTH",
"905 692 OFFCURVE",
"1026 665 OFFCURVE",
"1026 420 CURVE SMOOTH",
"1026 174 OFFCURVE",
"803 172 OFFCURVE",
"582 172 CURVE SMOOTH",
"365 172 LINE"
);
},
{
closed = 1;
nodes = (
"365 1292 LINE",
"603 1292 LINE SMOOTH",
"838 1292 OFFCURVE",
"975 1298 OFFCURVE",
"988 1116 CURVE SMOOTH",
"1002 911 OFFCURVE",
"957 860 OFFCURVE",
"650 860 CURVE SMOOTH",
"365 860 LINE"
);
}
);
userData = {
com.typemytype.robofont.layerData = {
};
};
vertWidth = 0;
width = 1335;
},
{
anchors = (
{
name = top;
position = "{650, 1464}";
}
);
background = {
anchors = (
{
name = top;
position = "{650, 1464}";
}
);
paths = (
{
closed = 1;
nodes = (
"555 0 LINE SMOOTH",
"1013 0 OFFCURVE",
"1215 85 OFFCURVE",
"1215 413 CURVE SMOOTH",
"1215 629 OFFCURVE",
"1113 760 OFFCURVE",
"876 782 CURVE",
"1108.86 805.388 OFFCURVE",
"1171.13 926.25 OFFCURVE",
"1171.13 1105.53 CURVE SMOOTH",
"1171.13 1417.15 OFFCURVE",
"889.359 1464 OFFCURVE",
"591 1464 CURVE SMOOTH",
"154 1464 LINE",
"154 0 LINE"
);
},
{
closed = 1;
nodes = (
"292 733 LINE",
"589 733 LINE SMOOTH",
"892 733 OFFCURVE",
"1077 697 OFFCURVE",
"1077 415 CURVE SMOOTH",
"1077 122 OFFCURVE",
"836 107 OFFCURVE",
"615 107 CURVE SMOOTH",
"292 107 LINE"
);
},
{
closed = 1;
nodes = (
"292 1357 LINE",
"598 1357 LINE SMOOTH",
"832.435 1357 OFFCURVE",
"1039 1347.05 OFFCURVE",
"1039 1100.79 CURVE SMOOTH",
"1039 846.087 OFFCURVE",
"872.598 835 OFFCURVE",
"558 835 CURVE SMOOTH",
"292 835 LINE"
);
}
);
};
layerId = "E322F6D1-BA90-436B-BB35-51D9BD3EA9D1";
paths = (
{
closed = 1;
nodes = (
"555 0 LINE SMOOTH",
"1013 0 OFFCURVE",
"1215 85 OFFCURVE",
"1215 413 CURVE SMOOTH",
"1215 629 OFFCURVE",
"1113 760 OFFCURVE",
"876 782 CURVE",
"1108.86 805.388 OFFCURVE",
"1171.13 926.25 OFFCURVE",
"1171.13 1105.53 CURVE SMOOTH",
"1171.13 1417.15 OFFCURVE",
"889.359 1464 OFFCURVE",
"591 1464 CURVE SMOOTH",
"154 1464 LINE",
"154 0 LINE"
);
},
{
closed = 1;
nodes = (
"292 733 LINE",
"589 733 LINE SMOOTH",
"892 733 OFFCURVE",
"1077 697 OFFCURVE",
"1077 415 CURVE SMOOTH",
"1077 122 OFFCURVE",
"836 107 OFFCURVE",
"615 107 CURVE SMOOTH",
"292 107 LINE"
);
},
{
closed = 1;
nodes = (
"292 1357 LINE",
"598 1357 LINE SMOOTH",
"832.435 1357 OFFCURVE",
"1039 1347.05 OFFCURVE",
"1039 1100.79 CURVE SMOOTH",
"1039 846.087 OFFCURVE",
"872.598 835 OFFCURVE",
"558 835 CURVE SMOOTH",
"292 835 LINE"
);
}
);
userData = {
com.typemytype.robofont.layerData = {
b = {
anchors = (
);
components = (
);
contours = (
);
lib = {
};
name = B;
unicodes = (
);
width = 1300;
};
};
};
vertWidth = 0;
width = 1300;
}
);
unicode = 0042;
},
{
glyphname = C;
lastChange = "2023-02-01 16:10:13 +0000";
layers = (
{
anchors = (
{
name = top;
position = "{761, 1464}";
}
);
background = {
anchors = (
{
name = top;
position = "{761, 1464}";
}
);
paths = (
{
closed = 1;
nodes = (
"1013 -24 OFFCURVE",
"1220 93 OFFCURVE",
"1300 361 CURVE",
"1138 398 LINE",
"1088 233 OFFCURVE",
"976 116 OFFCURVE",
"748 116 CURVE SMOOTH",
"416 116 OFFCURVE",
"301 338 OFFCURVE",
"301 735 CURVE SMOOTH",
"301 1132 OFFCURVE",
"416 1350 OFFCURVE",
"748 1350 CURVE SMOOTH",
"976 1350 OFFCURVE",
"1088 1233 OFFCURVE",
"1138 1067 CURVE",
"1300 1105 LINE",
"1220 1373 OFFCURVE",
"1013 1490 OFFCURVE",
"755 1490 CURVE SMOOTH",
"356 1490 OFFCURVE",
"116 1266 OFFCURVE",
"116 735 CURVE SMOOTH",
"116 204 OFFCURVE",
"356 -24 OFFCURVE",
"755 -24 CURVE SMOOTH"
);
}
);
};
layerId = "8E6A00A3-5EF9-4E6D-9A7B-9C1BBC7D44AD";
paths = (
{
closed = 1;
nodes = (
"1013 -24 OFFCURVE",
"1220 93 OFFCURVE",
"1300 361 CURVE",
"1138 398 LINE",
"1088 233 OFFCURVE",
"976 116 OFFCURVE",
"748 116 CURVE SMOOTH",
"416 116 OFFCURVE",
"301 338 OFFCURVE",
"301 735 CURVE SMOOTH",
"301 1132 OFFCURVE",
"416 1350 OFFCURVE",
"748 1350 CURVE SMOOTH",
"976 1350 OFFCURVE",
"1088 1233 OFFCURVE",
"1138 1067 CURVE",
"1300 1105 LINE",
"1220 1373 OFFCURVE",
"1013 1490 OFFCURVE",
"755 1490 CURVE SMOOTH",
"356 1490 OFFCURVE",
"116 1266 OFFCURVE",
"116 735 CURVE SMOOTH",
"116 204 OFFCURVE",
"356 -24 OFFCURVE",
"755 -24 CURVE SMOOTH"
);
}
);
userData = {
com.typemytype.robofont.layerData = {
};
};
vertWidth = 0;
width = 1394;
},
{
anchors = (
{
name = top;
position = "{765, 1464}";
}
);
background = {
anchors = (
{
name = top;
position = "{765, 1464}";
}
);
paths = (
{
closed = 1;
nodes = (
"1026 -24 OFFCURVE",
"1239 84 OFFCURVE",
"1327 357 CURVE",
"1137 401 LINE",
"1083 246 OFFCURVE",
"984 139 OFFCURVE",
"759 139 CURVE SMOOTH",
"441 139 OFFCURVE",
"331 337 OFFCURVE",
"331 734 CURVE SMOOTH",
"331 1131 OFFCURVE",
"441 1325 OFFCURVE",
"759 1325 CURVE SMOOTH",
"984 1325 OFFCURVE",
"1083 1218 OFFCURVE",
"1137 1064 CURVE",
"1327 1108 LINE",
"1239 1381 OFFCURVE",
"1026 1489 OFFCURVE",
"768 1489 CURVE SMOOTH",
"353 1489 OFFCURVE",
"115 1265 OFFCURVE",
"115 734 CURVE SMOOTH",
"115 203 OFFCURVE",
"353 -24 OFFCURVE",
"768 -24 CURVE SMOOTH"
);
}
);
};
layerId = "8DE4C137-4DC6-43A7-909D-C9F8072E6A1C";
paths = (
{
closed = 1;
nodes = (
"1026 -24 OFFCURVE",
"1239 84 OFFCURVE",
"1327 357 CURVE",
"1137 401 LINE",
"1083 246 OFFCURVE",
"984 139 OFFCURVE",
"759 139 CURVE SMOOTH",
"441 139 OFFCURVE",
"331 337 OFFCURVE",
"331 734 CURVE SMOOTH",
"331 1131 OFFCURVE",
"441 1325 OFFCURVE",
"759 1325 CURVE SMOOTH",
"984 1325 OFFCURVE",
"1083 1218 OFFCURVE",
"1137 1064 CURVE",
"1327 1108 LINE",
"1239 1381 OFFCURVE",
"1026 1489 OFFCURVE",
"768 1489 CURVE SMOOTH",
"353 1489 OFFCURVE",
"115 1265 OFFCURVE",
"115 734 CURVE SMOOTH",
"115 203 OFFCURVE",
"353 -24 OFFCURVE",
"768 -24 CURVE SMOOTH"
);
}
);
userData = {
com.typemytype.robofont.layerData = {
};
};
vertWidth = 0;
width = 1405;
},
{
anchors = (
{
name = bot;
position = "{779, 0}";
},
{
name = top;
position = "{747, 1464}";
}
);
background = {
anchors = (
{
name = bot;
position = "{779, 0}";
},
{
name = top;
position = "{747, 1464}";
}
);
paths = (
{
closed = 1;
nodes = (
"1037 -24 OFFCURVE",
"1255 76 OFFCURVE",
"1351 354 CURVE",
"1137 403 LINE",
"1079 258 OFFCURVE",
"991 159 OFFCURVE",
"769 159 CURVE SMOOTH",
"462 159 OFFCURVE",
"357 337 OFFCURVE",
"357 734 CURVE SMOOTH",
"357 1131 OFFCURVE",
"462 1304 OFFCURVE",
"769 1304 CURVE SMOOTH",
"991 1304 OFFCURVE",
"1079 1205 OFFCURVE",
"1137 1061 CURVE",
"1351 1110 LINE",
"1255 1388 OFFCURVE",
"1037 1488 OFFCURVE",
"779 1488 CURVE SMOOTH",
"351 1488 OFFCURVE",
"113 1265 OFFCURVE",
"113 734 CURVE SMOOTH",
"113 203 OFFCURVE",
"351 -24 OFFCURVE",
"779 -24 CURVE SMOOTH"
);
}
);
};
layerId = "28683A17-BAD2-44EA-B42B-E882FFDD4FE1";
paths = (
{
closed = 1;
nodes = (
"1037 -24 OFFCURVE",
"1255 76 OFFCURVE",
"1351 354 CURVE",
"1137 403 LINE",
"1079 258 OFFCURVE",
"991 159 OFFCURVE",
"769 159 CURVE SMOOTH",
"462 159 OFFCURVE",
"357 337 OFFCURVE",
"357 734 CURVE SMOOTH",
"357 1131 OFFCURVE",
"462 1304 OFFCURVE",
"769 1304 CURVE SMOOTH",
"991 1304 OFFCURVE",
"1079 1205 OFFCURVE",
"1137 1061 CURVE",
"1351 1110 LINE",
"1255 1388 OFFCURVE",
"1037 1488 OFFCURVE",
"779 1488 CURVE SMOOTH",
"351 1488 OFFCURVE",
"113 1265 OFFCURVE",
"113 734 CURVE SMOOTH",
"113 203 OFFCURVE",
"351 -24 OFFCURVE",
"779 -24 CURVE SMOOTH"
);
}
);
userData = {
com.typemytype.robofont.layerData = {
};
};
vertWidth = 0;
width = 1414;
},
{
anchors = (
{
name = top;
position = "{711, 1464}";
}
);
background = {
anchors = (
{
name = top;
position = "{711, 1464}";
}
);
paths = (
{
closed = 1;
nodes = (
"997 -24 OFFCURVE",
"1196 104 OFFCURVE",
"1266 366 CURVE",
"1139 395 LINE",
"1094 216 OFFCURVE",
"966 87 OFFCURVE",
"734 87 CURVE SMOOTH",
"386 87 OFFCURVE",
"264 339 OFFCURVE",
"264 736 CURVE SMOOTH",
"264 1133 OFFCURVE",
"386 1380 OFFCURVE",
"734 1380 CURVE SMOOTH",
"966 1380 OFFCURVE",
"1094 1252 OFFCURVE",
"1139 1072 CURVE",
"1266 1101 LINE",
"1196 1363 OFFCURVE",
"997 1491 OFFCURVE",
"739 1491 CURVE SMOOTH",
"360 1491 OFFCURVE",
"118 1267 OFFCURVE",
"118 736 CURVE SMOOTH",
"118 205 OFFCURVE",
"360 -24 OFFCURVE",
"739 -24 CURVE SMOOTH"
);
}
);
};
layerId = "E322F6D1-BA90-436B-BB35-51D9BD3EA9D1";
paths = (
{
closed = 1;
nodes = (
"997 -24 OFFCURVE",
"1196 104 OFFCURVE",
"1266 366 CURVE",
"1139 395 LINE",
"1094 216 OFFCURVE",
"966 87 OFFCURVE",
"734 87 CURVE SMOOTH",
"386 87 OFFCURVE",
"264 339 OFFCURVE",
"264 736 CURVE SMOOTH",
"264 1133 OFFCURVE",
"386 1380 OFFCURVE",
"734 1380 CURVE SMOOTH",
"966 1380 OFFCURVE",
"1094 1252 OFFCURVE",
"1139 1072 CURVE",
"1266 1101 LINE",
"1196 1363 OFFCURVE",
"997 1491 OFFCURVE",
"739 1491 CURVE SMOOTH",
"360 1491 OFFCURVE",
"118 1267 OFFCURVE",
"118 736 CURVE SMOOTH",
"118 205 OFFCURVE",
"360 -24 OFFCURVE",
"739 -24 CURVE SMOOTH"
);
}
);
userData = {
com.typemytype.robofont.layerData = {
b = {
anchors = (
);
components = (
);
contours = (
);
lib = {
};
name = C;
unicodes = (
);
width = 1381;
};
};
};
vertWidth = 0;
width = 1381;
}
);
unicode = 0043;
},
{
glyphname = Cacute;
lastChange = "2023-02-01 16:10:23 +0000";
layers = (
{
background = {
anchors = (
{
name = top;
position = "{761, 1464}";
}
);
paths = (
{
closed = 1;
nodes = (
"1013 -24 OFFCURVE",
"1220 93 OFFCURVE",
"1300 361 CURVE",
"1138 398 LINE",
"1088 233 OFFCURVE",
"976 116 OFFCURVE",
"748 116 CURVE SMOOTH",
"416 116 OFFCURVE",
"301 338 OFFCURVE",
"301 735 CURVE SMOOTH",
"301 1132 OFFCURVE",
"416 1350 OFFCURVE",
"748 1350 CURVE SMOOTH",
"976 1350 OFFCURVE",
"1088 1233 OFFCURVE",
"1138 1067 CURVE",
"1300 1105 LINE",
"1220 1373 OFFCURVE",
"1013 1490 OFFCURVE",
"755 1490 CURVE SMOOTH",
"356 1490 OFFCURVE",
"116 1266 OFFCURVE",
"116 735 CURVE SMOOTH",
"116 204 OFFCURVE",
"356 -24 OFFCURVE",
"755 -24 CURVE SMOOTH"
);
},
{
closed = 1;
nodes = (
"1127 1911 LINE",
"894 1911 LINE",
"690 1592 LINE",
"803 1591 LINE"
);
}
);
};
components = (
{
name = C;
},
{
name = acute;
transform = "{1, 0, 0, 1, 643, 441}";
}
);
layerId = "8E6A00A3-5EF9-4E6D-9A7B-9C1BBC7D44AD";
userData = {
com.typemytype.robofont.layerData = {
};
};
vertWidth = 0;
width = 1394;
},
{
background = {
anchors = (
{
name = top;
position = "{765, 1464}";
}
);
paths = (
{
closed = 1;
nodes = (
"1026 -24 OFFCURVE",
"1239 84 OFFCURVE",
"1327 357 CURVE",
"1137 401 LINE",
"1083 246 OFFCURVE",
"984 139 OFFCURVE",
"759 139 CURVE SMOOTH",
"441 139 OFFCURVE",
"331 337 OFFCURVE",
"331 734 CURVE SMOOTH",
"331 1131 OFFCURVE",
"441 1325 OFFCURVE",
"759 1325 CURVE SMOOTH",
"984 1325 OFFCURVE",
"1083 1218 OFFCURVE",
"1137 1064 CURVE",
"1327 1108 LINE",
"1239 1381 OFFCURVE",
"1026 1489 OFFCURVE",
"768 1489 CURVE SMOOTH",
"353 1489 OFFCURVE",
"115 1265 OFFCURVE",
"115 734 CURVE SMOOTH",
"115 203 OFFCURVE",
"353 -24 OFFCURVE",
"768 -24 CURVE SMOOTH"
);
},
{
closed = 1;
nodes = (
"798 1587 LINE",
"1140 1907 LINE",
"869 1907 LINE",
"666 1587 LINE"
);
}
);
};
components = (
{
name = C;
},
{
name = acute;
transform = "{1, 0, 0, 1, 647, 441}";
}
);
layerId = "8DE4C137-4DC6-43A7-909D-C9F8072E6A1C";
userData = {
com.typemytype.robofont.layerData = {
};
};
vertWidth = 0;
width = 1405;
},
{
background = {
anchors = (
{
name = bot;
position = "{779, 0}";
},
{
name = top;
position = "{747, 1464}";
}
);
paths = (
{
closed = 1;
nodes = (
"1037 -24 OFFCURVE",
"1255 76 OFFCURVE",
"1351 354 CURVE",
"1137 403 LINE",
"1079 258 OFFCURVE",
"991 159 OFFCURVE",
"769 159 CURVE SMOOTH",
"462 159 OFFCURVE",
"357 337 OFFCURVE",
"357 734 CURVE SMOOTH",
"357 1131 OFFCURVE",
"462 1304 OFFCURVE",
"769 1304 CURVE SMOOTH",
"991 1304 OFFCURVE",
"1079 1205 OFFCURVE",
"1137 1061 CURVE",
"1351 1110 LINE",
"1255 1388 OFFCURVE",
"1037 1488 OFFCURVE",
"779 1488 CURVE SMOOTH",
"351 1488 OFFCURVE",
"113 1265 OFFCURVE",
"113 734 CURVE SMOOTH",
"113 203 OFFCURVE",
"351 -24 OFFCURVE",
"779 -24 CURVE SMOOTH"
);
},
{
closed = 1;
nodes = (
"782 1584 LINE",
"1139 1904 LINE",
"835 1904 LINE",
"633 1583 LINE"
);
}
);
};
components = (
{
name = C;
},
{
name = acute;
transform = "{1, 0, 0, 1, 639, 441}";
}
);
layerId = "28683A17-BAD2-44EA-B42B-E882FFDD4FE1";
userData = {
com.typemytype.robofont.layerData = {
};
};
vertWidth = 0;
width = 1414;
},
{
background = {
anchors = (
{
name = top;
position = "{711, 1464}";
}
);
paths = (
{
closed = 1;
nodes = (
"997 -24 OFFCURVE",
"1196 104 OFFCURVE",
"1266 366 CURVE",
"1139 395 LINE",
"1094 216 OFFCURVE",
"966 87 OFFCURVE",
"734 87 CURVE SMOOTH",
"386 87 OFFCURVE",
"264 339 OFFCURVE",
"264 736 CURVE SMOOTH",
"264 1133 OFFCURVE",
"386 1380 OFFCURVE",
"734 1380 CURVE SMOOTH",
"966 1380 OFFCURVE",
"1094 1252 OFFCURVE",
"1139 1072 CURVE",
"1266 1101 LINE",
"1196 1363 OFFCURVE",
"997 1491 OFFCURVE",
"739 1491 CURVE SMOOTH",
"360 1491 OFFCURVE",
"118 1267 OFFCURVE",
"118 736 CURVE SMOOTH",
"118 205 OFFCURVE",
"360 -24 OFFCURVE",
"739 -24 CURVE SMOOTH"
);
},
{
closed = 1;
nodes = (
"996 1916 LINE",
"810 1916 LINE",
"605 1597 LINE",
"694 1596 LINE"
);
}
);
};
components = (
{
name = C;
},
{
name = acute;
transform = "{1, 0, 0, 1, 523, 441}";
}
);
layerId = "E322F6D1-BA90-436B-BB35-51D9BD3EA9D1";
userData = {
com.typemytype.robofont.layerData = {
b = {
anchors = (
);
components = (
);
contours = (
);
lib = {
};
name = Cacute;
unicodes = (
);
width = 1381;
};
};
};
vertWidth = 0;
width = 1381;
}
);
unicode = 0106;
},
{
glyphname = Ccaron;
lastChange = "2023-02-01 16:10:23 +0000";
layers = (
{
background = {
anchors = (
{
name = top;
position = "{761, 1464}";
}
);
paths = (
{
closed = 1;
nodes = (
"1013 -24 OFFCURVE",
"1220 93 OFFCURVE",
"1300 361 CURVE",
"1138 398 LINE",
"1088 233 OFFCURVE",
"976 116 OFFCURVE",
"748 116 CURVE SMOOTH",
"416 116 OFFCURVE",
"301 338 OFFCURVE",
"301 735 CURVE SMOOTH",
"301 1132 OFFCURVE",
"416 1350 OFFCURVE",
"748 1350 CURVE SMOOTH",
"976 1350 OFFCURVE",
"1088 1233 OFFCURVE",
"1138 1067 CURVE",
"1300 1105 LINE",
"1220 1373 OFFCURVE",
"1013 1490 OFFCURVE",
"755 1490 CURVE SMOOTH",
"356 1490 OFFCURVE",
"116 1266 OFFCURVE",
"116 735 CURVE SMOOTH",
"116 204 OFFCURVE",
"356 -24 OFFCURVE",
"755 -24 CURVE SMOOTH"
);
},
{
closed = 1;
nodes = (
"900 1595 LINE",
"1073 1915 LINE",
"958 1915 LINE",
"796 1676 LINE",
"635 1915 LINE",
"520 1915 LINE",
"693 1595 LINE"
);
}
);
};
components = (
{
name = C;
},
{
name = caron;
transform = "{1, 0, 0, 1, 372, 441}";
}
);
layerId = "8E6A00A3-5EF9-4E6D-9A7B-9C1BBC7D44AD";
userData = {
com.typemytype.robofont.layerData = {
};
};
vertWidth = 0;
width = 1394;
},
{
background = {
anchors = (
{
name = top;
position = "{765, 1464}";
}
);
paths = (
{
closed = 1;
nodes = (
"1026 -24 OFFCURVE",
"1239 84 OFFCURVE",
"1327 357 CURVE",
"1137 401 LINE",
"1083 246 OFFCURVE",
"984 139 OFFCURVE",
"759 139 CURVE SMOOTH",
"441 139 OFFCURVE",
"331 337 OFFCURVE",
"331 734 CURVE SMOOTH",
"331 1131 OFFCURVE",
"441 1325 OFFCURVE",
"759 1325 CURVE SMOOTH",
"984 1325 OFFCURVE",
"1083 1218 OFFCURVE",
"1137 1064 CURVE",
"1327 1108 LINE",
"1239 1381 OFFCURVE",
"1026 1489 OFFCURVE",
"768 1489 CURVE SMOOTH",
"353 1489 OFFCURVE",
"115 1265 OFFCURVE",
"115 734 CURVE SMOOTH",
"115 203 OFFCURVE",
"353 -24 OFFCURVE",
"768 -24 CURVE SMOOTH"
);
},
{
closed = 1;
nodes = (
"890 1595 LINE",
"1051 1915 LINE",
"918 1915 LINE",
"770 1690 LINE",
"623 1915 LINE",
"490 1915 LINE",
"651 1595 LINE"
);
}
);
};
components = (
{
name = C;
},
{
name = caron;
transform = "{1, 0, 0, 1, 346, 441}";
}
);
layerId = "8DE4C137-4DC6-43A7-909D-C9F8072E6A1C";
userData = {
com.typemytype.robofont.layerData = {
};
};
vertWidth = 0;
width = 1405;
},
{
background = {
anchors = (
{
name = bot;
position = "{779, 0}";
},
{
name = top;
position = "{747, 1464}";
}
);
paths = (
{
closed = 1;
nodes = (
"1037 -24 OFFCURVE",
"1255 76 OFFCURVE",
"1351 354 CURVE",
"1137 403 LINE",
"1079 258 OFFCURVE",
"991 159 OFFCURVE",
"769 159 CURVE SMOOTH",
"462 159 OFFCURVE",
"357 337 OFFCURVE",
"357 734 CURVE SMOOTH",
"357 1131 OFFCURVE",
"462 1304 OFFCURVE",
"769 1304 CURVE SMOOTH",
"991 1304 OFFCURVE",
"1079 1205 OFFCURVE",
"1137 1061 CURVE",
"1351 1110 LINE",
"1255 1388 OFFCURVE",
"1037 1488 OFFCURVE",
"779 1488 CURVE SMOOTH",
"351 1488 OFFCURVE",
"113 1265 OFFCURVE",
"113 734 CURVE SMOOTH",
"113 203 OFFCURVE",
"351 -24 OFFCURVE",
"779 -24 CURVE SMOOTH"
);
},
{
closed = 1;
nodes = (
"886 1595 LINE",
"1037 1915 LINE",
"888 1915 LINE",
"752 1702 LINE",
"617 1915 LINE",
"469 1915 LINE",
"619 1595 LINE"
);
}
);
};
components = (
{
name = C;
},
{
name = caron;
transform = "{1, 0, 0, 1, 328, 441}";
}
);
layerId = "28683A17-BAD2-44EA-B42B-E882FFDD4FE1";
userData = {
com.typemytype.robofont.layerData = {
};
};
vertWidth = 0;
width = 1414;
},
{
background = {
anchors = (
{
name = top;
position = "{711, 1464}";
}
);
paths = (
{
closed = 1;
nodes = (
"997 -24 OFFCURVE",
"1196 104 OFFCURVE",
"1266 366 CURVE",
"1139 395 LINE",
"1094 216 OFFCURVE",
"966 87 OFFCURVE",
"734 87 CURVE SMOOTH",
"386 87 OFFCURVE",
"264 339 OFFCURVE",
"264 736 CURVE SMOOTH",
"264 1133 OFFCURVE",
"386 1380 OFFCURVE",
"734 1380 CURVE SMOOTH",
"966 1380 OFFCURVE",
"1094 1252 OFFCURVE",
"1139 1072 CURVE",
"1266 1101 LINE",
"1196 1363 OFFCURVE",
"997 1491 OFFCURVE",
"739 1491 CURVE SMOOTH",
"360 1491 OFFCURVE",
"118 1267 OFFCURVE",
"118 736 CURVE SMOOTH",
"118 205 OFFCURVE",
"360 -24 OFFCURVE",
"739 -24 CURVE SMOOTH"
);
},
{
closed = 1;
nodes = (
"800 1595 LINE",
"988 1915 LINE",
"896 1915 LINE",
"716 1659 LINE",
"538 1915 LINE",
"445 1915 LINE",
"633 1595 LINE"
);
}
);
};
components = (
{
name = C;
},
{
name = caron;
transform = "{1, 0, 0, 1, 292, 441}";
}
);
layerId = "E322F6D1-BA90-436B-BB35-51D9BD3EA9D1";
userData = {
com.typemytype.robofont.layerData = {
b = {
anchors = (
);
components = (
);
contours = (
);
lib = {
};
name = Ccaron;
unicodes = (
);
width = 1381;
};
};
};
vertWidth = 0;
width = 1381;
}
);
unicode = 010C;
},
{
glyphname = Ccedilla;
lastChange = "2023-02-01 16:10:23 +0000";
layers = (
{
background = {
anchors = (
{
name = top;
position = "{761, 1464}";
}
);
paths = (
{
closed = 1;
nodes = (
"1013 -24 OFFCURVE",
"1220 93 OFFCURVE",
"1300 361 CURVE",
"1138 398 LINE",
"1088 233 OFFCURVE",
"976 116 OFFCURVE",
"748 116 CURVE SMOOTH",
"416 116 OFFCURVE",
"301 338 OFFCURVE",
"301 735 CURVE SMOOTH",
"301 1132 OFFCURVE",
"416 1350 OFFCURVE",
"748 1350 CURVE SMOOTH",
"976 1350 OFFCURVE",
"1088 1233 OFFCURVE",
"1138 1067 CURVE",
"1300 1105 LINE",
"1220 1373 OFFCURVE",
"1013 1490 OFFCURVE",
"755 1490 CURVE SMOOTH",
"356 1490 OFFCURVE",
"116 1266 OFFCURVE",
"116 735 CURVE SMOOTH",
"116 204 OFFCURVE",
"356 -24 OFFCURVE",
"755 -24 CURVE SMOOTH"
);
},
{
closed = 1;
nodes = (
"820 -408 OFFCURVE",
"914 -335 OFFCURVE",
"914 -225 CURVE SMOOTH",
"914 -181 OFFCURVE",
"899 -131 OFFCURVE",
"865 -78 CURVE SMOOTH",
"815 0 LINE",
"715 0 LINE",
"745 -63 LINE SMOOTH",
"773 -122 OFFCURVE",
"785 -170 OFFCURVE",
"785 -207 CURVE SMOOTH",
"785 -283 OFFCURVE",
"735 -317 OFFCURVE",
"665 -317 CURVE SMOOTH",
"632 -317 OFFCURVE",
"596 -310 OFFCURVE",
"558 -296 CURVE",
"558 -373 LINE",
"607 -397 OFFCURVE",
"656 -408 OFFCURVE",
"701 -408 CURVE SMOOTH"
);
}
);
};
components = (
{
name = C;
},
{
name = cedilla;
transform = "{1, 0, 0, 1, 539.5, 0}";
}
);
layerId = "8E6A00A3-5EF9-4E6D-9A7B-9C1BBC7D44AD";
userData = {
com.typemytype.robofont.layerData = {
};
};
vertWidth = 0;
width = 1394;
},
{
background = {
anchors = (
{
name = top;
position = "{765, 1464}";
}
);
paths = (
{
closed = 1;
nodes = (
"1026 -24 OFFCURVE",
"1239 84 OFFCURVE",
"1327 357 CURVE",
"1137 401 LINE",
"1083 246 OFFCURVE",
"984 139 OFFCURVE",
"759 139 CURVE SMOOTH",
"441 139 OFFCURVE",
"331 337 OFFCURVE",
"331 734 CURVE SMOOTH",
"331 1131 OFFCURVE",
"441 1325 OFFCURVE",
"759 1325 CURVE SMOOTH",
"984 1325 OFFCURVE",
"1083 1218 OFFCURVE",
"1137 1064 CURVE",
"1327 1108 LINE",
"1239 1381 OFFCURVE",
"1026 1489 OFFCURVE",
"768 1489 CURVE SMOOTH",
"353 1489 OFFCURVE",
"115 1265 OFFCURVE",
"115 734 CURVE SMOOTH",
"115 203 OFFCURVE",
"353 -24 OFFCURVE",
"768 -24 CURVE SMOOTH"
);
},
{
closed = 1;
nodes = (
"803 -417 OFFCURVE",
"890 -347 OFFCURVE",
"890 -233 CURVE SMOOTH",
"890 -197 OFFCURVE",
"881 -157 OFFCURVE",
"862 -113 CURVE SMOOTH",
"813 0 LINE",
"724 0 LINE",
"753 -118 LINE SMOOTH",
"761 -150 OFFCURVE",
"765 -178 OFFCURVE",
"765 -200 CURVE SMOOTH",
"765 -292 OFFCURVE",
"707 -313 OFFCURVE",
"640 -313 CURVE SMOOTH",
"613 -313 OFFCURVE",
"584 -310 OFFCURVE",
"557 -306 CURVE",
"557 -395 LINE",
"601 -410 OFFCURVE",
"643 -417 OFFCURVE",
"682 -417 CURVE SMOOTH"
);
}
);
};
components = (
{
name = C;
},
{
name = cedilla;
transform = "{1, 0, 0, 1, 545, 0}";
}
);
layerId = "8DE4C137-4DC6-43A7-909D-C9F8072E6A1C";
userData = {
com.typemytype.robofont.layerData = {
};
};
vertWidth = 0;
width = 1405;
},
{
background = {
anchors = (
{
name = bot;
position = "{779, 0}";
},
{
name = top;
position = "{747, 1464}";
}
);
paths = (
{
closed = 1;
nodes = (
"1037 -24 OFFCURVE",
"1255 76 OFFCURVE",
"1351 354 CURVE",
"1137 403 LINE",
"1079 258 OFFCURVE",
"991 159 OFFCURVE",
"769 159 CURVE SMOOTH",
"462 159 OFFCURVE",
"357 337 OFFCURVE",
"357 734 CURVE SMOOTH",
"357 1131 OFFCURVE",
"462 1304 OFFCURVE",
"769 1304 CURVE SMOOTH",
"991 1304 OFFCURVE",
"1079 1205 OFFCURVE",
"1137 1061 CURVE",
"1351 1110 LINE",
"1255 1388 OFFCURVE",
"1037 1488 OFFCURVE",
"779 1488 CURVE SMOOTH",
"351 1488 OFFCURVE",
"113 1265 OFFCURVE",
"113 734 CURVE SMOOTH",
"113 203 OFFCURVE",
"351 -24 OFFCURVE",
"779 -24 CURVE SMOOTH"
);
},
{
closed = 1;
nodes = (
"858 -362 OFFCURVE",
"939 -303 OFFCURVE",
"939 -190 CURVE SMOOTH",
"939 -155 OFFCURVE",
"930 -120 OFFCURVE",
"911 -90 CURVE SMOOTH",
"854 0 LINE",
"717 0 LINE",
"764 -90 LINE SMOOTH",
"777 -115 OFFCURVE",
"785 -142 OFFCURVE",
"785 -166 CURVE SMOOTH",
"785 -208 OFFCURVE",
"762 -241 OFFCURVE",
"706 -241 CURVE SMOOTH",
"684 -241 OFFCURVE",
"658 -235 OFFCURVE",
"630 -226 CURVE",
"630 -338 LINE",
"672 -354 OFFCURVE",
"714 -362 OFFCURVE",
"753 -362 CURVE SMOOTH"
);
}
);
};
components = (
{
name = C;
},
{
name = cedilla;
transform = "{1, 0, 0, 1, 575, 0}";
}
);
layerId = "28683A17-BAD2-44EA-B42B-E882FFDD4FE1";
userData = {
com.typemytype.robofont.layerData = {
};
};
vertWidth = 0;
width = 1414;
},
{
background = {
anchors = (
{
name = top;
position = "{711, 1464}";
}
);
paths = (
{
closed = 1;
nodes = (
"997 -24 OFFCURVE",
"1196 104 OFFCURVE",
"1266 366 CURVE",
"1139 395 LINE",
"1094 216 OFFCURVE",
"966 87 OFFCURVE",
"734 87 CURVE SMOOTH",
"386 87 OFFCURVE",
"264 339 OFFCURVE",
"264 736 CURVE SMOOTH",
"264 1133 OFFCURVE",
"386 1380 OFFCURVE",
"734 1380 CURVE SMOOTH",
"966 1380 OFFCURVE",
"1094 1252 OFFCURVE",
"1139 1072 CURVE",
"1266 1101 LINE",
"1196 1363 OFFCURVE",
"997 1491 OFFCURVE",
"739 1491 CURVE SMOOTH",
"360 1491 OFFCURVE",
"118 1267 OFFCURVE",
"118 736 CURVE SMOOTH",
"118 205 OFFCURVE",
"360 -24 OFFCURVE",
"739 -24 CURVE SMOOTH"
);
},
{
closed = 1;
nodes = (
"748 -277 OFFCURVE",
"811 -224 OFFCURVE",
"811 -145 CURVE SMOOTH",
"811 -121 OFFCURVE",
"805 -94 OFFCURVE",
"792 -66 CURVE SMOOTH",
"762 0 LINE",
"696 0 LINE",
"716 -51 LINE SMOOTH",
"730 -86 OFFCURVE",
"736 -114 OFFCURVE",
"736 -136 CURVE SMOOTH",
"736 -189 OFFCURVE",
"701 -207 OFFCURVE",
"654 -207 CURVE SMOOTH",
"631 -207 OFFCURVE",
"605 -203 OFFCURVE",
"579 -196 CURVE",
"579 -258 LINE",
"609 -271 OFFCURVE",
"639 -277 OFFCURVE",
"666 -277 CURVE SMOOTH"
);
}
);
};
components = (
{
name = C;
},
{
name = cedilla;
transform = "{1, 0, 0, 1, 491, 0}";
}
);
layerId = "E322F6D1-BA90-436B-BB35-51D9BD3EA9D1";
userData = {
com.typemytype.robofont.layerData = {
b = {
anchors = (
);
components = (
);
contours = (
);
lib = {
};
name = Ccedilla;
unicodes = (
);
width = 1381;
};
};
};
vertWidth = 0;
width = 1381;
}
);
unicode = 00C7;
},
{
glyphname = Ccircumflex;
lastChange = "2023-02-01 16:10:23 +0000";
layers = (
{
background = {
anchors = (
{
name = top;
position = "{761, 1464}";
}
);
paths = (
{
closed = 1;
nodes = (
"1013 -24 OFFCURVE",
"1220 93 OFFCURVE",
"1300 361 CURVE",
"1138 398 LINE",
"1088 233 OFFCURVE",
"976 116 OFFCURVE",
"748 116 CURVE SMOOTH",
"416 116 OFFCURVE",
"301 338 OFFCURVE",
"301 735 CURVE SMOOTH",
"301 1132 OFFCURVE",
"416 1350 OFFCURVE",
"748 1350 CURVE SMOOTH",
"976 1350 OFFCURVE",
"1088 1233 OFFCURVE",
"1138 1067 CURVE",
"1300 1105 LINE",
"1220 1373 OFFCURVE",
"1013 1490 OFFCURVE",
"755 1490 CURVE SMOOTH",
"356 1490 OFFCURVE",
"116 1266 OFFCURVE",
"116 735 CURVE SMOOTH",
"116 204 OFFCURVE",
"356 -24 OFFCURVE",
"755 -24 CURVE SMOOTH"
);
},
{
closed = 1;
nodes = (
"622 1595 LINE",
"783 1834 LINE",
"945 1595 LINE",
"1060 1595 LINE",
"887 1915 LINE",
"680 1915 LINE",
"507 1595 LINE"
);
}
);
};
components = (
{
name = C;
},
{
name = circumflex;
transform = "{1, 0, 0, 1, 372, 441}";
}
);
layerId = "8E6A00A3-5EF9-4E6D-9A7B-9C1BBC7D44AD";
userData = {
com.typemytype.robofont.layerData = {
};
};
vertWidth = 0;
width = 1394;
},
{
background = {
anchors = (
{
name = top;
position = "{765, 1464}";
}
);
paths = (
{
closed = 1;
nodes = (
"1026 -24 OFFCURVE",
"1239 84 OFFCURVE",
"1327 357 CURVE",
"1137 401 LINE",
"1083 246 OFFCURVE",
"984 139 OFFCURVE",
"759 139 CURVE SMOOTH",
"441 139 OFFCURVE",
"331 337 OFFCURVE",
"331 734 CURVE SMOOTH",
"331 1131 OFFCURVE",
"441 1325 OFFCURVE",
"759 1325 CURVE SMOOTH",
"984 1325 OFFCURVE",
"1083 1218 OFFCURVE",
"1137 1064 CURVE",
"1327 1108 LINE",
"1239 1381 OFFCURVE",
"1026 1489 OFFCURVE",
"768 1489 CURVE SMOOTH",
"353 1489 OFFCURVE",
"115 1265 OFFCURVE",
"115 734 CURVE SMOOTH",
"115 203 OFFCURVE",
"353 -24 OFFCURVE",
"768 -24 CURVE SMOOTH"
);
},
{
closed = 1;
nodes = (
"619 1595 LINE",
"766 1820 LINE",
"914 1595 LINE",
"1047 1595 LINE",
"886 1915 LINE",
"647 1915 LINE",
"486 1595 LINE"
);
}
);
};
components = (
{
name = C;
},
{
name = circumflex;
transform = "{1, 0, 0, 1, 346, 441}";
}
);
layerId = "8DE4C137-4DC6-43A7-909D-C9F8072E6A1C";
userData = {
com.typemytype.robofont.layerData = {
};
};
vertWidth = 0;
width = 1405;
},
{
background = {
anchors = (
{
name = bot;
position = "{779, 0}";
},
{
name = top;
position = "{747, 1464}";
}
);
paths = (
{
closed = 1;
nodes = (
"1037 -24 OFFCURVE",
"1255 76 OFFCURVE",
"1351 354 CURVE",
"1137 403 LINE",
"1079 258 OFFCURVE",
"991 159 OFFCURVE",
"769 159 CURVE SMOOTH",
"462 159 OFFCURVE",
"357 337 OFFCURVE",
"357 734 CURVE SMOOTH",
"357 1131 OFFCURVE",
"462 1304 OFFCURVE",
"769 1304 CURVE SMOOTH",
"991 1304 OFFCURVE",
"1079 1205 OFFCURVE",
"1137 1061 CURVE",
"1351 1110 LINE",
"1255 1388 OFFCURVE",
"1037 1488 OFFCURVE",
"779 1488 CURVE SMOOTH",
"351 1488 OFFCURVE",
"113 1265 OFFCURVE",
"113 734 CURVE SMOOTH",
"113 203 OFFCURVE",
"351 -24 OFFCURVE",
"779 -24 CURVE SMOOTH"
);
},
{
closed = 1;
nodes = (
"621 1595 LINE",
"755 1808 LINE",
"891 1595 LINE",
"1040 1595 LINE",
"889 1915 LINE",
"622 1915 LINE",
"472 1595 LINE"
);
}
);
};
components = (
{
name = C;
},
{
name = circumflex;
transform = "{1, 0, 0, 1, 328, 441}";
}
);
layerId = "28683A17-BAD2-44EA-B42B-E882FFDD4FE1";
userData = {
com.typemytype.robofont.layerData = {
};
};
vertWidth = 0;
width = 1414;
},
{
background = {
anchors = (
{
name = top;
position = "{711, 1464}";
}
);
paths = (
{
closed = 1;
nodes = (
"997 -24 OFFCURVE",
"1196 104 OFFCURVE",
"1266 366 CURVE",
"1139 395 LINE",
"1094 216 OFFCURVE",
"966 87 OFFCURVE",
"734 87 CURVE SMOOTH",
"386 87 OFFCURVE",
"264 339 OFFCURVE",
"264 736 CURVE SMOOTH",
"264 1133 OFFCURVE",
"386 1380 OFFCURVE",
"734 1380 CURVE SMOOTH",
"966 1380 OFFCURVE",
"1094 1252 OFFCURVE",
"1139 1072 CURVE",
"1266 1101 LINE",
"1196 1363 OFFCURVE",
"997 1491 OFFCURVE",
"739 1491 CURVE SMOOTH",
"360 1491 OFFCURVE",
"118 1267 OFFCURVE",
"118 736 CURVE SMOOTH",
"118 205 OFFCURVE",
"360 -24 OFFCURVE",
"739 -24 CURVE SMOOTH"
);
},
{
closed = 1;
nodes = (
"513 1595 LINE",
"692 1852 LINE",
"871 1595 LINE",
"964 1595 LINE",
"776 1915 LINE",
"609 1915 LINE",
"421 1595 LINE"
);
}
);
};
components = (
{
name = C;
},
{
name = circumflex;
transform = "{1, 0, 0, 1, 292, 441}";
}
);
layerId = "E322F6D1-BA90-436B-BB35-51D9BD3EA9D1";
userData = {
com.typemytype.robofont.layerData = {
b = {
anchors = (
);
components = (
);
contours = (
);
lib = {
};
name = Ccircumflex;
unicodes = (
);
width = 1381;
};
};
};
vertWidth = 0;
width = 1381;
}
);
unicode = 0108;
},
{
glyphname = Cdotaccent;
lastChange = "2023-02-01 16:10:23 +0000";
layers = (
{
background = {
anchors = (
{
name = top;
position = "{761, 1464}";
}
);
paths = (
{
closed = 1;
nodes = (
"1013 -24 OFFCURVE",
"1220 93 OFFCURVE",
"1300 361 CURVE",
"1138 398 LINE",
"1088 233 OFFCURVE",
"976 116 OFFCURVE",
"748 116 CURVE SMOOTH",
"416 116 OFFCURVE",
"301 338 OFFCURVE",
"301 735 CURVE SMOOTH",
"301 1132 OFFCURVE",
"416 1350 OFFCURVE",
"748 1350 CURVE SMOOTH",
"976 1350 OFFCURVE",
"1088 1233 OFFCURVE",
"1138 1067 CURVE",
"1300 1105 LINE",
"1220 1373 OFFCURVE",
"1013 1490 OFFCURVE",
"755 1490 CURVE SMOOTH",
"356 1490 OFFCURVE",
"116 1266 OFFCURVE",
"116 735 CURVE SMOOTH",
"116 204 OFFCURVE",
"356 -24 OFFCURVE",
"755 -24 CURVE SMOOTH"
);
},
{
closed = 1;
nodes = (
"867 1673 LINE",
"867 1898 LINE",
"693 1898 LINE",
"693 1673 LINE"
);
}
);
};
components = (
{
name = C;
},
{
name = dotaccent;
transform = "{1, 0, 0, 1, 563, 441}";
}
);
layerId = "8E6A00A3-5EF9-4E6D-9A7B-9C1BBC7D44AD";
userData = {
com.typemytype.robofont.layerData = {
};
};
vertWidth = 0;
width = 1394;
},
{
background = {
anchors = (
{
name = top;
position = "{765, 1464}";
}
);
paths = (
{
closed = 1;
nodes = (
"1026 -24 OFFCURVE",
"1239 84 OFFCURVE",
"1327 357 CURVE",
"1137 401 LINE",
"1083 246 OFFCURVE",
"984 139 OFFCURVE",
"759 139 CURVE SMOOTH",
"441 139 OFFCURVE",
"331 337 OFFCURVE",
"331 734 CURVE SMOOTH",
"331 1131 OFFCURVE",
"441 1325 OFFCURVE",
"759 1325 CURVE SMOOTH",
"984 1325 OFFCURVE",
"1083 1218 OFFCURVE",
"1137 1064 CURVE",
"1327 1108 LINE",
"1239 1381 OFFCURVE",
"1026 1489 OFFCURVE",
"768 1489 CURVE SMOOTH",
"353 1489 OFFCURVE",
"115 1265 OFFCURVE",
"115 734 CURVE SMOOTH",
"115 203 OFFCURVE",
"353 -24 OFFCURVE",
"768 -24 CURVE SMOOTH"
);
},
{
closed = 1;
nodes = (
"864 1674 LINE",
"864 1909 LINE",
"661 1909 LINE",
"661 1674 LINE"
);
}
);
};
components = (
{
name = C;
},
{
name = dotaccent;
transform = "{1, 0, 0, 1, 547, 441}";
}
);
layerId = "8DE4C137-4DC6-43A7-909D-C9F8072E6A1C";
userData = {
com.typemytype.robofont.layerData = {
};
};
vertWidth = 0;
width = 1405;
},
{
background = {
anchors = (
{
name = bot;
position = "{779, 0}";
},
{
name = top;
position = "{747, 1464}";
}
);
paths = (
{
closed = 1;
nodes = (
"1037 -24 OFFCURVE",
"1255 76 OFFCURVE",
"1351 354 CURVE",
"1137 403 LINE",
"1079 258 OFFCURVE",
"991 159 OFFCURVE",
"769 159 CURVE SMOOTH",
"462 159 OFFCURVE",
"357 337 OFFCURVE",
"357 734 CURVE SMOOTH",
"357 1131 OFFCURVE",
"462 1304 OFFCURVE",
"769 1304 CURVE SMOOTH",
"991 1304 OFFCURVE",
"1079 1205 OFFCURVE",
"1137 1061 CURVE",
"1351 1110 LINE",
"1255 1388 OFFCURVE",
"1037 1488 OFFCURVE",
"779 1488 CURVE SMOOTH",
"351 1488 OFFCURVE",
"113 1265 OFFCURVE",
"113 734 CURVE SMOOTH",
"113 203 OFFCURVE",
"351 -24 OFFCURVE",
"779 -24 CURVE SMOOTH"
);
},
{
closed = 1;
nodes = (
"854 1675 LINE",
"854 1919 LINE",
"625 1919 LINE",
"625 1675 LINE"
);
}
);
};
components = (
{
name = C;
},
{
name = dotaccent;
transform = "{1, 0, 0, 1, 525, 441}";
}
);
layerId = "28683A17-BAD2-44EA-B42B-E882FFDD4FE1";
userData = {
com.typemytype.robofont.layerData = {
};
};
vertWidth = 0;
width = 1414;
},
{
background = {
anchors = (
{
name = top;
position = "{711, 1464}";
}
);
paths = (
{
closed = 1;
nodes = (
"997 -24 OFFCURVE",
"1196 104 OFFCURVE",
"1266 366 CURVE",
"1139 395 LINE",
"1094 216 OFFCURVE",
"966 87 OFFCURVE",
"734 87 CURVE SMOOTH",
"386 87 OFFCURVE",
"264 339 OFFCURVE",
"264 736 CURVE SMOOTH",
"264 1133 OFFCURVE",
"386 1380 OFFCURVE",
"734 1380 CURVE SMOOTH",
"966 1380 OFFCURVE",
"1094 1252 OFFCURVE",
"1139 1072 CURVE",
"1266 1101 LINE",
"1196 1363 OFFCURVE",
"997 1491 OFFCURVE",
"739 1491 CURVE SMOOTH",
"360 1491 OFFCURVE",
"118 1267 OFFCURVE",
"118 736 CURVE SMOOTH",
"118 205 OFFCURVE",
"360 -24 OFFCURVE",
"739 -24 CURVE SMOOTH"
);
},
{
closed = 1;
nodes = (
"774 1672 LINE",
"774 1884 LINE",
"637 1884 LINE",
"637 1672 LINE"
);
}
);
};
components = (
{
name = C;
},
{
name = dotaccent;
transform = "{1, 0, 0, 1, 487, 441}";
}
);
layerId = "E322F6D1-BA90-436B-BB35-51D9BD3EA9D1";
userData = {
com.typemytype.robofont.layerData = {
b = {
anchors = (
);
components = (
);
contours = (
);
lib = {
};
name = Cdotaccent;
unicodes = (
);
width = 1381;
};
};
};
vertWidth = 0;
width = 1381;
}
);
unicode = 010A;
},
{
glyphname = D;
lastChange = "2023-02-01 16:10:13 +0000";
layers = (
{
anchors = (
{
name = top;
position = "{714.5, 1464}";
}
);
background = {
anchors = (
{
name = top;
position = "{714.5, 1464}";
}
);
paths = (
{
closed = 1;
nodes = (
"663 0 LINE SMOOTH",
"1115 0 OFFCURVE",
"1313 207 OFFCURVE",
"1313 738 CURVE SMOOTH",
"1313 1280 OFFCURVE",
"1091 1464 OFFCURVE",
"667 1464 CURVE SMOOTH",
"146 1464 LINE",
"146 0 LINE"
);
},
{
closed = 1;
nodes = (
"321 1330 LINE",
"667 1330 LINE SMOOTH",
"1036 1330 OFFCURVE",
"1136 1129 OFFCURVE",
"1136 737 CURVE SMOOTH",
"1136 290 OFFCURVE",
"1007 134 OFFCURVE",
"609 134 CURVE SMOOTH",
"321 134 LINE"
);
}
);
};
layerId = "8E6A00A3-5EF9-4E6D-9A7B-9C1BBC7D44AD";
paths = (
{
closed = 1;
nodes = (
"663 0 LINE SMOOTH",
"1115 0 OFFCURVE",
"1313 207 OFFCURVE",
"1313 738 CURVE SMOOTH",
"1313 1280 OFFCURVE",
"1091 1464 OFFCURVE",
"667 1464 CURVE SMOOTH",
"146 1464 LINE",
"146 0 LINE"
);
},
{
closed = 1;
nodes = (
"321 1330 LINE",
"667 1330 LINE SMOOTH",
"1036 1330 OFFCURVE",
"1136 1129 OFFCURVE",
"1136 737 CURVE SMOOTH",
"1136 290 OFFCURVE",
"1007 134 OFFCURVE",
"609 134 CURVE SMOOTH",
"321 134 LINE"
);
}
);
userData = {
com.typemytype.robofont.layerData = {
};
};
vertWidth = 0;
width = 1429;
},
{
anchors = (
{
name = top;
position = "{725, 1464}";
}
);
background = {
anchors = (
{
name = top;
position = "{725, 1464}";
}
);
paths = (
{
closed = 1;
nodes = (
"678 0 LINE SMOOTH",
"1143 0 OFFCURVE",
"1335 211 OFFCURVE",
"1335 738 CURVE SMOOTH",
"1335 1280 OFFCURVE",
"1114 1464 OFFCURVE",
"678 1464 CURVE SMOOTH",
"139 1464 LINE",
"139 0 LINE"
);
},
{
closed = 1;
nodes = (
"344 1307 LINE",
"677 1307 LINE SMOOTH",
"1031 1307 OFFCURVE",
"1129 1128 OFFCURVE",
"1129 737 CURVE SMOOTH",
"1129 291 OFFCURVE",
"1002 157 OFFCURVE",
"618 157 CURVE SMOOTH",
"344 157 LINE"
);
}
);
};
layerId = "8DE4C137-4DC6-43A7-909D-C9F8072E6A1C";
paths = (
{
closed = 1;
nodes = (
"678 0 LINE SMOOTH",
"1143 0 OFFCURVE",
"1335 211 OFFCURVE",
"1335 738 CURVE SMOOTH",
"1335 1280 OFFCURVE",
"1114 1464 OFFCURVE",
"678 1464 CURVE SMOOTH",
"139 1464 LINE",
"139 0 LINE"
);
},
{
closed = 1;
nodes = (
"344 1307 LINE",
"677 1307 LINE SMOOTH",
"1031 1307 OFFCURVE",
"1129 1128 OFFCURVE",
"1129 737 CURVE SMOOTH",
"1129 291 OFFCURVE",
"1002 157 OFFCURVE",
"618 157 CURVE SMOOTH",
"344 157 LINE"
);
}
);
userData = {
com.typemytype.robofont.layerData = {
};
};
vertWidth = 0;
width = 1450;
},
{
anchors = (
{
name = bot;
position = "{734, 0}";
},
{
name = mid;
position = "{734, 1023}";
},
{
name = top;
position = "{734, 1464}";
}
);
background = {
anchors = (
{
name = bot;
position = "{734, 0}";
},
{
name = mid;
position = "{734, 1023}";
},
{
name = top;
position = "{734, 1464}";
}
);
paths = (
{
closed = 1;
nodes = (
"690 0 LINE SMOOTH",
"1168 0 OFFCURVE",
"1354 215 OFFCURVE",
"1354 738 CURVE SMOOTH",
"1354 1280 OFFCURVE",
"1135 1464 OFFCURVE",
"688 1464 CURVE SMOOTH",
"134 1464 LINE",
"134 0 LINE"
);
},
{
closed = 1;
nodes = (
"365 1288 LINE",
"686 1288 LINE SMOOTH",
"1026 1288 OFFCURVE",
"1122 1126 OFFCURVE",
"1122 737 CURVE SMOOTH",
"1122 293 OFFCURVE",
"997 176 OFFCURVE",
"625 176 CURVE SMOOTH",
"365 176 LINE"
);
}
);
};
layerId = "28683A17-BAD2-44EA-B42B-E882FFDD4FE1";
paths = (
{
closed = 1;
nodes = (
"690 0 LINE SMOOTH",
"1168 0 OFFCURVE",
"1354 215 OFFCURVE",
"1354 738 CURVE SMOOTH",
"1354 1280 OFFCURVE",
"1135 1464 OFFCURVE",
"688 1464 CURVE SMOOTH",
"134 1464 LINE",
"134 0 LINE"
);
},
{
closed = 1;
nodes = (
"365 1288 LINE",
"686 1288 LINE SMOOTH",
"1026 1288 OFFCURVE",
"1122 1126 OFFCURVE",
"1122 737 CURVE SMOOTH",
"1122 293 OFFCURVE",
"997 176 OFFCURVE",
"625 176 CURVE SMOOTH",
"365 176 LINE"
);
}
);
userData = {
com.typemytype.robofont.layerData = {
};
};
vertWidth = 0;
width = 1468;
},
{
anchors = (
{
name = top;
position = "{702, 1464}";
}
);
background = {
anchors = (
{
name = top;
position = "{702, 1464}";
}
);
paths = (
{
closed = 1;
nodes = (
"645 0 LINE SMOOTH",
"1080 0 OFFCURVE",
"1286 202 OFFCURVE",
"1286 738 CURVE SMOOTH",
"1286 1280 OFFCURVE",
"1062 1464 OFFCURVE",
"653 1464 CURVE SMOOTH",
"154 1464 LINE",
"154 0 LINE"
);
},
{
closed = 1;
nodes = (
"292 1358 LINE",
"655 1358 LINE SMOOTH",
"1042 1358 OFFCURVE",
"1146 1131 OFFCURVE",
"1146 737 CURVE SMOOTH",
"1146 288 OFFCURVE",
"1013 106 OFFCURVE",
"599 106 CURVE SMOOTH",
"292 106 LINE"
);
}
);
};
layerId = "E322F6D1-BA90-436B-BB35-51D9BD3EA9D1";
paths = (
{
closed = 1;
nodes = (
"645 0 LINE SMOOTH",
"1080 0 OFFCURVE",
"1286 202 OFFCURVE",
"1286 738 CURVE SMOOTH",
"1286 1280 OFFCURVE",
"1062 1464 OFFCURVE",
"653 1464 CURVE SMOOTH",
"154 1464 LINE",
"154 0 LINE"
);
},
{
closed = 1;
nodes = (
"292 1358 LINE",
"655 1358 LINE SMOOTH",
"1042 1358 OFFCURVE",
"1146 1131 OFFCURVE",
"1146 737 CURVE SMOOTH",
"1146 288 OFFCURVE",
"1013 106 OFFCURVE",
"599 106 CURVE SMOOTH",
"292 106 LINE"
);
}
);
userData = {
com.typemytype.robofont.layerData = {
b = {
anchors = (
);
components = (
);
contours = (
);
lib = {
};
name = D;
unicodes = (
);
width = 1404;
};
};
};
vertWidth = 0;
width = 1404;
}
);
unicode = 0044;
},
{
glyphname = Eth;
lastChange = "2023-02-01 16:10:23 +0000";
layers = (
{
background = {
anchors = (
{
name = top;
position = "{714.5, 1464}";
}
);
paths = (
{
closed = 1;
nodes = (
"558 694 LINE",
"558 796 LINE",
"0 796 LINE",
"0 694 LINE"
);
},
{
closed = 1;
nodes = (
"663 0 LINE SMOOTH",
"1115 0 OFFCURVE",
"1313 207 OFFCURVE",
"1313 738 CURVE SMOOTH",
"1313 1280 OFFCURVE",
"1091 1464 OFFCURVE",
"667 1464 CURVE SMOOTH",
"146 1464 LINE",
"146 0 LINE"
);
},
{
closed = 1;
nodes = (
"321 1330 LINE",
"667 1330 LINE SMOOTH",
"1036 1330 OFFCURVE",
"1136 1129 OFFCURVE",
"1136 737 CURVE SMOOTH",
"1136 290 OFFCURVE",
"1007 134 OFFCURVE",
"609 134 CURVE SMOOTH",
"321 134 LINE"
);
}
);
};
components = (
{
name = D;
}
);
layerId = "8E6A00A3-5EF9-4E6D-9A7B-9C1BBC7D44AD";
paths = (
{
closed = 1;
nodes = (
"558 694 LINE",
"558 796 LINE",
"0 796 LINE",
"0 694 LINE"
);
}
);
userData = {
anchors = (
);
b = {
};
com.typemytype.robofont.layerData = {
};
components = (
);
contours = (
);
lib = {
};
name = Eth;
unicodes = (
);
width = "1444";
};
vertWidth = 0;
width = 1444;
},
{
background = {
anchors = (
{
name = top;
position = "{725, 1464}";
}
);
paths = (
{
closed = 1;
nodes = (
"566 685 LINE",
"566 804 LINE",
"0 804 LINE",
"0 685 LINE"
);
},
{
closed = 1;
nodes = (
"678 0 LINE SMOOTH",
"1143 0 OFFCURVE",
"1335 211 OFFCURVE",
"1335 738 CURVE SMOOTH",
"1335 1280 OFFCURVE",
"1114 1464 OFFCURVE",
"678 1464 CURVE SMOOTH",
"139 1464 LINE",
"139 0 LINE"
);
},
{
closed = 1;
nodes = (
"344 1307 LINE",
"677 1307 LINE SMOOTH",
"1031 1307 OFFCURVE",
"1129 1128 OFFCURVE",
"1129 737 CURVE SMOOTH",
"1129 291 OFFCURVE",
"1002 157 OFFCURVE",
"618 157 CURVE SMOOTH",
"344 157 LINE"
);
}
);
};
components = (
{
name = D;
}
);
layerId = "8DE4C137-4DC6-43A7-909D-C9F8072E6A1C";
paths = (
{
closed = 1;
nodes = (
"566 685 LINE",
"566 804 LINE",
"0 804 LINE",
"0 685 LINE"
);
}
);
userData = {
anchors = (
);
b = {
};
com.typemytype.robofont.layerData = {
};
components = (
);
contours = (
);
lib = {
};
name = Eth;
unicodes = (
);
width = "1444";
};
vertWidth = 0;
width = 1444;
},
{
background = {
anchors = (
{
name = bot;
position = "{734, 0}";
},
{
name = mid;
position = "{734, 1023}";
},
{
name = top;
position = "{734, 1464}";
}
);
paths = (
{
closed = 1;
nodes = (
"573 678 LINE",
"573 811 LINE",
"0 811 LINE",
"0 678 LINE"
);
},
{
closed = 1;
nodes = (
"690 0 LINE SMOOTH",
"1168 0 OFFCURVE",
"1354 215 OFFCURVE",
"1354 738 CURVE SMOOTH",
"1354 1280 OFFCURVE",
"1135 1464 OFFCURVE",
"688 1464 CURVE SMOOTH",
"134 1464 LINE",
"134 0 LINE"
);
},
{
closed = 1;
nodes = (
"365 1288 LINE",
"686 1288 LINE SMOOTH",
"1026 1288 OFFCURVE",
"1122 1126 OFFCURVE",
"1122 737 CURVE SMOOTH",
"1122 293 OFFCURVE",
"997 176 OFFCURVE",
"625 176 CURVE SMOOTH",
"365 176 LINE"
);
}
);
};
components = (
{
name = D;
}
);
layerId = "28683A17-BAD2-44EA-B42B-E882FFDD4FE1";
paths = (
{
closed = 1;
nodes = (
"573 678 LINE",
"573 811 LINE",
"0 811 LINE",
"0 678 LINE"
);
}
);
userData = {
anchors = (
);
b = {
};
com.typemytype.robofont.layerData = {
};
components = (
);
contours = (
);
lib = {
};
name = Eth;
unicodes = (
);
width = "1444";
};
vertWidth = 0;
width = 1444;
},
{
background = {
anchors = (
{
name = top;
position = "{702, 1464}";
}
);
paths = (
{
closed = 1;
nodes = (
"548 704 LINE",
"548 786 LINE",
"0 786 LINE",
"0 704 LINE"
);
},
{
closed = 1;
nodes = (
"645 0 LINE SMOOTH",
"1080 0 OFFCURVE",
"1286 202 OFFCURVE",
"1286 738 CURVE SMOOTH",
"1286 1280 OFFCURVE",
"1062 1464 OFFCURVE",
"653 1464 CURVE SMOOTH",
"154 1464 LINE",
"154 0 LINE"
);
},
{
closed = 1;
nodes = (
"292 1358 LINE",
"655 1358 LINE SMOOTH",
"1042 1358 OFFCURVE",
"1146 1131 OFFCURVE",
"1146 737 CURVE SMOOTH",
"1146 288 OFFCURVE",
"1013 106 OFFCURVE",
"599 106 CURVE SMOOTH",
"292 106 LINE"
);
}
);
};
components = (
{
name = D;
}
);
layerId = "E322F6D1-BA90-436B-BB35-51D9BD3EA9D1";
paths = (
{
closed = 1;
nodes = (
"548 704 LINE",
"548 786 LINE",
"0 786 LINE",
"0 704 LINE"
);
}
);
userData = {
anchors = (
);
b = {
};
com.typemytype.robofont.layerData = {
b = {
anchors = (
);
components = (
);
contours = (
);
lib = {
};
name = Eth;
unicodes = (
);
width = 1444;
};
};
components = (
);
contours = (
);
lib = {
};
name = Eth;
unicodes = (
);
width = "1444";
};
vertWidth = 0;
width = 1444;
}
);
unicode = 00D0;
},
{
glyphname = Dcaron;
lastChange = "2023-02-01 16:10:23 +0000";
layers = (
{
background = {
anchors = (
{
name = top;
position = "{714.5, 1464}";
}
);
paths = (
{
closed = 1;
nodes = (
"663 0 LINE SMOOTH",
"1115 0 OFFCURVE",
"1313 207 OFFCURVE",
"1313 738 CURVE SMOOTH",
"1313 1280 OFFCURVE",
"1091 1464 OFFCURVE",
"667 1464 CURVE SMOOTH",
"146 1464 LINE",
"146 0 LINE"
);
},
{
closed = 1;
nodes = (
"321 1330 LINE",
"667 1330 LINE SMOOTH",
"1036 1330 OFFCURVE",
"1136 1129 OFFCURVE",
"1136 737 CURVE SMOOTH",
"1136 290 OFFCURVE",
"1007 134 OFFCURVE",
"609 134 CURVE SMOOTH",
"321 134 LINE"
);
},
{
closed = 1;
nodes = (
"824 1595 LINE",
"997 1915 LINE",
"882 1915 LINE",
"720 1676 LINE",
"559 1915 LINE",
"444 1915 LINE",
"617 1595 LINE"
);
}
);
};
components = (
{
name = D;
},
{
name = caron;
transform = "{1, 0, 0, 1, 296, 441}";
}
);
layerId = "8E6A00A3-5EF9-4E6D-9A7B-9C1BBC7D44AD";
userData = {
com.typemytype.robofont.layerData = {
};
};
vertWidth = 0;
width = 1429;
},
{
background = {
anchors = (
{
name = top;
position = "{725, 1464}";
}
);
paths = (
{
closed = 1;
nodes = (
"678 0 LINE SMOOTH",
"1143 0 OFFCURVE",
"1335 211 OFFCURVE",
"1335 738 CURVE SMOOTH",
"1335 1280 OFFCURVE",
"1114 1464 OFFCURVE",
"678 1464 CURVE SMOOTH",
"139 1464 LINE",
"139 0 LINE"
);
},
{
closed = 1;
nodes = (
"344 1307 LINE",
"677 1307 LINE SMOOTH",
"1031 1307 OFFCURVE",
"1129 1128 OFFCURVE",
"1129 737 CURVE SMOOTH",
"1129 291 OFFCURVE",
"1002 157 OFFCURVE",
"618 157 CURVE SMOOTH",
"344 157 LINE"
);
},
{
closed = 1;
nodes = (
"850 1595 LINE",
"1011 1915 LINE",
"878 1915 LINE",
"730 1690 LINE",
"583 1915 LINE",
"450 1915 LINE",
"611 1595 LINE"
);
}
);
};
components = (
{
name = D;
},
{
name = caron;
transform = "{1, 0, 0, 1, 306, 441}";
}
);
layerId = "8DE4C137-4DC6-43A7-909D-C9F8072E6A1C";
userData = {
com.typemytype.robofont.layerData = {
};
};
vertWidth = 0;
width = 1450;
},
{
background = {
anchors = (
{
name = bot;
position = "{734, 0}";
},
{
name = mid;
position = "{734, 1023}";
},
{
name = top;
position = "{734, 1464}";
}
);
paths = (
{
closed = 1;
nodes = (
"690 0 LINE SMOOTH",
"1168 0 OFFCURVE",
"1354 215 OFFCURVE",
"1354 738 CURVE SMOOTH",
"1354 1280 OFFCURVE",
"1135 1464 OFFCURVE",
"688 1464 CURVE SMOOTH",
"134 1464 LINE",
"134 0 LINE"
);
},
{
closed = 1;
nodes = (
"365 1288 LINE",
"686 1288 LINE SMOOTH",
"1026 1288 OFFCURVE",
"1122 1126 OFFCURVE",
"1122 737 CURVE SMOOTH",
"1122 293 OFFCURVE",
"997 176 OFFCURVE",
"625 176 CURVE SMOOTH",
"365 176 LINE"
);
},
{
closed = 1;
nodes = (
"873 1595 LINE",
"1024 1915 LINE",
"875 1915 LINE",
"739 1702 LINE",
"604 1915 LINE",
"456 1915 LINE",
"606 1595 LINE"
);
}
);
};
components = (
{
name = D;
},
{
name = caron;
transform = "{1, 0, 0, 1, 315, 441}";
}
);
layerId = "28683A17-BAD2-44EA-B42B-E882FFDD4FE1";
userData = {
com.typemytype.robofont.layerData = {
};
};
vertWidth = 0;
width = 1468;
},
{
background = {
anchors = (
{
name = top;
position = "{702, 1464}";
}
);
paths = (
{
closed = 1;
nodes = (
"645 0 LINE SMOOTH",
"1080 0 OFFCURVE",
"1286 202 OFFCURVE",
"1286 738 CURVE SMOOTH",
"1286 1280 OFFCURVE",
"1062 1464 OFFCURVE",
"653 1464 CURVE SMOOTH",
"154 1464 LINE",
"154 0 LINE"
);
},
{
closed = 1;
nodes = (
"292 1358 LINE",
"655 1358 LINE SMOOTH",
"1042 1358 OFFCURVE",
"1146 1131 OFFCURVE",
"1146 737 CURVE SMOOTH",
"1146 288 OFFCURVE",
"1013 106 OFFCURVE",
"599 106 CURVE SMOOTH",
"292 106 LINE"
);
},
{
closed = 1;
nodes = (
"791 1595 LINE",
"979 1915 LINE",
"887 1915 LINE",
"707 1659 LINE",
"529 1915 LINE",
"436 1915 LINE",
"624 1595 LINE"
);
}
);
};
components = (
{
name = D;
},
{
name = caron;
transform = "{1, 0, 0, 1, 283, 441}";
}
);
layerId = "E322F6D1-BA90-436B-BB35-51D9BD3EA9D1";
userData = {
com.typemytype.robofont.layerData = {
b = {
anchors = (
);
components = (
);
contours = (
);
lib = {
};
name = Dcaron;
unicodes = (
);
width = 1404;
};
};
};
vertWidth = 0;
width = 1404;
}
);
unicode = 010E;
},
{
glyphname = Dcroat;
lastChange = "2023-02-01 16:10:23 +0000";
layers = (
{
background = {
anchors = (
{
name = top;
position = "{714.5, 1464}";
}
);
paths = (
{
closed = 1;
nodes = (
"558 694 LINE",
"558 796 LINE",
"0 796 LINE",
"0 694 LINE"
);
},
{
closed = 1;
nodes = (
"663 0 LINE SMOOTH",
"1115 0 OFFCURVE",
"1313 207 OFFCURVE",
"1313 738 CURVE SMOOTH",
"1313 1280 OFFCURVE",
"1091 1464 OFFCURVE",
"667 1464 CURVE SMOOTH",
"146 1464 LINE",
"146 0 LINE"
);
},
{
closed = 1;
nodes = (
"321 1330 LINE",
"667 1330 LINE SMOOTH",
"1036 1330 OFFCURVE",
"1136 1129 OFFCURVE",
"1136 737 CURVE SMOOTH",
"1136 290 OFFCURVE",
"1007 134 OFFCURVE",
"609 134 CURVE SMOOTH",
"321 134 LINE"
);
}
);
};
components = (
{
name = Eth;
}
);
layerId = "8E6A00A3-5EF9-4E6D-9A7B-9C1BBC7D44AD";
vertWidth = 0;
width = 1444;
},
{
background = {
anchors = (
{
name = top;
position = "{725, 1464}";
}
);
paths = (
{
closed = 1;
nodes = (
"566 685 LINE",
"566 804 LINE",
"0 804 LINE",
"0 685 LINE"
);
},
{
closed = 1;
nodes = (
"678 0 LINE SMOOTH",
"1143 0 OFFCURVE",
"1335 211 OFFCURVE",
"1335 738 CURVE SMOOTH",
"1335 1280 OFFCURVE",
"1114 1464 OFFCURVE",
"678 1464 CURVE SMOOTH",
"139 1464 LINE",
"139 0 LINE"
);
},
{
closed = 1;
nodes = (
"344 1307 LINE",
"677 1307 LINE SMOOTH",
"1031 1307 OFFCURVE",
"1129 1128 OFFCURVE",
"1129 737 CURVE SMOOTH",
"1129 291 OFFCURVE",
"1002 157 OFFCURVE",
"618 157 CURVE SMOOTH",
"344 157 LINE"
);
}
);
};
components = (
{
name = Eth;
}
);
layerId = "8DE4C137-4DC6-43A7-909D-C9F8072E6A1C";
vertWidth = 0;
width = 1444;
},
{
background = {
anchors = (
{
name = bot;
position = "{734, 0}";
},
{
name = mid;
position = "{734, 1023}";
},
{
name = top;
position = "{734, 1464}";
}
);
paths = (
{
closed = 1;
nodes = (
"573 678 LINE",
"573 811 LINE",
"0 811 LINE",
"0 678 LINE"
);
},
{
closed = 1;
nodes = (
"690 0 LINE SMOOTH",
"1168 0 OFFCURVE",
"1354 215 OFFCURVE",
"1354 738 CURVE SMOOTH",
"1354 1280 OFFCURVE",
"1135 1464 OFFCURVE",
"688 1464 CURVE SMOOTH",
"134 1464 LINE",
"134 0 LINE"
);
},
{
closed = 1;
nodes = (
"365 1288 LINE",
"686 1288 LINE SMOOTH",
"1026 1288 OFFCURVE",
"1122 1126 OFFCURVE",
"1122 737 CURVE SMOOTH",
"1122 293 OFFCURVE",
"997 176 OFFCURVE",
"625 176 CURVE SMOOTH",
"365 176 LINE"
);
}
);
};
components = (
{
name = Eth;
}
);
layerId = "28683A17-BAD2-44EA-B42B-E882FFDD4FE1";
vertWidth = 0;
width = 1444;
},
{
background = {
anchors = (
{
name = top;
position = "{702, 1464}";
}
);
paths = (
{
closed = 1;
nodes = (
"548 704 LINE",
"548 786 LINE",
"0 786 LINE",
"0 704 LINE"
);
},
{
closed = 1;
nodes = (
"645 0 LINE SMOOTH",
"1080 0 OFFCURVE",
"1286 202 OFFCURVE",
"1286 738 CURVE SMOOTH",
"1286 1280 OFFCURVE",
"1062 1464 OFFCURVE",
"653 1464 CURVE SMOOTH",
"154 1464 LINE",
"154 0 LINE"
);
},
{
closed = 1;
nodes = (
"292 1358 LINE",
"655 1358 LINE SMOOTH",
"1042 1358 OFFCURVE",
"1146 1131 OFFCURVE",
"1146 737 CURVE SMOOTH",
"1146 288 OFFCURVE",
"1013 106 OFFCURVE",
"599 106 CURVE SMOOTH",
"292 106 LINE"
);
}
);
};
components = (
{
name = Eth;
}
);
layerId = "E322F6D1-BA90-436B-BB35-51D9BD3EA9D1";
vertWidth = 0;
width = 1444;
}
);
unicode = 0110;
},
{
glyphname = Dz;
lastChange = "2023-02-01 16:10:23 +0000";
layers = (
{
background = {
anchors = (
{
name = top;
position = "{1904, 1023}";
}
);
paths = (
{
closed = 1;
nodes = (
"663 0 LINE SMOOTH",
"1115 0 OFFCURVE",
"1313 207 OFFCURVE",
"1313 738 CURVE SMOOTH",
"1313 1280 OFFCURVE",
"1091 1464 OFFCURVE",
"667 1464 CURVE SMOOTH",
"146 1464 LINE",
"146 0 LINE"
);
},
{
closed = 1;
nodes = (
"321 1330 LINE",
"667 1330 LINE SMOOTH",
"1036 1330 OFFCURVE",
"1136 1129 OFFCURVE",
"1136 737 CURVE SMOOTH",
"1136 290 OFFCURVE",
"1007 134 OFFCURVE",
"609 134 CURVE SMOOTH",
"321 134 LINE"
);
},
{
closed = 1;
nodes = (
"2255 0 LINE",
"2255 123 LINE",
"1685 123 LINE",
"2257 908 LINE",
"2257 1023 LINE",
"1515 1023 LINE",
"1515 899 LINE",
"2056 899 LINE",
"1493 114 LINE",
"1493 0 LINE"
);
}
);
};
components = (
{
name = D;
},
{
name = z;
transform = "{1, 0, 0, 1, 1429, 0}";
}
);
layerId = "8E6A00A3-5EF9-4E6D-9A7B-9C1BBC7D44AD";
vertWidth = 0;
width = 2308;
},
{
background = {
anchors = (
{
name = top;
position = "{1889, 1023}";
}
);
paths = (
{
closed = 1;
nodes = (
"678 0 LINE SMOOTH",
"1143 0 OFFCURVE",
"1335 211 OFFCURVE",
"1335 738 CURVE SMOOTH",
"1335 1280 OFFCURVE",
"1114 1464 OFFCURVE",
"678 1464 CURVE SMOOTH",
"139 1464 LINE",
"139 0 LINE"
);
},
{
closed = 1;
nodes = (
"344 1307 LINE",
"677 1307 LINE SMOOTH",
"1031 1307 OFFCURVE",
"1129 1128 OFFCURVE",
"1129 737 CURVE SMOOTH",
"1129 291 OFFCURVE",
"1002 157 OFFCURVE",
"618 157 CURVE SMOOTH",
"344 157 LINE"
);
},
{
closed = 1;
nodes = (
"2281 0 LINE",
"2281 142 LINE",
"1735 142 LINE",
"2283 888 LINE",
"2283 1023 LINE",
"1536 1023 LINE",
"1536 880 LINE",
"2050 880 LINE",
"1513 134 LINE",
"1513 0 LINE"
);
}
);
};
components = (
{
name = D;
},
{
name = z;
transform = "{1, 0, 0, 1, 1450, 0}";
}
);
layerId = "8DE4C137-4DC6-43A7-909D-C9F8072E6A1C";
vertWidth = 0;
width = 2328;
},
{
background = {
anchors = (
{
name = bot;
position = "{1907, 0}";
},
{
name = mid;
position = "{734, 1023}";
},
{
name = top;
position = "{1907, 1023}";
}
);
paths = (
{
closed = 1;
nodes = (
"690 0 LINE SMOOTH",
"1168 0 OFFCURVE",
"1354 215 OFFCURVE",
"1354 738 CURVE SMOOTH",
"1354 1280 OFFCURVE",
"1135 1464 OFFCURVE",
"688 1464 CURVE SMOOTH",
"134 1464 LINE",
"134 0 LINE"
);
},
{
closed = 1;
nodes = (
"365 1288 LINE",
"686 1288 LINE SMOOTH",
"1026 1288 OFFCURVE",
"1122 1126 OFFCURVE",
"1122 737 CURVE SMOOTH",
"1122 293 OFFCURVE",
"997 176 OFFCURVE",
"625 176 CURVE SMOOTH",
"365 176 LINE"
);
},
{
closed = 1;
nodes = (
"2304 0 LINE",
"2304 159 LINE",
"1778 159 LINE",
"2306 871 LINE",
"2306 1023 LINE",
"1554 1023 LINE",
"1554 863 LINE",
"2045 863 LINE",
"1529 152 LINE",
"1529 0 LINE"
);
}
);
};
components = (
{
name = D;
},
{
name = z;
transform = "{1, 0, 0, 1, 1468, 0}";
}
);
layerId = "28683A17-BAD2-44EA-B42B-E882FFDD4FE1";
vertWidth = 0;
width = 2346;
},
{
background = {
anchors = (
{
name = top;
position = "{1874, 1023}";
}
);
paths = (
{
closed = 1;
nodes = (
"645 0 LINE SMOOTH",
"1080 0 OFFCURVE",
"1286 202 OFFCURVE",
"1286 738 CURVE SMOOTH",
"1286 1280 OFFCURVE",
"1062 1464 OFFCURVE",
"653 1464 CURVE SMOOTH",
"154 1464 LINE",
"154 0 LINE"
);
},
{
closed = 1;
nodes = (
"292 1358 LINE",
"655 1358 LINE SMOOTH",
"1042 1358 OFFCURVE",
"1146 1131 OFFCURVE",
"1146 737 CURVE SMOOTH",
"1146 288 OFFCURVE",
"1013 106 OFFCURVE",
"599 106 CURVE SMOOTH",
"292 106 LINE"
);
},
{
closed = 1;
nodes = (
"2223 0 LINE",
"2223 98 LINE",
"1624 98 LINE",
"2225 933 LINE",
"2225 1023 LINE",
"1490 1023 LINE",
"1490 924 LINE",
"2064 924 LINE",
"1470 89 LINE",
"1470 0 LINE"
);
}
);
};
components = (
{
name = D;
},
{
name = z;
transform = "{1, 0, 0, 1, 1404, 0}";
}
);
layerId = "E322F6D1-BA90-436B-BB35-51D9BD3EA9D1";
vertWidth = 0;
width = 2283;
}
);
unicode = 01F2;
},
{
glyphname = E;
lastChange = "2023-02-01 16:10:13 +0000";
layers = (
{
anchors = (
{
name = ogonek;
position = "{749, 1}";
},
{
name = top;
position = "{608, 1464}";
}
);
background = {
anchors = (
{
name = ogonek;
position = "{749, 1}";
},
{
name = top;
position = "{608, 1464}";
}
);
paths = (
{
closed = 1;
nodes = (
"1143 0 LINE",
"1143 133 LINE",
"321 133 LINE",
"321 711 LINE",
"1027 711 LINE",
"1027 848 LINE",
"321 848 LINE",
"321 1331 LINE",
"1132 1331 LINE",
"1132 1464 LINE",
"146 1464 LINE",
"146 0 LINE"
);
}
);
};
layerId = "8E6A00A3-5EF9-4E6D-9A7B-9C1BBC7D44AD";
paths = (
{
closed = 1;
nodes = (
"1143 0 LINE",
"1143 133 LINE",
"321 133 LINE",
"321 711 LINE",
"1027 711 LINE",
"1027 848 LINE",
"321 848 LINE",
"321 1331 LINE",
"1132 1331 LINE",
"1132 1464 LINE",
"146 1464 LINE",
"146 0 LINE"
);
}
);
userData = {
anchors = (
);
b = {
};
com.typemytype.robofont.layerData = {
};
components = (
);
contours = {
};
lib = {
};
name = E;
points = {
};
segmentType = line;
unicodes = (
);
width = "1202";
x = "1128";
y = "112";
};
vertWidth = 0;
width = 1216;
},
{
anchors = (
{
name = ogonek;
position = "{724, 0}";
},
{
name = top;
position = "{651, 1464}";
}
);
background = {
anchors = (
{
name = ogonek;
position = "{724, 0}";
},
{
name = top;
position = "{651, 1464}";
}
);
paths = (
{
closed = 1;
nodes = (
"1154 0 LINE",
"1154 154 LINE",
"344 154 LINE",
"344 700 LINE",
"1040 700 LINE",
"1040 857 LINE",
"344 857 LINE",
"344 1310 LINE",
"1143 1310 LINE",
"1143 1464 LINE",
"139 1464 LINE",
"139 0 LINE"
);
}
);
};
layerId = "8DE4C137-4DC6-43A7-909D-C9F8072E6A1C";
paths = (
{
closed = 1;
nodes = (
"1154 0 LINE",
"1154 154 LINE",
"344 154 LINE",
"344 700 LINE",
"1040 700 LINE",
"1040 857 LINE",
"344 857 LINE",
"344 1310 LINE",
"1143 1310 LINE",
"1143 1464 LINE",
"139 1464 LINE",
"139 0 LINE"
);
}
);
userData = {
anchors = (
);
b = {
};
com.typemytype.robofont.layerData = {
};
components = (
);
contours = {
};
lib = {
};
name = E;
points = {
};
segmentType = line;
unicodes = (
);
width = "1202";
x = "1128";
y = "112";
};
vertWidth = 0;
width = 1225;
},
{
anchors = (
{
name = bot;
position = "{617, 0}";
},
{
name = ogonek;
position = "{726, 0}";
},
{
name = top;
position = "{617, 1464}";
}
);
background = {
anchors = (
{
name = bot;
position = "{617, 0}";
},
{
name = ogonek;
position = "{726, 0}";
},
{
name = top;
position = "{617, 1464}";
}
);
paths = (
{
closed = 1;
nodes = (
"1164 0 LINE",
"1164 172 LINE",
"365 172 LINE",
"365 690 LINE",
"1052 690 LINE",
"1052 866 LINE",
"365 866 LINE",
"365 1292 LINE",
"1153 1292 LINE",
"1153 1464 LINE",
"134 1464 LINE",
"134 0 LINE"
);
}
);
};
layerId = "28683A17-BAD2-44EA-B42B-E882FFDD4FE1";
paths = (
{
closed = 1;
nodes = (
"1164 0 LINE",
"1164 172 LINE",
"365 172 LINE",
"365 690 LINE",
"1052 690 LINE",
"1052 866 LINE",
"365 866 LINE",
"365 1292 LINE",
"1153 1292 LINE",
"1153 1464 LINE",
"134 1464 LINE",
"134 0 LINE"
);
}
);
userData = {
anchors = (
);
b = {
};
com.typemytype.robofont.layerData = {
};
components = (
);
contours = {
};
lib = {
};
name = E;
points = {
};
segmentType = line;
unicodes = (
);
width = "1202";
x = "1128";
y = "112";
};
vertWidth = 0;
width = 1234;
},
{
anchors = (
{
name = ogonek;
position = "{728, 0}";
},
{
name = top;
position = "{672, 1464}";
}
);
background = {
anchors = (
{
name = ogonek;
position = "{728, 0}";
},
{
name = top;
position = "{672, 1464}";
}
);
paths = (
{
closed = 1;
nodes = (
"1129 0 LINE",
"1129 107 LINE",
"292 107 LINE",
"292 726 LINE",
"1011 726 LINE",
"1011 836 LINE",
"292 836 LINE",
"292 1357 LINE",
"1118 1357 LINE",
"1118 1464 LINE",
"154 1464 LINE",
"154 0 LINE"
);
}
);
};
layerId = "E322F6D1-BA90-436B-BB35-51D9BD3EA9D1";
paths = (
{
closed = 1;
nodes = (
"1129 0 LINE",
"1129 107 LINE",
"292 107 LINE",
"292 726 LINE",
"1011 726 LINE",
"1011 836 LINE",
"292 836 LINE",
"292 1357 LINE",
"1118 1357 LINE",
"1118 1464 LINE",
"154 1464 LINE",
"154 0 LINE"
);
}
);
userData = {
anchors = (
);
b = {
};
com.typemytype.robofont.layerData = {
b = {
anchors = (
);
components = (
);
contours = (
);
lib = {
};
name = E;
unicodes = (
);
width = 1204;
};
};
components = (
);
contours = {
};
lib = {
};
name = E;
points = {
};
segmentType = line;
unicodes = (
);
width = "1202";
x = "1128";
y = "112";
};
vertWidth = 0;
width = 1204;
}
);
unicode = 0045;
},
{
glyphname = Eacute;
lastChange = "2023-02-01 16:10:23 +0000";
layers = (
{
background = {
anchors = (
{
name = ogonek;
position = "{749, 1}";
},
{
name = top;
position = "{608, 1464}";
}
);
paths = (
{
closed = 1;
nodes = (
"1143 0 LINE",
"1143 133 LINE",
"321 133 LINE",
"321 711 LINE",
"1027 711 LINE",
"1027 848 LINE",
"321 848 LINE",
"321 1331 LINE",
"1132 1331 LINE",
"1132 1464 LINE",
"146 1464 LINE",
"146 0 LINE"
);
},
{
closed = 1;
nodes = (
"944 1911 LINE",
"711 1911 LINE",
"507 1592 LINE",
"620 1591 LINE"
);
}
);
};
components = (
{
name = E;
},
{
name = acute;
transform = "{1, 0, 0, 1, 460, 441}";
}
);
layerId = "8E6A00A3-5EF9-4E6D-9A7B-9C1BBC7D44AD";
userData = {
com.typemytype.robofont.layerData = {
};
};
vertWidth = 0;
width = 1216;
},
{
background = {
anchors = (
{
name = ogonek;
position = "{724, 0}";
},
{
name = top;
position = "{651, 1464}";
}
);
paths = (
{
closed = 1;
nodes = (
"1154 0 LINE",
"1154 154 LINE",
"344 154 LINE",
"344 700 LINE",
"1040 700 LINE",
"1040 857 LINE",
"344 857 LINE",
"344 1310 LINE",
"1143 1310 LINE",
"1143 1464 LINE",
"139 1464 LINE",
"139 0 LINE"
);
},
{
closed = 1;
nodes = (
"684 1587 LINE",
"1026 1907 LINE",
"755 1907 LINE",
"552 1587 LINE"
);
}
);
};
components = (
{
name = E;
},
{
name = acute;
transform = "{1, 0, 0, 1, 533, 441}";
}
);
layerId = "8DE4C137-4DC6-43A7-909D-C9F8072E6A1C";
userData = {
com.typemytype.robofont.layerData = {
};
};
vertWidth = 0;
width = 1225;
},
{
background = {
anchors = (
{
name = bot;
position = "{617, 0}";
},
{
name = ogonek;
position = "{726, 0}";
},
{
name = top;
position = "{617, 1464}";
}
);
paths = (
{
closed = 1;
nodes = (
"1164 0 LINE",
"1164 172 LINE",
"365 172 LINE",
"365 690 LINE",
"1052 690 LINE",
"1052 866 LINE",
"365 866 LINE",
"365 1292 LINE",
"1153 1292 LINE",
"1153 1464 LINE",
"134 1464 LINE",
"134 0 LINE"
);
},
{
closed = 1;
nodes = (
"652 1584 LINE",
"1009 1904 LINE",
"705 1904 LINE",
"503 1583 LINE"
);
}
);
};
components = (
{
name = E;
},
{
name = acute;
transform = "{1, 0, 0, 1, 509, 441}";
}
);
layerId = "28683A17-BAD2-44EA-B42B-E882FFDD4FE1";
userData = {
com.typemytype.robofont.layerData = {
};
};
vertWidth = 0;
width = 1234;
},
{
background = {
anchors = (
{
name = ogonek;
position = "{728, 0}";
},
{
name = top;
position = "{672, 1464}";
}
);
paths = (
{
closed = 1;
nodes = (
"1129 0 LINE",
"1129 107 LINE",
"292 107 LINE",
"292 726 LINE",
"1011 726 LINE",
"1011 836 LINE",
"292 836 LINE",
"292 1357 LINE",
"1118 1357 LINE",
"1118 1464 LINE",
"154 1464 LINE",
"154 0 LINE"
);
},
{
closed = 1;
nodes = (
"887 1916 LINE",
"701 1916 LINE",
"496 1597 LINE",
"585 1596 LINE"
);
}
);
};
components = (
{
name = E;
},
{
name = acute;
transform = "{1, 0, 0, 1, 414, 441}";
}
);
layerId = "E322F6D1-BA90-436B-BB35-51D9BD3EA9D1";
userData = {
com.typemytype.robofont.layerData = {
b = {
anchors = (
);
components = (
);
contours = (
);
lib = {
};
name = Eacute;
unicodes = (
);
width = 1204;
};
};
};
vertWidth = 0;
width = 1204;
}
);
unicode = 00C9;
},
{
glyphname = Ebreve;
lastChange = "2023-02-01 16:10:23 +0000";
layers = (
{
background = {
anchors = (
{
name = ogonek;
position = "{749, 1}";
},
{
name = top;
position = "{608, 1464}";
}
);
paths = (
{
closed = 1;
nodes = (
"1143 0 LINE",
"1143 133 LINE",
"321 133 LINE",
"321 711 LINE",
"1027 711 LINE",
"1027 848 LINE",
"321 848 LINE",
"321 1331 LINE",
"1132 1331 LINE",
"1132 1464 LINE",
"146 1464 LINE",
"146 0 LINE"
);
},
{
closed = 1;
nodes = (
"749 1666 OFFCURVE",
"879 1741 OFFCURVE",
"883 1929 CURVE",
"745 1929 LINE",
"745 1838 OFFCURVE",
"704 1790 OFFCURVE",
"606 1790 CURVE SMOOTH",
"509 1790 OFFCURVE",
"468 1838 OFFCURVE",
"468 1929 CURVE",
"329 1929 LINE",
"333 1741 OFFCURVE",
"463 1666 OFFCURVE",
"606 1666 CURVE SMOOTH"
);
}
);
};
components = (
{
name = E;
},
{
name = breve;
transform = "{1, 0, 0, 1, 206, 441}";
}
);
layerId = "8E6A00A3-5EF9-4E6D-9A7B-9C1BBC7D44AD";
vertWidth = 0;
width = 1216;
},
{
background = {
anchors = (
{
name = ogonek;
position = "{724, 0}";
},
{
name = top;
position = "{651, 1464}";
}
);
paths = (
{
closed = 1;
nodes = (
"1154 0 LINE",
"1154 154 LINE",
"344 154 LINE",
"344 700 LINE",
"1040 700 LINE",
"1040 857 LINE",
"344 857 LINE",
"344 1310 LINE",
"1143 1310 LINE",
"1143 1464 LINE",
"139 1464 LINE",
"139 0 LINE"
);
},
{
closed = 1;
nodes = (
"789 1648 OFFCURVE",
"925 1724 OFFCURVE",
"929 1920 CURVE",
"767 1920 LINE",
"767 1845 OFFCURVE",
"746 1793 OFFCURVE",
"650 1793 CURVE SMOOTH",
"555 1793 OFFCURVE",
"534 1845 OFFCURVE",
"534 1920 CURVE",
"372 1920 LINE",
"376 1724 OFFCURVE",
"511 1648 OFFCURVE",
"650 1648 CURVE SMOOTH"
);
}
);
};
components = (
{
name = E;
},
{
name = breve;
transform = "{1, 0, 0, 1, 249, 441}";
}
);
layerId = "8DE4C137-4DC6-43A7-909D-C9F8072E6A1C";
vertWidth = 0;
width = 1225;
},
{
background = {
anchors = (
{
name = bot;
position = "{617, 0}";
},
{
name = ogonek;
position = "{726, 0}";
},
{
name = top;
position = "{617, 1464}";
}
);
paths = (
{
closed = 1;
nodes = (
"1164 0 LINE",
"1164 172 LINE",
"365 172 LINE",
"365 690 LINE",
"1052 690 LINE",
"1052 866 LINE",
"365 866 LINE",
"365 1292 LINE",
"1153 1292 LINE",
"1153 1464 LINE",
"134 1464 LINE",
"134 0 LINE"
);
},
{
closed = 1;
nodes = (
"753 1632 OFFCURVE",
"893 1708 OFFCURVE",
"897 1911 CURVE",
"715 1911 LINE",
"715 1850 OFFCURVE",
"711 1795 OFFCURVE",
"617 1795 CURVE SMOOTH",
"524 1795 OFFCURVE",
"520 1850 OFFCURVE",
"520 1911 CURVE",
"338 1911 LINE",
"342 1708 OFFCURVE",
"482 1632 OFFCURVE",
"617 1632 CURVE SMOOTH"
);
}
);
};
components = (
{
name = E;
},
{
name = breve;
transform = "{1, 0, 0, 1, 215, 441}";
}
);
layerId = "28683A17-BAD2-44EA-B42B-E882FFDD4FE1";
vertWidth = 0;
width = 1234;
},
{
background = {
anchors = (
{
name = ogonek;
position = "{728, 0}";
},
{
name = top;
position = "{672, 1464}";
}
);
paths = (
{
closed = 1;
nodes = (
"1129 0 LINE",
"1129 107 LINE",
"292 107 LINE",
"292 726 LINE",
"1011 726 LINE",
"1011 836 LINE",
"292 836 LINE",
"292 1357 LINE",
"1118 1357 LINE",
"1118 1464 LINE",
"154 1464 LINE",
"154 0 LINE"
);
},
{
closed = 1;
nodes = (
"747 1689 OFFCURVE",
"870 1763 OFFCURVE",
"874 1941 CURVE",
"764 1941 LINE",
"764 1830 OFFCURVE",
"699 1786 OFFCURVE",
"599 1786 CURVE SMOOTH",
"499 1786 OFFCURVE",
"433 1830 OFFCURVE",
"433 1941 CURVE",
"323 1941 LINE",
"327 1763 OFFCURVE",
"451 1689 OFFCURVE",
"599 1689 CURVE SMOOTH"
);
}
);
};
components = (
{
name = E;
},
{
name = breve;
transform = "{1, 0, 0, 1, 200, 441}";
}
);
layerId = "E322F6D1-BA90-436B-BB35-51D9BD3EA9D1";
vertWidth = 0;
width = 1204;
}
);
unicode = 0114;
},
{
glyphname = Ecaron;
lastChange = "2023-02-01 16:10:23 +0000";
layers = (
{
background = {
anchors = (
{
name = ogonek;
position = "{749, 1}";
},
{
name = top;
position = "{608, 1464}";
}
);
paths = (
{
closed = 1;
nodes = (
"1143 0 LINE",
"1143 133 LINE",
"321 133 LINE",
"321 711 LINE",
"1027 711 LINE",
"1027 848 LINE",
"321 848 LINE",
"321 1331 LINE",
"1132 1331 LINE",
"1132 1464 LINE",
"146 1464 LINE",
"146 0 LINE"
);
},
{
closed = 1;
nodes = (
"717 1595 LINE",
"890 1915 LINE",
"775 1915 LINE",
"613 1676 LINE",
"452 1915 LINE",
"337 1915 LINE",
"510 1595 LINE"
);
}
);
};
components = (
{
name = E;
},
{
name = caron;
transform = "{1, 0, 0, 1, 189, 441}";
}
);
layerId = "8E6A00A3-5EF9-4E6D-9A7B-9C1BBC7D44AD";
userData = {
com.typemytype.robofont.layerData = {
};
};
vertWidth = 0;
width = 1216;
},
{
background = {
anchors = (
{
name = ogonek;
position = "{724, 0}";
},
{
name = top;
position = "{651, 1464}";
}
);
paths = (
{
closed = 1;
nodes = (
"1154 0 LINE",
"1154 154 LINE",
"344 154 LINE",
"344 700 LINE",
"1040 700 LINE",
"1040 857 LINE",
"344 857 LINE",
"344 1310 LINE",
"1143 1310 LINE",
"1143 1464 LINE",
"139 1464 LINE",
"139 0 LINE"
);
},
{
closed = 1;
nodes = (
"776 1595 LINE",
"937 1915 LINE",
"804 1915 LINE",
"656 1690 LINE",
"509 1915 LINE",
"376 1915 LINE",
"537 1595 LINE"
);
}
);
};
components = (
{
name = E;
},
{
name = caron;
transform = "{1, 0, 0, 1, 232, 441}";
}
);
layerId = "8DE4C137-4DC6-43A7-909D-C9F8072E6A1C";
userData = {
com.typemytype.robofont.layerData = {
};
};
vertWidth = 0;
width = 1225;
},
{
background = {
anchors = (
{
name = bot;
position = "{617, 0}";
},
{
name = ogonek;
position = "{726, 0}";
},
{
name = top;
position = "{617, 1464}";
}
);
paths = (
{
closed = 1;
nodes = (
"1164 0 LINE",
"1164 172 LINE",
"365 172 LINE",
"365 690 LINE",
"1052 690 LINE",
"1052 866 LINE",
"365 866 LINE",
"365 1292 LINE",
"1153 1292 LINE",
"1153 1464 LINE",
"134 1464 LINE",
"134 0 LINE"
);
},
{
closed = 1;
nodes = (
"756 1595 LINE",
"907 1915 LINE",
"758 1915 LINE",
"622 1702 LINE",
"487 1915 LINE",
"339 1915 LINE",
"489 1595 LINE"
);
}
);
};
components = (
{
name = E;
},
{
name = caron;
transform = "{1, 0, 0, 1, 198, 441}";
}
);
layerId = "28683A17-BAD2-44EA-B42B-E882FFDD4FE1";
userData = {
com.typemytype.robofont.layerData = {
};
};
vertWidth = 0;
width = 1234;
},
{
background = {
anchors = (
{
name = ogonek;
position = "{728, 0}";
},
{
name = top;
position = "{672, 1464}";
}
);
paths = (
{
closed = 1;
nodes = (
"1129 0 LINE",
"1129 107 LINE",
"292 107 LINE",
"292 726 LINE",
"1011 726 LINE",
"1011 836 LINE",
"292 836 LINE",
"292 1357 LINE",
"1118 1357 LINE",
"1118 1464 LINE",
"154 1464 LINE",
"154 0 LINE"
);
},
{
closed = 1;
nodes = (
"691 1595 LINE",
"879 1915 LINE",
"787 1915 LINE",
"607 1659 LINE",
"429 1915 LINE",
"336 1915 LINE",
"524 1595 LINE"
);
}
);
};
components = (
{
name = E;
},
{
name = caron;
transform = "{1, 0, 0, 1, 183, 441}";
}
);
layerId = "E322F6D1-BA90-436B-BB35-51D9BD3EA9D1";
userData = {
com.typemytype.robofont.layerData = {
b = {
anchors = (
);
components = (
);
contours = (
);
lib = {
};
name = Ecaron;
unicodes = (
);
width = 1204;
};
};
};
vertWidth = 0;
width = 1204;
}
);
unicode = 011A;
},
{
glyphname = Ecircumflex;
lastChange = "2023-02-01 16:10:23 +0000";
layers = (
{
background = {
anchors = (
{
name = ogonek;
position = "{749, 1}";
},
{
name = top;
position = "{608, 1464}";
}
);
paths = (
{
closed = 1;
nodes = (
"1143 0 LINE",
"1143 133 LINE",
"321 133 LINE",
"321 711 LINE",
"1027 711 LINE",
"1027 848 LINE",
"321 848 LINE",
"321 1331 LINE",
"1132 1331 LINE",
"1132 1464 LINE",
"146 1464 LINE",
"146 0 LINE"
);
},
{
closed = 1;
nodes = (
"439 1595 LINE",
"600 1834 LINE",
"762 1595 LINE",
"877 1595 LINE",
"704 1915 LINE",
"497 1915 LINE",
"324 1595 LINE"
);
}
);
};
components = (
{
name = E;
},
{
name = circumflex;
transform = "{1, 0, 0, 1, 189, 441}";
}
);
layerId = "8E6A00A3-5EF9-4E6D-9A7B-9C1BBC7D44AD";
userData = {
com.typemytype.robofont.layerData = {
};
};
vertWidth = 0;
width = 1216;
},
{
background = {
anchors = (
{
name = ogonek;
position = "{724, 0}";
},
{
name = top;
position = "{651, 1464}";
}
);
paths = (
{
closed = 1;
nodes = (
"1154 0 LINE",
"1154 154 LINE",
"344 154 LINE",
"344 700 LINE",
"1040 700 LINE",
"1040 857 LINE",
"344 857 LINE",
"344 1310 LINE",
"1143 1310 LINE",
"1143 1464 LINE",
"139 1464 LINE",
"139 0 LINE"
);
},
{
closed = 1;
nodes = (
"505 1595 LINE",
"652 1820 LINE",
"800 1595 LINE",
"933 1595 LINE",
"772 1915 LINE",
"533 1915 LINE",
"372 1595 LINE"
);
}
);
};
components = (
{
name = E;
},
{
name = circumflex;
transform = "{1, 0, 0, 1, 232, 441}";
}
);
layerId = "8DE4C137-4DC6-43A7-909D-C9F8072E6A1C";
userData = {
com.typemytype.robofont.layerData = {
};
};
vertWidth = 0;
width = 1225;
},
{
background = {
anchors = (
{
name = bot;
position = "{617, 0}";
},
{
name = ogonek;
position = "{726, 0}";
},
{
name = top;
position = "{617, 1464}";
}
);
paths = (
{
closed = 1;
nodes = (
"1164 0 LINE",
"1164 172 LINE",
"365 172 LINE",
"365 690 LINE",
"1052 690 LINE",
"1052 866 LINE",
"365 866 LINE",
"365 1292 LINE",
"1153 1292 LINE",
"1153 1464 LINE",
"134 1464 LINE",
"134 0 LINE"
);
},
{
closed = 1;
nodes = (
"491 1595 LINE",
"625 1808 LINE",
"761 1595 LINE",
"910 1595 LINE",
"759 1915 LINE",
"492 1915 LINE",
"342 1595 LINE"
);
}
);
};
components = (
{
name = E;
},
{
name = circumflex;
transform = "{1, 0, 0, 1, 198, 441}";
}
);
layerId = "28683A17-BAD2-44EA-B42B-E882FFDD4FE1";
userData = {
com.typemytype.robofont.layerData = {
};
};
vertWidth = 0;
width = 1234;
},
{
background = {
anchors = (
{
name = ogonek;
position = "{728, 0}";
},
{
name = top;
position = "{672, 1464}";
}
);
paths = (
{
closed = 1;
nodes = (
"1129 0 LINE",
"1129 107 LINE",
"292 107 LINE",
"292 726 LINE",
"1011 726 LINE",
"1011 836 LINE",
"292 836 LINE",
"292 1357 LINE",
"1118 1357 LINE",
"1118 1464 LINE",
"154 1464 LINE",
"154 0 LINE"
);
},
{
closed = 1;
nodes = (
"404 1595 LINE",
"583 1852 LINE",
"762 1595 LINE",
"855 1595 LINE",
"667 1915 LINE",
"500 1915 LINE",
"312 1595 LINE"
);
}
);
};
components = (
{
name = E;
},
{
name = circumflex;
transform = "{1, 0, 0, 1, 183, 441}";
}
);
layerId = "E322F6D1-BA90-436B-BB35-51D9BD3EA9D1";
userData = {
com.typemytype.robofont.layerData = {
b = {
anchors = (
);
components = (
);
contours = (
);
lib = {
};
name = Ecircumflex;
unicodes = (
);
width = 1204;
};
};
};
vertWidth = 0;
width = 1204;
}
);
unicode = 00CA;
},
{
glyphname = Edieresis;
lastChange = "2023-02-01 16:10:23 +0000";
layers = (
{
background = {
anchors = (
{
name = ogonek;
position = "{749, 1}";
},
{
name = top;
position = "{608, 1464}";
}
);
paths = (
{
closed = 1;
nodes = (
"1143 0 LINE",
"1143 133 LINE",
"321 133 LINE",
"321 711 LINE",
"1027 711 LINE",
"1027 848 LINE",
"321 848 LINE",
"321 1331 LINE",
"1132 1331 LINE",
"1132 1464 LINE",
"146 1464 LINE",
"146 0 LINE"
);
},
{
closed = 1;
nodes = (
"890 1621 LINE",
"890 1819 LINE",
"696 1819 LINE",
"696 1621 LINE"
);
},
{
closed = 1;
nodes = (
"483 1621 LINE",
"483 1819 LINE",
"289 1819 LINE",
"289 1621 LINE"
);
}
);
};
components = (
{
name = E;
},
{
name = dieresis;
transform = "{1, 0, 0, 1, 178, 441}";
}
);
layerId = "8E6A00A3-5EF9-4E6D-9A7B-9C1BBC7D44AD";
userData = {
com.typemytype.robofont.layerData = {
};
};
vertWidth = 0;
width = 1216;
},
{
background = {
anchors = (
{
name = ogonek;
position = "{724, 0}";
},
{
name = top;
position = "{651, 1464}";
}
);
paths = (
{
closed = 1;
nodes = (
"1154 0 LINE",
"1154 154 LINE",
"344 154 LINE",
"344 700 LINE",
"1040 700 LINE",
"1040 857 LINE",
"344 857 LINE",
"344 1310 LINE",
"1143 1310 LINE",
"1143 1464 LINE",
"139 1464 LINE",
"139 0 LINE"
);
},
{
closed = 1;
nodes = (
"965 1610 LINE",
"965 1832 LINE",
"743 1832 LINE",
"743 1610 LINE"
);
},
{
closed = 1;
nodes = (
"530 1610 LINE",
"530 1832 LINE",
"308 1832 LINE",
"308 1610 LINE"
);
}
);
};
components = (
{
name = E;
},
{
name = dieresis;
transform = "{1, 0, 0, 1, 221, 441}";
}
);
layerId = "8DE4C137-4DC6-43A7-909D-C9F8072E6A1C";
userData = {
com.typemytype.robofont.layerData = {
};
};
vertWidth = 0;
width = 1225;
},
{
background = {
anchors = (
{
name = bot;
position = "{617, 0}";
},
{
name = ogonek;
position = "{726, 0}";
},
{
name = top;
position = "{617, 1464}";
}
);
paths = (
{
closed = 1;
nodes = (
"1164 0 LINE",
"1164 172 LINE",
"365 172 LINE",
"365 690 LINE",
"1052 690 LINE",
"1052 866 LINE",
"365 866 LINE",
"365 1292 LINE",
"1153 1292 LINE",
"1153 1464 LINE",
"134 1464 LINE",
"134 0 LINE"
);
},
{
closed = 1;
nodes = (
"500 1601 LINE",
"500 1844 LINE",
"253 1844 LINE",
"253 1601 LINE"
);
},
{
closed = 1;
nodes = (
"959 1601 LINE",
"959 1844 LINE",
"713 1844 LINE",
"713 1601 LINE"
);
}
);
};
components = (
{
name = E;
},
{
name = dieresis;
transform = "{1, 0, 0, 1, 187, 441}";
}
);
layerId = "28683A17-BAD2-44EA-B42B-E882FFDD4FE1";
userData = {
com.typemytype.robofont.layerData = {
};
};
vertWidth = 0;
width = 1234;
},
{
background = {
anchors = (
{
name = ogonek;
position = "{728, 0}";
},
{
name = top;
position = "{672, 1464}";
}
);
paths = (
{
closed = 1;
nodes = (
"1129 0 LINE",
"1129 107 LINE",
"292 107 LINE",
"292 726 LINE",
"1011 726 LINE",
"1011 836 LINE",
"292 836 LINE",
"292 1357 LINE",
"1118 1357 LINE",
"1118 1464 LINE",
"154 1464 LINE",
"154 0 LINE"
);
},
{
closed = 1;
nodes = (
"844 1635 LINE",
"844 1803 LINE",
"685 1803 LINE",
"685 1635 LINE"
);
},
{
closed = 1;
nodes = (
"472 1635 LINE",
"472 1803 LINE",
"313 1803 LINE",
"313 1635 LINE"
);
}
);
};
components = (
{
name = E;
},
{
name = dieresis;
transform = "{1, 0, 0, 1, 172, 441}";
}
);
layerId = "E322F6D1-BA90-436B-BB35-51D9BD3EA9D1";
userData = {
com.typemytype.robofont.layerData = {
b = {
anchors = (
);
components = (
);
contours = (
);
lib = {
};
name = Edieresis;
unicodes = (
);
width = 1204;
};
};
};
vertWidth = 0;
width = 1204;
}
);
unicode = 00CB;
},
{
glyphname = Edotaccent;
lastChange = "2023-02-01 16:10:23 +0000";
layers = (
{
background = {
anchors = (
{
name = ogonek;
position = "{749, 1}";
},
{
name = top;
position = "{608, 1464}";
}
);
paths = (
{
closed = 1;
nodes = (
"1143 0 LINE",
"1143 133 LINE",
"321 133 LINE",
"321 711 LINE",
"1027 711 LINE",
"1027 848 LINE",
"321 848 LINE",
"321 1331 LINE",
"1132 1331 LINE",
"1132 1464 LINE",
"146 1464 LINE",
"146 0 LINE"
);
},
{
closed = 1;
nodes = (
"684 1673 LINE",
"684 1898 LINE",
"510 1898 LINE",
"510 1673 LINE"
);
}
);
};
components = (
{
name = E;
},
{
name = dotaccent;
transform = "{1, 0, 0, 1, 380, 441}";
}
);
layerId = "8E6A00A3-5EF9-4E6D-9A7B-9C1BBC7D44AD";
vertWidth = 0;
width = 1216;
},
{
background = {
anchors = (
{
name = ogonek;
position = "{724, 0}";
},
{
name = top;
position = "{651, 1464}";
}
);
paths = (
{
closed = 1;
nodes = (
"1154 0 LINE",
"1154 154 LINE",
"344 154 LINE",
"344 700 LINE",
"1040 700 LINE",
"1040 857 LINE",
"344 857 LINE",
"344 1310 LINE",
"1143 1310 LINE",
"1143 1464 LINE",
"139 1464 LINE",
"139 0 LINE"
);
},
{
closed = 1;
nodes = (
"750 1674 LINE",
"750 1909 LINE",
"547 1909 LINE",
"547 1674 LINE"
);
}
);
};
components = (
{
name = E;
},
{
name = dotaccent;
transform = "{1, 0, 0, 1, 433, 441}";
}
);
layerId = "8DE4C137-4DC6-43A7-909D-C9F8072E6A1C";
vertWidth = 0;
width = 1225;
},
{
background = {
anchors = (
{
name = bot;
position = "{617, 0}";
},
{
name = ogonek;
position = "{726, 0}";
},
{
name = top;
position = "{617, 1464}";
}
);
paths = (
{
closed = 1;
nodes = (
"1164 0 LINE",
"1164 172 LINE",
"365 172 LINE",
"365 690 LINE",
"1052 690 LINE",
"1052 866 LINE",
"365 866 LINE",
"365 1292 LINE",
"1153 1292 LINE",
"1153 1464 LINE",
"134 1464 LINE",
"134 0 LINE"
);
},
{
closed = 1;
nodes = (
"724 1675 LINE",
"724 1919 LINE",
"495 1919 LINE",
"495 1675 LINE"
);
}
);
};
components = (
{
name = E;
},
{
name = dotaccent;
transform = "{1, 0, 0, 1, 395, 441}";
}
);
layerId = "28683A17-BAD2-44EA-B42B-E882FFDD4FE1";
vertWidth = 0;
width = 1234;
},
{
background = {
anchors = (
{
name = ogonek;
position = "{728, 0}";
},
{
name = top;
position = "{672, 1464}";
}
);
paths = (
{
closed = 1;
nodes = (
"1129 0 LINE",
"1129 107 LINE",
"292 107 LINE",
"292 726 LINE",
"1011 726 LINE",
"1011 836 LINE",
"292 836 LINE",
"292 1357 LINE",
"1118 1357 LINE",
"1118 1464 LINE",
"154 1464 LINE",
"154 0 LINE"
);
},
{
closed = 1;
nodes = (
"665 1672 LINE",
"665 1884 LINE",
"528 1884 LINE",
"528 1672 LINE"
);
}
);
};
components = (
{
name = E;
},
{
name = dotaccent;
transform = "{1, 0, 0, 1, 378, 441}";
}
);
layerId = "E322F6D1-BA90-436B-BB35-51D9BD3EA9D1";
vertWidth = 0;
width = 1204;
}
);
unicode = 0116;
},
{
glyphname = Egrave;
lastChange = "2023-02-01 16:10:23 +0000";
layers = (
{
background = {
anchors = (
{
name = ogonek;
position = "{749, 1}";
},
{
name = top;
position = "{608, 1464}";
}
);
paths = (
{
closed = 1;
nodes = (
"1143 0 LINE",
"1143 133 LINE",
"321 133 LINE",
"321 711 LINE",
"1027 711 LINE",
"1027 848 LINE",
"321 848 LINE",
"321 1331 LINE",
"1132 1331 LINE",
"1132 1464 LINE",
"146 1464 LINE",
"146 0 LINE"
);
},
{
closed = 1;
nodes = (
"729 1596 LINE",
"525 1915 LINE",
"292 1915 LINE",
"616 1595 LINE"
);
}
);
};
components = (
{
name = E;
},
{
name = grave;
transform = "{1, 0, 0, 1, 260, 441}";
}
);
layerId = "8E6A00A3-5EF9-4E6D-9A7B-9C1BBC7D44AD";
userData = {
com.typemytype.robofont.layerData = {
};
};
vertWidth = 0;
width = 1216;
},
{
background = {
anchors = (
{
name = ogonek;
position = "{724, 0}";
},
{
name = top;
position = "{651, 1464}";
}
);
paths = (
{
closed = 1;
nodes = (
"1154 0 LINE",
"1154 154 LINE",
"344 154 LINE",
"344 700 LINE",
"1040 700 LINE",
"1040 857 LINE",
"344 857 LINE",
"344 1310 LINE",
"1143 1310 LINE",
"1143 1464 LINE",
"139 1464 LINE",
"139 0 LINE"
);
},
{
closed = 1;
nodes = (
"884 1595 LINE",
"681 1915 LINE",
"410 1915 LINE",
"752 1595 LINE"
);
}
);
};
components = (
{
name = E;
},
{
name = grave;
transform = "{1, 0, 0, 1, 403, 441}";
}
);
layerId = "8DE4C137-4DC6-43A7-909D-C9F8072E6A1C";
userData = {
com.typemytype.robofont.layerData = {
};
};
vertWidth = 0;
width = 1225;
},
{
background = {
anchors = (
{
name = bot;
position = "{617, 0}";
},
{
name = ogonek;
position = "{726, 0}";
},
{
name = top;
position = "{617, 1464}";
}
);
paths = (
{
closed = 1;
nodes = (
"1164 0 LINE",
"1164 172 LINE",
"365 172 LINE",
"365 690 LINE",
"1052 690 LINE",
"1052 866 LINE",
"365 866 LINE",
"365 1292 LINE",
"1153 1292 LINE",
"1153 1464 LINE",
"134 1464 LINE",
"134 0 LINE"
);
},
{
closed = 1;
nodes = (
"711 1595 LINE",
"509 1915 LINE",
"205 1915 LINE",
"562 1595 LINE"
);
}
);
};
components = (
{
name = E;
},
{
name = grave;
transform = "{1, 0, 0, 1, 219, 441}";
}
);
layerId = "28683A17-BAD2-44EA-B42B-E882FFDD4FE1";
userData = {
com.typemytype.robofont.layerData = {
};
};
vertWidth = 0;
width = 1234;
},
{
background = {
anchors = (
{
name = ogonek;
position = "{728, 0}";
},
{
name = top;
position = "{672, 1464}";
}
);
paths = (
{
closed = 1;
nodes = (
"1129 0 LINE",
"1129 107 LINE",
"292 107 LINE",
"292 726 LINE",
"1011 726 LINE",
"1011 836 LINE",
"292 836 LINE",
"292 1357 LINE",
"1118 1357 LINE",
"1118 1464 LINE",
"154 1464 LINE",
"154 0 LINE"
);
},
{
closed = 1;
nodes = (
"698 1596 LINE",
"493 1915 LINE",
"307 1915 LINE",
"609 1595 LINE"
);
}
);
};
components = (
{
name = E;
},
{
name = grave;
transform = "{1, 0, 0, 1, 244, 441}";
}
);
layerId = "E322F6D1-BA90-436B-BB35-51D9BD3EA9D1";
userData = {
com.typemytype.robofont.layerData = {
b = {
anchors = (
);
components = (
);
contours = (
);
lib = {
};
name = Egrave;
unicodes = (
);
width = 1204;
};
};
};
vertWidth = 0;
width = 1204;
}
);
unicode = 00C8;
},
{
glyphname = Emacron;
lastChange = "2023-02-01 16:10:23 +0000";
layers = (
{
background = {
anchors = (
{
name = ogonek;
position = "{749, 1}";
},
{
name = top;
position = "{608, 1464}";
}
);
paths = (
{
closed = 1;
nodes = (
"1143 0 LINE",
"1143 133 LINE",
"321 133 LINE",
"321 711 LINE",
"1027 711 LINE",
"1027 848 LINE",
"321 848 LINE",
"321 1331 LINE",
"1132 1331 LINE",
"1132 1464 LINE",
"146 1464 LINE",
"146 0 LINE"
);
},
{
closed = 1;
nodes = (
"828 1668 LINE",
"828 1788 LINE",
"374 1788 LINE",
"374 1668 LINE"
);
}
);
};
components = (
{
name = E;
},
{
name = macron;
transform = "{1, 0, 0, 1, 236, 441}";
}
);
layerId = "8E6A00A3-5EF9-4E6D-9A7B-9C1BBC7D44AD";
userData = {
com.typemytype.robofont.layerData = {
};
};
vertWidth = 0;
width = 1216;
},
{
background = {
anchors = (
{
name = ogonek;
position = "{724, 0}";
},
{
name = top;
position = "{651, 1464}";
}
);
paths = (
{
closed = 1;
nodes = (
"1154 0 LINE",
"1154 154 LINE",
"344 154 LINE",
"344 700 LINE",
"1040 700 LINE",
"1040 857 LINE",
"344 857 LINE",
"344 1310 LINE",
"1143 1310 LINE",
"1143 1464 LINE",
"139 1464 LINE",
"139 0 LINE"
);
},
{
closed = 1;
nodes = (
"890 1635 LINE",
"890 1775 LINE",
"436 1775 LINE",
"436 1635 LINE"
);
}
);
};
components = (
{
name = E;
},
{
name = macron;
transform = "{1, 0, 0, 1, 289, 441}";
}
);
layerId = "8DE4C137-4DC6-43A7-909D-C9F8072E6A1C";
userData = {
com.typemytype.robofont.layerData = {
};
};
vertWidth = 0;
width = 1225;
},
{
background = {
anchors = (
{
name = bot;
position = "{617, 0}";
},
{
name = ogonek;
position = "{726, 0}";
},
{
name = top;
position = "{617, 1464}";
}
);
paths = (
{
closed = 1;
nodes = (
"1164 0 LINE",
"1164 172 LINE",
"365 172 LINE",
"365 690 LINE",
"1052 690 LINE",
"1052 866 LINE",
"365 866 LINE",
"365 1292 LINE",
"1153 1292 LINE",
"1153 1464 LINE",
"134 1464 LINE",
"134 0 LINE"
);
},
{
closed = 1;
nodes = (
"863 1607 LINE",
"863 1764 LINE",
"409 1764 LINE",
"409 1607 LINE"
);
}
);
};
components = (
{
name = E;
},
{
name = macron;
transform = "{1, 0, 0, 1, 255, 441}";
}
);
layerId = "28683A17-BAD2-44EA-B42B-E882FFDD4FE1";
userData = {
com.typemytype.robofont.layerData = {
};
};
vertWidth = 0;
width = 1234;
},
{
background = {
anchors = (
{
name = ogonek;
position = "{728, 0}";
},
{
name = top;
position = "{672, 1464}";
}
);
paths = (
{
closed = 1;
nodes = (
"1129 0 LINE",
"1129 107 LINE",
"292 107 LINE",
"292 726 LINE",
"1011 726 LINE",
"1011 836 LINE",
"292 836 LINE",
"292 1357 LINE",
"1118 1357 LINE",
"1118 1464 LINE",
"154 1464 LINE",
"154 0 LINE"
);
},
{
closed = 1;
nodes = (
"822 1708 LINE",
"822 1803 LINE",
"368 1803 LINE",
"368 1708 LINE"
);
}
);
};
components = (
{
name = E;
},
{
name = macron;
transform = "{1, 0, 0, 1, 240, 441}";
}
);
layerId = "E322F6D1-BA90-436B-BB35-51D9BD3EA9D1";
userData = {
com.typemytype.robofont.layerData = {
b = {
anchors = (
);
components = (
);
contours = (
);
lib = {
};
name = Emacron;
unicodes = (
);
width = 1204;
};
};
};
vertWidth = 0;
width = 1204;
}
);
unicode = 0112;
},
{
glyphname = Eogonek;
lastChange = "2023-02-01 16:10:23 +0000";
layers = (
{
background = {
anchors = (
{
name = ogonek;
position = "{749, 1}";
},
{
name = top;
position = "{608, 1464}";
}
);
paths = (
{
closed = 1;
nodes = (
"1143 0 LINE",
"1143 133 LINE",
"321 133 LINE",
"321 711 LINE",
"1027 711 LINE",
"1027 848 LINE",
"321 848 LINE",
"321 1331 LINE",
"1132 1331 LINE",
"1132 1464 LINE",
"146 1464 LINE",
"146 0 LINE"
);
},
{
closed = 1;
nodes = (
"766 -378 OFFCURVE",
"794 -375 OFFCURVE",
"825 -367 CURVE",
"825 -271 LINE",
"808 -275 OFFCURVE",
"794 -277 OFFCURVE",
"781 -277 CURVE SMOOTH",
"733 -277 OFFCURVE",
"717 -249 OFFCURVE",
"717 -211 CURVE SMOOTH",
"717 -153 OFFCURVE",
"756 -76 OFFCURVE",
"790 1 CURVE",
"707 1 LINE",
"643 -79 OFFCURVE",
"576 -161 OFFCURVE",
"576 -243 CURVE SMOOTH",
"576 -308 OFFCURVE",
"627 -378 OFFCURVE",
"740 -378 CURVE SMOOTH"
);
}
);
};
components = (
{
name = E;
},
{
name = ogonek;
transform = "{1, 0, 0, 1, 459, 1}";
}
);
layerId = "8E6A00A3-5EF9-4E6D-9A7B-9C1BBC7D44AD";
userData = {
com.typemytype.robofont.layerData = {
};
};
vertWidth = 0;
width = 1216;
},
{
background = {
anchors = (
{
name = ogonek;
position = "{724, 0}";
},
{
name = top;
position = "{651, 1464}";
}
);
paths = (
{
closed = 1;
nodes = (
"1154 0 LINE",
"1154 154 LINE",
"344 154 LINE",
"344 700 LINE",
"1040 700 LINE",
"1040 857 LINE",
"344 857 LINE",
"344 1310 LINE",
"1143 1310 LINE",
"1143 1464 LINE",
"139 1464 LINE",
"139 0 LINE"
);
},
{
closed = 1;
nodes = (
"747 -387 OFFCURVE",
"777 -383 OFFCURVE",
"811 -375 CURVE",
"811 -264 LINE",
"794 -268 OFFCURVE",
"780 -270 OFFCURVE",
"768 -270 CURVE SMOOTH",
"720 -270 OFFCURVE",
"706 -242 OFFCURVE",
"706 -205 CURVE SMOOTH",
"706 -147 OFFCURVE",
"737 -80 OFFCURVE",
"772 0 CURVE",
"677 0 LINE",
"614 -72 OFFCURVE",
"542 -156 OFFCURVE",
"542 -243 CURVE SMOOTH",
"542 -308 OFFCURVE",
"595 -387 OFFCURVE",
"720 -387 CURVE SMOOTH"
);
}
);
};
components = (
{
name = E;
},
{
name = ogonek;
transform = "{1, 0, 0, 1, 425, 0}";
}
);
layerId = "8DE4C137-4DC6-43A7-909D-C9F8072E6A1C";
userData = {
com.typemytype.robofont.layerData = {
};
};
vertWidth = 0;
width = 1225;
},
{
background = {
anchors = (
{
name = bot;
position = "{617, 0}";
},
{
name = ogonek;
position = "{726, 0}";
},
{
name = top;
position = "{617, 1464}";
}
);
paths = (
{
closed = 1;
nodes = (
"1164 0 LINE",
"1164 172 LINE",
"365 172 LINE",
"365 690 LINE",
"1052 690 LINE",
"1052 866 LINE",
"365 866 LINE",
"365 1292 LINE",
"1153 1292 LINE",
"1153 1464 LINE",
"134 1464 LINE",
"134 0 LINE"
);
},
{
closed = 1;
nodes = (
"824 -257 LINE",
"741 -276 OFFCURVE",
"721 -244 OFFCURVE",
"721 -199 CURVE SMOOTH",
"721 -141 OFFCURVE",
"746 -83 OFFCURVE",
"781 0 CURVE",
"676 0 LINE",
"613 -65 OFFCURVE",
"537 -151 OFFCURVE",
"537 -241 CURVE SMOOTH",
"537 -321 OFFCURVE",
"616 -431 OFFCURVE",
"824 -382 CURVE"
);
}
);
};
components = (
{
name = E;
},
{
name = ogonek;
transform = "{1, 0, 0, 1, 420, 0}";
}
);
layerId = "28683A17-BAD2-44EA-B42B-E882FFDD4FE1";
userData = {
com.typemytype.robofont.layerData = {
};
};
vertWidth = 0;
width = 1234;
},
{
background = {
anchors = (
{
name = ogonek;
position = "{728, 0}";
},
{
name = top;
position = "{672, 1464}";
}
);
paths = (
{
closed = 1;
nodes = (
"1129 0 LINE",
"1129 107 LINE",
"292 107 LINE",
"292 726 LINE",
"1011 726 LINE",
"1011 836 LINE",
"292 836 LINE",
"292 1357 LINE",
"1118 1357 LINE",
"1118 1464 LINE",
"154 1464 LINE",
"154 0 LINE"
);
},
{
closed = 1;
nodes = (
"735 -369 OFFCURVE",
"761 -366 OFFCURVE",
"789 -359 CURVE",
"789 -282 LINE",
"772 -286 OFFCURVE",
"757 -288 OFFCURVE",
"745 -288 CURVE SMOOTH",
"695 -288 OFFCURVE",
"677 -260 OFFCURVE",
"677 -221 CURVE SMOOTH",
"677 -163 OFFCURVE",
"725 -73 OFFCURVE",
"759 0 CURVE",
"691 0 LINE",
"625 -91 OFFCURVE",
"565 -168 OFFCURVE",
"565 -246 CURVE SMOOTH",
"565 -309 OFFCURVE",
"613 -369 OFFCURVE",
"713 -369 CURVE SMOOTH"
);
}
);
};
components = (
{
name = E;
},
{
name = ogonek;
transform = "{1, 0, 0, 1, 448, 0}";
}
);
layerId = "E322F6D1-BA90-436B-BB35-51D9BD3EA9D1";
userData = {
com.typemytype.robofont.layerData = {
b = {
anchors = (
);
components = (
);
contours = (
);
lib = {
};
name = Eogonek;
unicodes = (
);
width = 1143;
};
};
};
vertWidth = 0;
width = 1204;
}
);
unicode = 0118;
},
{
glyphname = F;
lastChange = "2023-02-01 16:10:13 +0000";
layers = (
{
anchors = (
{
name = top;
position = "{596, 1464}";
}
);
background = {
anchors = (
{
name = top;
position = "{596, 1464}";
}
);
paths = (
{
closed = 1;
nodes = (
"321 0 LINE",
"321 702 LINE",
"1028 702 LINE",
"1028 838 LINE",
"321 838 LINE",
"321 1331 LINE",
"1137 1331 LINE",
"1137 1464 LINE",
"146 1464 LINE",
"146 0 LINE"
);
}
);
};
layerId = "8E6A00A3-5EF9-4E6D-9A7B-9C1BBC7D44AD";
paths = (
{
closed = 1;
nodes = (
"321 0 LINE",
"321 702 LINE",
"1028 702 LINE",
"1028 838 LINE",
"321 838 LINE",
"321 1331 LINE",
"1137 1331 LINE",
"1137 1464 LINE",
"146 1464 LINE",
"146 0 LINE"
);
}
);
userData = {
anchors = (
);
b = {
};
com.typemytype.robofont.layerData = {
};
components = (
);
contours = {
};
lib = {
};
name = F;
points = {
};
segmentType = line;
unicodes = (
);
width = "1178.66666667";
x = "1117";
y = "1464";
};
vertWidth = 0;
width = 1192;
},
{
anchors = (
{
name = top;
position = "{673, 1464}";
}
);
background = {
anchors = (
{
name = top;
position = "{673, 1464}";
}
);
paths = (
{
closed = 1;
nodes = (
"344 0 LINE",
"344 689 LINE",
"1043 689 LINE",
"1043 846 LINE",
"344 846 LINE",
"344 1310 LINE",
"1154 1310 LINE",
"1154 1464 LINE",
"139 1464 LINE",
"139 0 LINE"
);
}
);
};
layerId = "8DE4C137-4DC6-43A7-909D-C9F8072E6A1C";
paths = (
{
closed = 1;
nodes = (
"344 0 LINE",
"344 689 LINE",
"1043 689 LINE",
"1043 846 LINE",
"344 846 LINE",
"344 1310 LINE",
"1154 1310 LINE",
"1154 1464 LINE",
"139 1464 LINE",
"139 0 LINE"
);
}
);
userData = {
anchors = (
);
b = {
};
com.typemytype.robofont.layerData = {
};
components = (
);
contours = {
};
lib = {
};
name = F;
points = {
};
segmentType = line;
unicodes = (
);
width = "1178.66666667";
x = "1117";
y = "1464";
};
vertWidth = 0;
width = 1201;
},
{
anchors = (
{
name = bot;
position = "{604, 0}";
},
{
name = top;
position = "{604, 1464}";
}
);
background = {
anchors = (
{
name = bot;
position = "{604, 0}";
},
{
name = top;
position = "{604, 1464}";
}
);
paths = (
{
closed = 1;
nodes = (
"365 0 LINE",
"365 677 LINE",
"1056 677 LINE",
"1056 853 LINE",
"365 853 LINE",
"365 1292 LINE",
"1168 1292 LINE",
"1168 1464 LINE",
"134 1464 LINE",
"134 0 LINE"
);
}
);
};
layerId = "28683A17-BAD2-44EA-B42B-E882FFDD4FE1";
paths = (
{
closed = 1;
nodes = (
"365 0 LINE",
"365 677 LINE",
"1056 677 LINE",
"1056 853 LINE",
"365 853 LINE",
"365 1292 LINE",
"1168 1292 LINE",
"1168 1464 LINE",
"134 1464 LINE",
"134 0 LINE"
);
}
);
userData = {
anchors = (
);
b = {
};
com.typemytype.robofont.layerData = {
};
components = (
);
contours = {
};
lib = {
};
name = F;
points = {
};
segmentType = line;
unicodes = (
);
width = "1178.66666667";
x = "1117";
y = "1464";
};
vertWidth = 0;
width = 1208;
},
{
anchors = (
{
name = top;
position = "{590, 1464}";
}
);
background = {
anchors = (
{
name = top;
position = "{590, 1464}";
}
);
paths = (
{
closed = 1;
nodes = (
"292 0 LINE",
"292 719 LINE",
"1009 719 LINE",
"1009 828 LINE",
"292 828 LINE",
"292 1357 LINE",
"1117 1357 LINE",
"1117 1464 LINE",
"154 1464 LINE",
"154 0 LINE"
);
}
);
};
layerId = "E322F6D1-BA90-436B-BB35-51D9BD3EA9D1";
paths = (
{
closed = 1;
nodes = (
"292 0 LINE",
"292 719 LINE",
"1009 719 LINE",
"1009 828 LINE",
"292 828 LINE",
"292 1357 LINE",
"1117 1357 LINE",
"1117 1464 LINE",
"154 1464 LINE",
"154 0 LINE"
);
}
);
userData = {
anchors = (
);
b = {
};
com.typemytype.robofont.layerData = {
b = {
anchors = (
);
components = (
);
contours = (
);
lib = {
};
name = F;
unicodes = (
);
width = 1180;
};
};
components = (
);
contours = {
};
lib = {
};
name = F;
points = {
};
segmentType = line;
unicodes = (
);
width = "1178.66666667";
x = "1117";
y = "1464";
};
vertWidth = 0;
width = 1180;
}
);
unicode = 0046;
},
{
glyphname = G;
lastChange = "2023-02-01 16:10:13 +0000";
layers = (
{
anchors = (
{
name = top;
position = "{703.5, 1464}";
}
);
background = {
anchors = (
{
name = top;
position = "{703.5, 1464}";
}
);
paths = (
{
closed = 1;
nodes = (
"918 -25 OFFCURVE",
"1055 53 OFFCURVE",
"1118 166 CURVE",
"1153 0 LINE",
"1268 0 LINE",
"1268 0 OFFCURVE",
"1278 428 OFFCURVE",
"1278 581 CURVE SMOOTH",
"1278 803 LINE",
"758 803 LINE",
"758 653 LINE",
"1104 653 LINE",
"1104 447 LINE SMOOTH",
"1104 220 OFFCURVE",
"918 116 OFFCURVE",
"752 116 CURVE SMOOTH",
"438 116 OFFCURVE",
"301 318 OFFCURVE",
"301 721 CURVE SMOOTH",
"301 1149 OFFCURVE",
"426 1350 OFFCURVE",
"747 1350 CURVE SMOOTH",
"931 1350 OFFCURVE",
"1054 1256 OFFCURVE",
"1121 1074 CURVE",
"1273 1126 LINE",
"1189 1363 OFFCURVE",
"1018 1490 OFFCURVE",
"750 1490 CURVE SMOOTH",
"366 1490 OFFCURVE",
"116 1278 OFFCURVE",
"116 722 CURVE SMOOTH",
"116 166 OFFCURVE",
"388 -25 OFFCURVE",
"734 -25 CURVE SMOOTH"
);
}
);
};
layerId = "8E6A00A3-5EF9-4E6D-9A7B-9C1BBC7D44AD";
paths = (
{
closed = 1;
nodes = (
"918 -25 OFFCURVE",
"1055 53 OFFCURVE",
"1118 166 CURVE",
"1153 0 LINE",
"1268 0 LINE",
"1268 0 OFFCURVE",
"1278 428 OFFCURVE",
"1278 581 CURVE SMOOTH",
"1278 803 LINE",
"758 803 LINE",
"758 653 LINE",
"1104 653 LINE",
"1104 447 LINE SMOOTH",
"1104 220 OFFCURVE",
"918 116 OFFCURVE",
"752 116 CURVE SMOOTH",
"438 116 OFFCURVE",
"301 318 OFFCURVE",
"301 721 CURVE SMOOTH",
"301 1149 OFFCURVE",
"426 1350 OFFCURVE",
"747 1350 CURVE SMOOTH",
"931 1350 OFFCURVE",
"1054 1256 OFFCURVE",
"1121 1074 CURVE",
"1273 1126 LINE",
"1189 1363 OFFCURVE",
"1018 1490 OFFCURVE",
"750 1490 CURVE SMOOTH",
"366 1490 OFFCURVE",
"116 1278 OFFCURVE",
"116 722 CURVE SMOOTH",
"116 166 OFFCURVE",
"388 -25 OFFCURVE",
"734 -25 CURVE SMOOTH"
);
}
);
userData = {
com.typemytype.robofont.layerData = {
};
};
vertWidth = 0;
width = 1407;
},
{
anchors = (
{
name = top;
position = "{745, 1464}";
}
);
background = {
anchors = (
{
name = top;
position = "{745, 1464}";
}
);
paths = (
{
closed = 1;
nodes = (
"926 -24 OFFCURVE",
"1051 48 OFFCURVE",
"1113 147 CURVE",
"1154 0 LINE",
"1287 0 LINE",
"1287 0 OFFCURVE",
"1297 428 OFFCURVE",
"1297 581 CURVE SMOOTH",
"1297 817 LINE",
"775 817 LINE",
"775 642 LINE",
"1095 642 LINE",
"1095 450 LINE SMOOTH",
"1095 237 OFFCURVE",
"926 139 OFFCURVE",
"760 139 CURVE SMOOTH",
"469 139 OFFCURVE",
"331 317 OFFCURVE",
"331 721 CURVE SMOOTH",
"331 1149 OFFCURVE",
"441 1325 OFFCURVE",
"750 1325 CURVE SMOOTH",
"936 1325 OFFCURVE",
"1052 1237 OFFCURVE",
"1120 1053 CURVE",
"1298 1113 LINE",
"1216 1352 OFFCURVE",
"1047 1489 OFFCURVE",
"755 1489 CURVE SMOOTH",
"361 1489 OFFCURVE",
"115 1285 OFFCURVE",
"115 722 CURVE SMOOTH",
"115 165 OFFCURVE",
"391 -24 OFFCURVE",
"742 -24 CURVE SMOOTH"
);
}
);
};
layerId = "8DE4C137-4DC6-43A7-909D-C9F8072E6A1C";
paths = (
{
closed = 1;
nodes = (
"926 -24 OFFCURVE",
"1051 48 OFFCURVE",
"1113 147 CURVE",
"1154 0 LINE",
"1287 0 LINE",
"1287 0 OFFCURVE",
"1297 428 OFFCURVE",
"1297 581 CURVE SMOOTH",
"1297 817 LINE",
"775 817 LINE",
"775 642 LINE",
"1095 642 LINE",
"1095 450 LINE SMOOTH",
"1095 237 OFFCURVE",
"926 139 OFFCURVE",
"760 139 CURVE SMOOTH",
"469 139 OFFCURVE",
"331 317 OFFCURVE",
"331 721 CURVE SMOOTH",
"331 1149 OFFCURVE",
"441 1325 OFFCURVE",
"750 1325 CURVE SMOOTH",
"936 1325 OFFCURVE",
"1052 1237 OFFCURVE",
"1120 1053 CURVE",
"1298 1113 LINE",
"1216 1352 OFFCURVE",
"1047 1489 OFFCURVE",
"755 1489 CURVE SMOOTH",
"361 1489 OFFCURVE",
"115 1285 OFFCURVE",
"115 722 CURVE SMOOTH",
"115 165 OFFCURVE",
"391 -24 OFFCURVE",
"742 -24 CURVE SMOOTH"
);
}
);
userData = {
com.typemytype.robofont.layerData = {
};
};
vertWidth = 0;
width = 1421;
},
{
anchors = (
{
name = bot;
position = "{716.5, 0}";
},
{
name = top;
position = "{716.5, 1464}";
}
);
background = {
anchors = (
{
name = bot;
position = "{716.5, 0}";
},
{
name = top;
position = "{716.5, 1464}";
}
);
paths = (
{
closed = 1;
nodes = (
"933 -24 OFFCURVE",
"1048 44 OFFCURVE",
"1109 131 CURVE",
"1156 0 LINE",
"1304 0 LINE",
"1304 0 OFFCURVE",
"1314 428 OFFCURVE",
"1314 581 CURVE SMOOTH",
"1314 829 LINE",
"789 829 LINE",
"789 632 LINE",
"1086 632 LINE",
"1086 453 LINE SMOOTH",
"1086 251 OFFCURVE",
"933 159 OFFCURVE",
"767 159 CURVE SMOOTH",
"497 159 OFFCURVE",
"357 316 OFFCURVE",
"357 721 CURVE SMOOTH",
"357 1149 OFFCURVE",
"455 1304 OFFCURVE",
"753 1304 CURVE SMOOTH",
"941 1304 OFFCURVE",
"1050 1220 OFFCURVE",
"1118 1035 CURVE",
"1319 1102 LINE",
"1239 1343 OFFCURVE",
"1073 1488 OFFCURVE",
"760 1488 CURVE SMOOTH",
"357 1488 OFFCURVE",
"113 1291 OFFCURVE",
"113 722 CURVE SMOOTH",
"113 163 OFFCURVE",
"393 -24 OFFCURVE",
"749 -24 CURVE SMOOTH"
);
}
);
};
layerId = "28683A17-BAD2-44EA-B42B-E882FFDD4FE1";
paths = (
{
closed = 1;
nodes = (
"933 -24 OFFCURVE",
"1048 44 OFFCURVE",
"1109 131 CURVE",
"1156 0 LINE",
"1304 0 LINE",
"1304 0 OFFCURVE",
"1314 428 OFFCURVE",
"1314 581 CURVE SMOOTH",
"1314 829 LINE",
"789 829 LINE",
"789 632 LINE",
"1086 632 LINE",
"1086 453 LINE SMOOTH",
"1086 251 OFFCURVE",
"933 159 OFFCURVE",
"767 159 CURVE SMOOTH",
"497 159 OFFCURVE",
"357 316 OFFCURVE",
"357 721 CURVE SMOOTH",
"357 1149 OFFCURVE",
"455 1304 OFFCURVE",
"753 1304 CURVE SMOOTH",
"941 1304 OFFCURVE",
"1050 1220 OFFCURVE",
"1118 1035 CURVE",
"1319 1102 LINE",
"1239 1343 OFFCURVE",
"1073 1488 OFFCURVE",
"760 1488 CURVE SMOOTH",
"357 1488 OFFCURVE",
"113 1291 OFFCURVE",
"113 722 CURVE SMOOTH",
"113 163 OFFCURVE",
"393 -24 OFFCURVE",
"749 -24 CURVE SMOOTH"
);
}
);
userData = {
com.typemytype.robofont.layerData = {
};
};
vertWidth = 0;
width = 1433;
},
{
anchors = (
{
name = top;
position = "{695, 1464}";
}
);
background = {
anchors = (
{
name = top;
position = "{695, 1464}";
}
);
paths = (
{
closed = 1;
nodes = (
"908 -25 OFFCURVE",
"1060 59 OFFCURVE",
"1124 189 CURVE",
"1151 0 LINE",
"1243 0 LINE",
"1243 0 OFFCURVE",
"1253 428 OFFCURVE",
"1253 581 CURVE SMOOTH",
"1253 786 LINE",
"738 786 LINE",
"738 667 LINE",
"1116 667 LINE",
"1116 443 LINE SMOOTH",
"1116 199 OFFCURVE",
"908 87 OFFCURVE",
"742 87 CURVE SMOOTH",
"398 87 OFFCURVE",
"264 319 OFFCURVE",
"264 721 CURVE SMOOTH",
"264 1149 OFFCURVE",
"406 1380 OFFCURVE",
"743 1380 CURVE SMOOTH",
"924 1380 OFFCURVE",
"1057 1281 OFFCURVE",
"1123 1100 CURVE",
"1243 1142 LINE",
"1156 1377 OFFCURVE",
"982 1491 OFFCURVE",
"744 1491 CURVE SMOOTH",
"371 1491 OFFCURVE",
"118 1269 OFFCURVE",
"118 722 CURVE SMOOTH",
"118 168 OFFCURVE",
"384 -25 OFFCURVE",
"724 -25 CURVE SMOOTH"
);
}
);
};
layerId = "E322F6D1-BA90-436B-BB35-51D9BD3EA9D1";
paths = (
{
closed = 1;
nodes = (
"908 -25 OFFCURVE",
"1060 59 OFFCURVE",
"1124 189 CURVE",
"1151 0 LINE",
"1243 0 LINE",
"1243 0 OFFCURVE",
"1253 428 OFFCURVE",
"1253 581 CURVE SMOOTH",
"1253 786 LINE",
"738 786 LINE",
"738 667 LINE",
"1116 667 LINE",
"1116 443 LINE SMOOTH",
"1116 199 OFFCURVE",
"908 87 OFFCURVE",
"742 87 CURVE SMOOTH",
"398 87 OFFCURVE",
"264 319 OFFCURVE",
"264 721 CURVE SMOOTH",
"264 1149 OFFCURVE",
"406 1380 OFFCURVE",
"743 1380 CURVE SMOOTH",
"924 1380 OFFCURVE",
"1057 1281 OFFCURVE",
"1123 1100 CURVE",
"1243 1142 LINE",
"1156 1377 OFFCURVE",
"982 1491 OFFCURVE",
"744 1491 CURVE SMOOTH",
"371 1491 OFFCURVE",
"118 1269 OFFCURVE",
"118 722 CURVE SMOOTH",
"118 168 OFFCURVE",
"384 -25 OFFCURVE",
"724 -25 CURVE SMOOTH"
);
}
);
userData = {
com.typemytype.robofont.layerData = {
b = {
anchors = (
);
components = (
);
contours = (
);
lib = {
};
name = G;
unicodes = (
);
width = 1390;
};
};
};
vertWidth = 0;
width = 1390;
}
);
unicode = 0047;
},
{
glyphname = Gbreve;
lastChange = "2023-02-01 16:10:23 +0000";
layers = (
{
background = {
anchors = (
{
name = top;
position = "{703.5, 1464}";
}
);
paths = (
{
closed = 1;
nodes = (
"918 -25 OFFCURVE",
"1055 53 OFFCURVE",
"1118 166 CURVE",
"1153 0 LINE",
"1268 0 LINE",
"1268 0 OFFCURVE",
"1278 428 OFFCURVE",
"1278 581 CURVE SMOOTH",
"1278 803 LINE",
"758 803 LINE",
"758 653 LINE",
"1104 653 LINE",
"1104 447 LINE SMOOTH",
"1104 220 OFFCURVE",
"918 116 OFFCURVE",
"752 116 CURVE SMOOTH",
"438 116 OFFCURVE",
"301 318 OFFCURVE",
"301 721 CURVE SMOOTH",
"301 1149 OFFCURVE",
"426 1350 OFFCURVE",
"747 1350 CURVE SMOOTH",
"931 1350 OFFCURVE",
"1054 1256 OFFCURVE",
"1121 1074 CURVE",
"1273 1126 LINE",
"1189 1363 OFFCURVE",
"1018 1490 OFFCURVE",
"750 1490 CURVE SMOOTH",
"366 1490 OFFCURVE",
"116 1278 OFFCURVE",
"116 722 CURVE SMOOTH",
"116 166 OFFCURVE",
"388 -25 OFFCURVE",
"734 -25 CURVE SMOOTH"
);
},
{
closed = 1;
nodes = (
"844 1666 OFFCURVE",
"974 1741 OFFCURVE",
"978 1929 CURVE",
"840 1929 LINE",
"840 1838 OFFCURVE",
"799 1790 OFFCURVE",
"701 1790 CURVE SMOOTH",
"604 1790 OFFCURVE",
"563 1838 OFFCURVE",
"563 1929 CURVE",
"424 1929 LINE",
"428 1741 OFFCURVE",
"558 1666 OFFCURVE",
"701 1666 CURVE SMOOTH"
);
}
);
};
components = (
{
name = G;
},
{
name = breve;
transform = "{1, 0, 0, 1, 301, 441}";
}
);
layerId = "8E6A00A3-5EF9-4E6D-9A7B-9C1BBC7D44AD";
userData = {
com.typemytype.robofont.layerData = {
};
};
vertWidth = 0;
width = 1407;
},
{
background = {
anchors = (
{
name = top;
position = "{745, 1464}";
}
);
paths = (
{
closed = 1;
nodes = (
"926 -24 OFFCURVE",
"1051 48 OFFCURVE",
"1113 147 CURVE",
"1154 0 LINE",
"1287 0 LINE",
"1287 0 OFFCURVE",
"1297 428 OFFCURVE",
"1297 581 CURVE SMOOTH",
"1297 817 LINE",
"775 817 LINE",
"775 642 LINE",
"1095 642 LINE",
"1095 450 LINE SMOOTH",
"1095 237 OFFCURVE",
"926 139 OFFCURVE",
"760 139 CURVE SMOOTH",
"469 139 OFFCURVE",
"331 317 OFFCURVE",
"331 721 CURVE SMOOTH",
"331 1149 OFFCURVE",
"441 1325 OFFCURVE",
"750 1325 CURVE SMOOTH",
"936 1325 OFFCURVE",
"1052 1237 OFFCURVE",
"1120 1053 CURVE",
"1298 1113 LINE",
"1216 1352 OFFCURVE",
"1047 1489 OFFCURVE",
"755 1489 CURVE SMOOTH",
"361 1489 OFFCURVE",
"115 1285 OFFCURVE",
"115 722 CURVE SMOOTH",
"115 165 OFFCURVE",
"391 -24 OFFCURVE",
"742 -24 CURVE SMOOTH"
);
},
{
closed = 1;
nodes = (
"883 1648 OFFCURVE",
"1019 1724 OFFCURVE",
"1023 1920 CURVE",
"861 1920 LINE",
"861 1845 OFFCURVE",
"840 1793 OFFCURVE",
"744 1793 CURVE SMOOTH",
"649 1793 OFFCURVE",
"628 1845 OFFCURVE",
"628 1920 CURVE",
"466 1920 LINE",
"470 1724 OFFCURVE",
"605 1648 OFFCURVE",
"744 1648 CURVE SMOOTH"
);
}
);
};
components = (
{
name = G;
},
{
name = breve;
transform = "{1, 0, 0, 1, 343, 441}";
}
);
layerId = "8DE4C137-4DC6-43A7-909D-C9F8072E6A1C";
userData = {
com.typemytype.robofont.layerData = {
};
};
vertWidth = 0;
width = 1421;
},
{
background = {
anchors = (
{
name = bot;
position = "{716.5, 0}";
},
{
name = top;
position = "{716.5, 1464}";
}
);
paths = (
{
closed = 1;
nodes = (
"933 -24 OFFCURVE",
"1048 44 OFFCURVE",
"1109 131 CURVE",
"1156 0 LINE",
"1304 0 LINE",
"1304 0 OFFCURVE",
"1314 428 OFFCURVE",
"1314 581 CURVE SMOOTH",
"1314 829 LINE",
"789 829 LINE",
"789 632 LINE",
"1086 632 LINE",
"1086 453 LINE SMOOTH",
"1086 251 OFFCURVE",
"933 159 OFFCURVE",
"767 159 CURVE SMOOTH",
"497 159 OFFCURVE",
"357 316 OFFCURVE",
"357 721 CURVE SMOOTH",
"357 1149 OFFCURVE",
"455 1304 OFFCURVE",
"753 1304 CURVE SMOOTH",
"941 1304 OFFCURVE",
"1050 1220 OFFCURVE",
"1118 1035 CURVE",
"1319 1102 LINE",
"1239 1343 OFFCURVE",
"1073 1488 OFFCURVE",
"760 1488 CURVE SMOOTH",
"357 1488 OFFCURVE",
"113 1291 OFFCURVE",
"113 722 CURVE SMOOTH",
"113 163 OFFCURVE",
"393 -24 OFFCURVE",
"749 -24 CURVE SMOOTH"
);
},
{
closed = 1;
nodes = (
"852 1632 OFFCURVE",
"992 1708 OFFCURVE",
"996 1911 CURVE",
"814 1911 LINE",
"814 1850 OFFCURVE",
"810 1795 OFFCURVE",
"716 1795 CURVE SMOOTH",
"623 1795 OFFCURVE",
"619 1850 OFFCURVE",
"619 1911 CURVE",
"437 1911 LINE",
"441 1708 OFFCURVE",
"581 1632 OFFCURVE",
"716 1632 CURVE SMOOTH"
);
}
);
};
components = (
{
name = G;
},
{
name = breve;
transform = "{1, 0, 0, 1, 314, 441}";
}
);
layerId = "28683A17-BAD2-44EA-B42B-E882FFDD4FE1";
userData = {
com.typemytype.robofont.layerData = {
};
};
vertWidth = 0;
width = 1433;
},
{
background = {
anchors = (
{
name = top;
position = "{695, 1464}";
}
);
paths = (
{
closed = 1;
nodes = (
"908 -25 OFFCURVE",
"1060 59 OFFCURVE",
"1124 189 CURVE",
"1151 0 LINE",
"1243 0 LINE",
"1243 0 OFFCURVE",
"1253 428 OFFCURVE",
"1253 581 CURVE SMOOTH",
"1253 786 LINE",
"738 786 LINE",
"738 667 LINE",
"1116 667 LINE",
"1116 443 LINE SMOOTH",
"1116 199 OFFCURVE",
"908 87 OFFCURVE",
"742 87 CURVE SMOOTH",
"398 87 OFFCURVE",
"264 319 OFFCURVE",
"264 721 CURVE SMOOTH",
"264 1149 OFFCURVE",
"406 1380 OFFCURVE",
"743 1380 CURVE SMOOTH",
"924 1380 OFFCURVE",
"1057 1281 OFFCURVE",
"1123 1100 CURVE",
"1243 1142 LINE",
"1156 1377 OFFCURVE",
"982 1491 OFFCURVE",
"744 1491 CURVE SMOOTH",
"371 1491 OFFCURVE",
"118 1269 OFFCURVE",
"118 722 CURVE SMOOTH",
"118 168 OFFCURVE",
"384 -25 OFFCURVE",
"724 -25 CURVE SMOOTH"
);
},
{
closed = 1;
nodes = (
"840 1689 OFFCURVE",
"963 1763 OFFCURVE",
"967 1941 CURVE",
"857 1941 LINE",
"857 1830 OFFCURVE",
"792 1786 OFFCURVE",
"692 1786 CURVE SMOOTH",
"592 1786 OFFCURVE",
"526 1830 OFFCURVE",
"526 1941 CURVE",
"416 1941 LINE",
"420 1763 OFFCURVE",
"544 1689 OFFCURVE",
"692 1689 CURVE SMOOTH"
);
}
);
};
components = (
{
name = G;
},
{
name = breve;
transform = "{1, 0, 0, 1, 293, 441}";
}
);
layerId = "E322F6D1-BA90-436B-BB35-51D9BD3EA9D1";
userData = {
com.typemytype.robofont.layerData = {
b = {
anchors = (
);
components = (
);
contours = (
);
lib = {
};
name = Gbreve;
unicodes = (
);
width = 1390;
};
};
};
vertWidth = 0;
width = 1390;
}
);
unicode = 011E;
},
{
glyphname = Gcaron;
lastChange = "2023-02-01 16:10:23 +0000";
layers = (
{
background = {
anchors = (
{
name = top;
position = "{703.5, 1464}";
}
);
paths = (
{
closed = 1;
nodes = (
"918 -25 OFFCURVE",
"1055 53 OFFCURVE",
"1118 166 CURVE",
"1153 0 LINE",
"1268 0 LINE",
"1268 0 OFFCURVE",
"1278 428 OFFCURVE",
"1278 581 CURVE SMOOTH",
"1278 803 LINE",
"758 803 LINE",
"758 653 LINE",
"1104 653 LINE",
"1104 447 LINE SMOOTH",
"1104 220 OFFCURVE",
"918 116 OFFCURVE",
"752 116 CURVE SMOOTH",
"438 116 OFFCURVE",
"301 318 OFFCURVE",
"301 721 CURVE SMOOTH",
"301 1149 OFFCURVE",
"426 1350 OFFCURVE",
"747 1350 CURVE SMOOTH",
"931 1350 OFFCURVE",
"1054 1256 OFFCURVE",
"1121 1074 CURVE",
"1273 1126 LINE",
"1189 1363 OFFCURVE",
"1018 1490 OFFCURVE",
"750 1490 CURVE SMOOTH",
"366 1490 OFFCURVE",
"116 1278 OFFCURVE",
"116 722 CURVE SMOOTH",
"116 166 OFFCURVE",
"388 -25 OFFCURVE",
"734 -25 CURVE SMOOTH"
);
},
{
closed = 1;
nodes = (
"813 1595 LINE",
"986 1915 LINE",
"871 1915 LINE",
"709 1676 LINE",
"548 1915 LINE",
"433 1915 LINE",
"606 1595 LINE"
);
}
);
};
components = (
{
name = G;
},
{
name = caron;
transform = "{1, 0, 0, 1, 285, 441}";
}
);
layerId = "8E6A00A3-5EF9-4E6D-9A7B-9C1BBC7D44AD";
vertWidth = 0;
width = 1407;
},
{
background = {
anchors = (
{
name = top;
position = "{745, 1464}";
}
);
paths = (
{
closed = 1;
nodes = (
"926 -24 OFFCURVE",
"1051 48 OFFCURVE",
"1113 147 CURVE",
"1154 0 LINE",
"1287 0 LINE",
"1287 0 OFFCURVE",
"1297 428 OFFCURVE",
"1297 581 CURVE SMOOTH",
"1297 817 LINE",
"775 817 LINE",
"775 642 LINE",
"1095 642 LINE",
"1095 450 LINE SMOOTH",
"1095 237 OFFCURVE",
"926 139 OFFCURVE",
"760 139 CURVE SMOOTH",
"469 139 OFFCURVE",
"331 317 OFFCURVE",
"331 721 CURVE SMOOTH",
"331 1149 OFFCURVE",
"441 1325 OFFCURVE",
"750 1325 CURVE SMOOTH",
"936 1325 OFFCURVE",
"1052 1237 OFFCURVE",
"1120 1053 CURVE",
"1298 1113 LINE",
"1216 1352 OFFCURVE",
"1047 1489 OFFCURVE",
"755 1489 CURVE SMOOTH",
"361 1489 OFFCURVE",
"115 1285 OFFCURVE",
"115 722 CURVE SMOOTH",
"115 165 OFFCURVE",
"391 -24 OFFCURVE",
"742 -24 CURVE SMOOTH"
);
},
{
closed = 1;
nodes = (
"870 1595 LINE",
"1031 1915 LINE",
"898 1915 LINE",
"750 1690 LINE",
"603 1915 LINE",
"470 1915 LINE",
"631 1595 LINE"
);
}
);
};
components = (
{
name = G;
},
{
name = caron;
transform = "{1, 0, 0, 1, 326, 441}";
}
);
layerId = "8DE4C137-4DC6-43A7-909D-C9F8072E6A1C";
vertWidth = 0;
width = 1421;
},
{
background = {
anchors = (
{
name = bot;
position = "{716.5, 0}";
},
{
name = top;
position = "{716.5, 1464}";
}
);
paths = (
{
closed = 1;
nodes = (
"933 -24 OFFCURVE",
"1048 44 OFFCURVE",
"1109 131 CURVE",
"1156 0 LINE",
"1304 0 LINE",
"1304 0 OFFCURVE",
"1314 428 OFFCURVE",
"1314 581 CURVE SMOOTH",
"1314 829 LINE",
"789 829 LINE",
"789 632 LINE",
"1086 632 LINE",
"1086 453 LINE SMOOTH",
"1086 251 OFFCURVE",
"933 159 OFFCURVE",
"767 159 CURVE SMOOTH",
"497 159 OFFCURVE",
"357 316 OFFCURVE",
"357 721 CURVE SMOOTH",
"357 1149 OFFCURVE",
"455 1304 OFFCURVE",
"753 1304 CURVE SMOOTH",
"941 1304 OFFCURVE",
"1050 1220 OFFCURVE",
"1118 1035 CURVE",
"1319 1102 LINE",
"1239 1343 OFFCURVE",
"1073 1488 OFFCURVE",
"760 1488 CURVE SMOOTH",
"357 1488 OFFCURVE",
"113 1291 OFFCURVE",
"113 722 CURVE SMOOTH",
"113 163 OFFCURVE",
"393 -24 OFFCURVE",
"749 -24 CURVE SMOOTH"
);
},
{
closed = 1;
nodes = (
"856 1595 LINE",
"1007 1915 LINE",
"858 1915 LINE",
"722 1702 LINE",
"587 1915 LINE",
"439 1915 LINE",
"589 1595 LINE"
);
}
);
};
components = (
{
name = G;
},
{
name = caron;
transform = "{1, 0, 0, 1, 298, 441}";
}
);
layerId = "28683A17-BAD2-44EA-B42B-E882FFDD4FE1";
vertWidth = 0;
width = 1433;
},
{
background = {
anchors = (
{
name = top;
position = "{695, 1464}";
}
);
paths = (
{
closed = 1;
nodes = (
"908 -25 OFFCURVE",
"1060 59 OFFCURVE",
"1124 189 CURVE",
"1151 0 LINE",
"1243 0 LINE",
"1243 0 OFFCURVE",
"1253 428 OFFCURVE",
"1253 581 CURVE SMOOTH",
"1253 786 LINE",
"738 786 LINE",
"738 667 LINE",
"1116 667 LINE",
"1116 443 LINE SMOOTH",
"1116 199 OFFCURVE",
"908 87 OFFCURVE",
"742 87 CURVE SMOOTH",
"398 87 OFFCURVE",
"264 319 OFFCURVE",
"264 721 CURVE SMOOTH",
"264 1149 OFFCURVE",
"406 1380 OFFCURVE",
"743 1380 CURVE SMOOTH",
"924 1380 OFFCURVE",
"1057 1281 OFFCURVE",
"1123 1100 CURVE",
"1243 1142 LINE",
"1156 1377 OFFCURVE",
"982 1491 OFFCURVE",
"744 1491 CURVE SMOOTH",
"371 1491 OFFCURVE",
"118 1269 OFFCURVE",
"118 722 CURVE SMOOTH",
"118 168 OFFCURVE",
"384 -25 OFFCURVE",
"724 -25 CURVE SMOOTH"
);
},
{
closed = 1;
nodes = (
"784 1595 LINE",
"972 1915 LINE",
"880 1915 LINE",
"700 1659 LINE",
"522 1915 LINE",
"429 1915 LINE",
"617 1595 LINE"
);
}
);
};
components = (
{
name = G;
},
{
name = caron;
transform = "{1, 0, 0, 1, 276, 441}";
}
);
layerId = "E322F6D1-BA90-436B-BB35-51D9BD3EA9D1";
vertWidth = 0;
width = 1390;
}
);
unicode = 01E6;
},
{
glyphname = Gcircumflex;
lastChange = "2023-02-01 16:10:23 +0000";
layers = (
{
background = {
anchors = (
{
name = top;
position = "{703.5, 1464}";
}
);
paths = (
{
closed = 1;
nodes = (
"918 -25 OFFCURVE",
"1055 53 OFFCURVE",
"1118 166 CURVE",
"1153 0 LINE",
"1268 0 LINE",
"1268 0 OFFCURVE",
"1278 428 OFFCURVE",
"1278 581 CURVE SMOOTH",
"1278 803 LINE",
"758 803 LINE",
"758 653 LINE",
"1104 653 LINE",
"1104 447 LINE SMOOTH",
"1104 220 OFFCURVE",
"918 116 OFFCURVE",
"752 116 CURVE SMOOTH",
"438 116 OFFCURVE",
"301 318 OFFCURVE",
"301 721 CURVE SMOOTH",
"301 1149 OFFCURVE",
"426 1350 OFFCURVE",
"747 1350 CURVE SMOOTH",
"931 1350 OFFCURVE",
"1054 1256 OFFCURVE",
"1121 1074 CURVE",
"1273 1126 LINE",
"1189 1363 OFFCURVE",
"1018 1490 OFFCURVE",
"750 1490 CURVE SMOOTH",
"366 1490 OFFCURVE",
"116 1278 OFFCURVE",
"116 722 CURVE SMOOTH",
"116 166 OFFCURVE",
"388 -25 OFFCURVE",
"734 -25 CURVE SMOOTH"
);
},
{
closed = 1;
nodes = (
"535 1595 LINE",
"696 1834 LINE",
"858 1595 LINE",
"973 1595 LINE",
"800 1915 LINE",
"593 1915 LINE",
"420 1595 LINE"
);
}
);
};
components = (
{
name = G;
},
{
name = circumflex;
transform = "{1, 0, 0, 1, 285, 441}";
}
);
layerId = "8E6A00A3-5EF9-4E6D-9A7B-9C1BBC7D44AD";
userData = {
com.typemytype.robofont.layerData = {
};
};
vertWidth = 0;
width = 1407;
},
{
background = {
anchors = (
{
name = top;
position = "{745, 1464}";
}
);
paths = (
{
closed = 1;
nodes = (
"926 -24 OFFCURVE",
"1051 48 OFFCURVE",
"1113 147 CURVE",
"1154 0 LINE",
"1287 0 LINE",
"1287 0 OFFCURVE",
"1297 428 OFFCURVE",
"1297 581 CURVE SMOOTH",
"1297 817 LINE",
"775 817 LINE",
"775 642 LINE",
"1095 642 LINE",
"1095 450 LINE SMOOTH",
"1095 237 OFFCURVE",
"926 139 OFFCURVE",
"760 139 CURVE SMOOTH",
"469 139 OFFCURVE",
"331 317 OFFCURVE",
"331 721 CURVE SMOOTH",
"331 1149 OFFCURVE",
"441 1325 OFFCURVE",
"750 1325 CURVE SMOOTH",
"936 1325 OFFCURVE",
"1052 1237 OFFCURVE",
"1120 1053 CURVE",
"1298 1113 LINE",
"1216 1352 OFFCURVE",
"1047 1489 OFFCURVE",
"755 1489 CURVE SMOOTH",
"361 1489 OFFCURVE",
"115 1285 OFFCURVE",
"115 722 CURVE SMOOTH",
"115 165 OFFCURVE",
"391 -24 OFFCURVE",
"742 -24 CURVE SMOOTH"
);
},
{
closed = 1;
nodes = (
"599 1595 LINE",
"746 1820 LINE",
"894 1595 LINE",
"1027 1595 LINE",
"866 1915 LINE",
"627 1915 LINE",
"466 1595 LINE"
);
}
);
};
components = (
{
name = G;
},
{
name = circumflex;
transform = "{1, 0, 0, 1, 326, 441}";
}
);
layerId = "8DE4C137-4DC6-43A7-909D-C9F8072E6A1C";
userData = {
com.typemytype.robofont.layerData = {
};
};
vertWidth = 0;
width = 1421;
},
{
background = {
anchors = (
{
name = bot;
position = "{716.5, 0}";
},
{
name = top;
position = "{716.5, 1464}";
}
);
paths = (
{
closed = 1;
nodes = (
"933 -24 OFFCURVE",
"1048 44 OFFCURVE",
"1109 131 CURVE",
"1156 0 LINE",
"1304 0 LINE",
"1304 0 OFFCURVE",
"1314 428 OFFCURVE",
"1314 581 CURVE SMOOTH",
"1314 829 LINE",
"789 829 LINE",
"789 632 LINE",
"1086 632 LINE",
"1086 453 LINE SMOOTH",
"1086 251 OFFCURVE",
"933 159 OFFCURVE",
"767 159 CURVE SMOOTH",
"497 159 OFFCURVE",
"357 316 OFFCURVE",
"357 721 CURVE SMOOTH",
"357 1149 OFFCURVE",
"455 1304 OFFCURVE",
"753 1304 CURVE SMOOTH",
"941 1304 OFFCURVE",
"1050 1220 OFFCURVE",
"1118 1035 CURVE",
"1319 1102 LINE",
"1239 1343 OFFCURVE",
"1073 1488 OFFCURVE",
"760 1488 CURVE SMOOTH",
"357 1488 OFFCURVE",
"113 1291 OFFCURVE",
"113 722 CURVE SMOOTH",
"113 163 OFFCURVE",
"393 -24 OFFCURVE",
"749 -24 CURVE SMOOTH"
);
},
{
closed = 1;
nodes = (
"591 1595 LINE",
"725 1808 LINE",
"861 1595 LINE",
"1010 1595 LINE",
"859 1915 LINE",
"592 1915 LINE",
"442 1595 LINE"
);
}
);
};
components = (
{
name = G;
},
{
name = circumflex;
transform = "{1, 0, 0, 1, 298, 441}";
}
);
layerId = "28683A17-BAD2-44EA-B42B-E882FFDD4FE1";
userData = {
com.typemytype.robofont.layerData = {
};
};
vertWidth = 0;
width = 1433;
},
{
background = {
anchors = (
{
name = top;
position = "{695, 1464}";
}
);
paths = (
{
closed = 1;
nodes = (
"908 -25 OFFCURVE",
"1060 59 OFFCURVE",
"1124 189 CURVE",
"1151 0 LINE",
"1243 0 LINE",
"1243 0 OFFCURVE",
"1253 428 OFFCURVE",
"1253 581 CURVE SMOOTH",
"1253 786 LINE",
"738 786 LINE",
"738 667 LINE",
"1116 667 LINE",
"1116 443 LINE SMOOTH",
"1116 199 OFFCURVE",
"908 87 OFFCURVE",
"742 87 CURVE SMOOTH",
"398 87 OFFCURVE",
"264 319 OFFCURVE",
"264 721 CURVE SMOOTH",
"264 1149 OFFCURVE",
"406 1380 OFFCURVE",
"743 1380 CURVE SMOOTH",
"924 1380 OFFCURVE",
"1057 1281 OFFCURVE",
"1123 1100 CURVE",
"1243 1142 LINE",
"1156 1377 OFFCURVE",
"982 1491 OFFCURVE",
"744 1491 CURVE SMOOTH",
"371 1491 OFFCURVE",
"118 1269 OFFCURVE",
"118 722 CURVE SMOOTH",
"118 168 OFFCURVE",
"384 -25 OFFCURVE",
"724 -25 CURVE SMOOTH"
);
},
{
closed = 1;
nodes = (
"497 1595 LINE",
"676 1852 LINE",
"855 1595 LINE",
"948 1595 LINE",
"760 1915 LINE",
"593 1915 LINE",
"405 1595 LINE"
);
}
);
};
components = (
{
name = G;
},
{
name = circumflex;
transform = "{1, 0, 0, 1, 276, 441}";
}
);
layerId = "E322F6D1-BA90-436B-BB35-51D9BD3EA9D1";
userData = {
com.typemytype.robofont.layerData = {
b = {
anchors = (
);
components = (
);
contours = (
);
lib = {
};
name = Gcircumflex;
unicodes = (
);
width = 1390;
};
};
};
vertWidth = 0;
width = 1390;
}
);
unicode = 011C;
},
{
glyphname = Gcommaaccent;
lastChange = "2023-02-01 16:10:23 +0000";
layers = (
{
background = {
anchors = (
{
name = top;
position = "{703.5, 1464}";
}
);
paths = (
{
closed = 1;
nodes = (
"918 -25 OFFCURVE",
"1055 53 OFFCURVE",
"1118 166 CURVE",
"1153 0 LINE",
"1268 0 LINE",
"1268 0 OFFCURVE",
"1278 428 OFFCURVE",
"1278 581 CURVE SMOOTH",
"1278 803 LINE",
"758 803 LINE",
"758 653 LINE",
"1104 653 LINE",
"1104 447 LINE SMOOTH",
"1104 220 OFFCURVE",
"918 116 OFFCURVE",
"752 116 CURVE SMOOTH",
"438 116 OFFCURVE",
"301 318 OFFCURVE",
"301 721 CURVE SMOOTH",
"301 1149 OFFCURVE",
"426 1350 OFFCURVE",
"747 1350 CURVE SMOOTH",
"931 1350 OFFCURVE",
"1054 1256 OFFCURVE",
"1121 1074 CURVE",
"1273 1126 LINE",
"1189 1363 OFFCURVE",
"1018 1490 OFFCURVE",
"750 1490 CURVE SMOOTH",
"366 1490 OFFCURVE",
"116 1278 OFFCURVE",
"116 722 CURVE SMOOTH",
"116 166 OFFCURVE",
"388 -25 OFFCURVE",
"734 -25 CURVE SMOOTH"
);
},
{
closed = 1;
nodes = (
"768 -544 OFFCURVE",
"820 -429 OFFCURVE",
"820 -278 CURVE SMOOTH",
"820 -124 LINE",
"592 -124 LINE",
"592 -321 LINE",
"706 -326 LINE",
"705 -388 OFFCURVE",
"677 -488 OFFCURVE",
"629 -526 CURVE",
"685 -576 LINE"
);
}
);
};
components = (
{
name = G;
},
{
name = uni0326;
transform = "{1, 0, 0, 1, 499, 0}";
}
);
layerId = "8E6A00A3-5EF9-4E6D-9A7B-9C1BBC7D44AD";
userData = {
com.typemytype.robofont.layerData = {
};
};
vertWidth = 0;
width = 1407;
},
{
background = {
anchors = (
{
name = top;
position = "{745, 1464}";
}
);
paths = (
{
closed = 1;
nodes = (
"926 -24 OFFCURVE",
"1051 48 OFFCURVE",
"1113 147 CURVE",
"1154 0 LINE",
"1287 0 LINE",
"1287 0 OFFCURVE",
"1297 428 OFFCURVE",
"1297 581 CURVE SMOOTH",
"1297 817 LINE",
"775 817 LINE",
"775 642 LINE",
"1095 642 LINE",
"1095 450 LINE SMOOTH",
"1095 237 OFFCURVE",
"926 139 OFFCURVE",
"760 139 CURVE SMOOTH",
"469 139 OFFCURVE",
"331 317 OFFCURVE",
"331 721 CURVE SMOOTH",
"331 1149 OFFCURVE",
"441 1325 OFFCURVE",
"750 1325 CURVE SMOOTH",
"936 1325 OFFCURVE",
"1052 1237 OFFCURVE",
"1120 1053 CURVE",
"1298 1113 LINE",
"1216 1352 OFFCURVE",
"1047 1489 OFFCURVE",
"755 1489 CURVE SMOOTH",
"361 1489 OFFCURVE",
"115 1285 OFFCURVE",
"115 722 CURVE SMOOTH",
"115 165 OFFCURVE",
"391 -24 OFFCURVE",
"742 -24 CURVE SMOOTH"
);
},
{
closed = 1;
nodes = (
"812 -590 OFFCURVE",
"850 -478 OFFCURVE",
"850 -295 CURVE SMOOTH",
"850 -147 LINE",
"594 -147 LINE",
"594 -373 LINE",
"711 -383 LINE",
"711 -457 OFFCURVE",
"661 -543 OFFCURVE",
"623 -577 CURVE",
"689 -655 LINE"
);
}
);
};
components = (
{
name = G;
},
{
name = uni0326;
transform = "{1, 0, 0, 1, 506, 0}";
}
);
layerId = "8DE4C137-4DC6-43A7-909D-C9F8072E6A1C";
userData = {
com.typemytype.robofont.layerData = {
};
};
vertWidth = 0;
width = 1421;
},
{
background = {
anchors = (
{
name = bot;
position = "{716.5, 0}";
},
{
name = top;
position = "{716.5, 1464}";
}
);
paths = (
{
closed = 1;
nodes = (
"933 -24 OFFCURVE",
"1048 44 OFFCURVE",
"1109 131 CURVE",
"1156 0 LINE",
"1304 0 LINE",
"1304 0 OFFCURVE",
"1314 428 OFFCURVE",
"1314 581 CURVE SMOOTH",
"1314 829 LINE",
"789 829 LINE",
"789 632 LINE",
"1086 632 LINE",
"1086 453 LINE SMOOTH",
"1086 251 OFFCURVE",
"933 159 OFFCURVE",
"767 159 CURVE SMOOTH",
"497 159 OFFCURVE",
"357 316 OFFCURVE",
"357 721 CURVE SMOOTH",
"357 1149 OFFCURVE",
"455 1304 OFFCURVE",
"753 1304 CURVE SMOOTH",
"941 1304 OFFCURVE",
"1050 1220 OFFCURVE",
"1118 1035 CURVE",
"1319 1102 LINE",
"1239 1343 OFFCURVE",
"1073 1488 OFFCURVE",
"760 1488 CURVE SMOOTH",
"357 1488 OFFCURVE",
"113 1291 OFFCURVE",
"113 722 CURVE SMOOTH",
"113 163 OFFCURVE",
"393 -24 OFFCURVE",
"749 -24 CURVE SMOOTH"
);
}
);
};
components = (
{
name = G;
},
{
name = commaaccent;
transform = "{1, 0, 0, 1, 494, 0}";
}
);
layerId = "28683A17-BAD2-44EA-B42B-E882FFDD4FE1";
userData = {
com.typemytype.robofont.layerData = {
};
};
vertWidth = 0;
width = 1433;
},
{
background = {
anchors = (
{
name = top;
position = "{695, 1464}";
}
);
paths = (
{
closed = 1;
nodes = (
"908 -25 OFFCURVE",
"1060 59 OFFCURVE",
"1124 189 CURVE",
"1151 0 LINE",
"1243 0 LINE",
"1243 0 OFFCURVE",
"1253 428 OFFCURVE",
"1253 581 CURVE SMOOTH",
"1253 786 LINE",
"738 786 LINE",
"738 667 LINE",
"1116 667 LINE",
"1116 443 LINE SMOOTH",
"1116 199 OFFCURVE",
"908 87 OFFCURVE",
"742 87 CURVE SMOOTH",
"398 87 OFFCURVE",
"264 319 OFFCURVE",
"264 721 CURVE SMOOTH",
"264 1149 OFFCURVE",
"406 1380 OFFCURVE",
"743 1380 CURVE SMOOTH",
"924 1380 OFFCURVE",
"1057 1281 OFFCURVE",
"1123 1100 CURVE",
"1243 1142 LINE",
"1156 1377 OFFCURVE",
"982 1491 OFFCURVE",
"744 1491 CURVE SMOOTH",
"371 1491 OFFCURVE",
"118 1269 OFFCURVE",
"118 722 CURVE SMOOTH",
"118 168 OFFCURVE",
"384 -25 OFFCURVE",
"724 -25 CURVE SMOOTH"
);
}
);
};
components = (
{
name = G;
},
{
name = commaaccent;
transform = "{1, 0, 0, 1, 527.5, -52}";
}
);
layerId = "E322F6D1-BA90-436B-BB35-51D9BD3EA9D1";
userData = {
com.typemytype.robofont.layerData = {
b = {
anchors = (
);
components = (
);
contours = (
);
lib = {
};
name = Gcommaaccent;
unicodes = (
);
width = 1374;
};
};
};
vertWidth = 0;
width = 1390;
}
);
unicode = 0122;
},
{
glyphname = Gdotaccent;
lastChange = "2023-02-01 16:10:23 +0000";
layers = (
{
background = {
anchors = (
{
name = top;
position = "{703.5, 1464}";
}
);
paths = (
{
closed = 1;
nodes = (
"918 -25 OFFCURVE",
"1055 53 OFFCURVE",
"1118 166 CURVE",
"1153 0 LINE",
"1268 0 LINE",
"1268 0 OFFCURVE",
"1278 428 OFFCURVE",
"1278 581 CURVE SMOOTH",
"1278 803 LINE",
"758 803 LINE",
"758 653 LINE",
"1104 653 LINE",
"1104 447 LINE SMOOTH",
"1104 220 OFFCURVE",
"918 116 OFFCURVE",
"752 116 CURVE SMOOTH",
"438 116 OFFCURVE",
"301 318 OFFCURVE",
"301 721 CURVE SMOOTH",
"301 1149 OFFCURVE",
"426 1350 OFFCURVE",
"747 1350 CURVE SMOOTH",
"931 1350 OFFCURVE",
"1054 1256 OFFCURVE",
"1121 1074 CURVE",
"1273 1126 LINE",
"1189 1363 OFFCURVE",
"1018 1490 OFFCURVE",
"750 1490 CURVE SMOOTH",
"366 1490 OFFCURVE",
"116 1278 OFFCURVE",
"116 722 CURVE SMOOTH",
"116 166 OFFCURVE",
"388 -25 OFFCURVE",
"734 -25 CURVE SMOOTH"
);
},
{
closed = 1;
nodes = (
"780 1673 LINE",
"780 1898 LINE",
"606 1898 LINE",
"606 1673 LINE"
);
}
);
};
components = (
{
name = G;
},
{
name = dotaccent;
transform = "{1, 0, 0, 1, 476, 441}";
}
);
layerId = "8E6A00A3-5EF9-4E6D-9A7B-9C1BBC7D44AD";
userData = {
com.typemytype.robofont.layerData = {
};
};
vertWidth = 0;
width = 1407;
},
{
background = {
anchors = (
{
name = top;
position = "{745, 1464}";
}
);
paths = (
{
closed = 1;
nodes = (
"926 -24 OFFCURVE",
"1051 48 OFFCURVE",
"1113 147 CURVE",
"1154 0 LINE",
"1287 0 LINE",
"1287 0 OFFCURVE",
"1297 428 OFFCURVE",
"1297 581 CURVE SMOOTH",
"1297 817 LINE",
"775 817 LINE",
"775 642 LINE",
"1095 642 LINE",
"1095 450 LINE SMOOTH",
"1095 237 OFFCURVE",
"926 139 OFFCURVE",
"760 139 CURVE SMOOTH",
"469 139 OFFCURVE",
"331 317 OFFCURVE",
"331 721 CURVE SMOOTH",
"331 1149 OFFCURVE",
"441 1325 OFFCURVE",
"750 1325 CURVE SMOOTH",
"936 1325 OFFCURVE",
"1052 1237 OFFCURVE",
"1120 1053 CURVE",
"1298 1113 LINE",
"1216 1352 OFFCURVE",
"1047 1489 OFFCURVE",
"755 1489 CURVE SMOOTH",
"361 1489 OFFCURVE",
"115 1285 OFFCURVE",
"115 722 CURVE SMOOTH",
"115 165 OFFCURVE",
"391 -24 OFFCURVE",
"742 -24 CURVE SMOOTH"
);
},
{
closed = 1;
nodes = (
"844 1674 LINE",
"844 1909 LINE",
"641 1909 LINE",
"641 1674 LINE"
);
}
);
};
components = (
{
name = G;
},
{
name = dotaccent;
transform = "{1, 0, 0, 1, 527, 441}";
}
);
layerId = "8DE4C137-4DC6-43A7-909D-C9F8072E6A1C";
userData = {
com.typemytype.robofont.layerData = {
};
};
vertWidth = 0;
width = 1421;
},
{
background = {
anchors = (
{
name = bot;
position = "{716.5, 0}";
},
{
name = top;
position = "{716.5, 1464}";
}
);
paths = (
{
closed = 1;
nodes = (
"933 -24 OFFCURVE",
"1048 44 OFFCURVE",
"1109 131 CURVE",
"1156 0 LINE",
"1304 0 LINE",
"1304 0 OFFCURVE",
"1314 428 OFFCURVE",
"1314 581 CURVE SMOOTH",
"1314 829 LINE",
"789 829 LINE",
"789 632 LINE",
"1086 632 LINE",
"1086 453 LINE SMOOTH",
"1086 251 OFFCURVE",
"933 159 OFFCURVE",
"767 159 CURVE SMOOTH",
"497 159 OFFCURVE",
"357 316 OFFCURVE",
"357 721 CURVE SMOOTH",
"357 1149 OFFCURVE",
"455 1304 OFFCURVE",
"753 1304 CURVE SMOOTH",
"941 1304 OFFCURVE",
"1050 1220 OFFCURVE",
"1118 1035 CURVE",
"1319 1102 LINE",
"1239 1343 OFFCURVE",
"1073 1488 OFFCURVE",
"760 1488 CURVE SMOOTH",
"357 1488 OFFCURVE",
"113 1291 OFFCURVE",
"113 722 CURVE SMOOTH",
"113 163 OFFCURVE",
"393 -24 OFFCURVE",
"749 -24 CURVE SMOOTH"
);
},
{
closed = 1;
nodes = (
"824 1675 LINE",
"824 1919 LINE",
"595 1919 LINE",
"595 1675 LINE"
);
}
);
};
components = (
{
name = G;
},
{
name = dotaccent;
transform = "{1, 0, 0, 1, 495, 441}";
}
);
layerId = "28683A17-BAD2-44EA-B42B-E882FFDD4FE1";
userData = {
com.typemytype.robofont.layerData = {
};
};
vertWidth = 0;
width = 1433;
},
{
background = {
anchors = (
{
name = top;
position = "{695, 1464}";
}
);
paths = (
{
closed = 1;
nodes = (
"908 -25 OFFCURVE",
"1060 59 OFFCURVE",
"1124 189 CURVE",
"1151 0 LINE",
"1243 0 LINE",
"1243 0 OFFCURVE",
"1253 428 OFFCURVE",
"1253 581 CURVE SMOOTH",
"1253 786 LINE",
"738 786 LINE",
"738 667 LINE",
"1116 667 LINE",
"1116 443 LINE SMOOTH",
"1116 199 OFFCURVE",
"908 87 OFFCURVE",
"742 87 CURVE SMOOTH",
"398 87 OFFCURVE",
"264 319 OFFCURVE",
"264 721 CURVE SMOOTH",
"264 1149 OFFCURVE",
"406 1380 OFFCURVE",
"743 1380 CURVE SMOOTH",
"924 1380 OFFCURVE",
"1057 1281 OFFCURVE",
"1123 1100 CURVE",
"1243 1142 LINE",
"1156 1377 OFFCURVE",
"982 1491 OFFCURVE",
"744 1491 CURVE SMOOTH",
"371 1491 OFFCURVE",
"118 1269 OFFCURVE",
"118 722 CURVE SMOOTH",
"118 168 OFFCURVE",
"384 -25 OFFCURVE",
"724 -25 CURVE SMOOTH"
);
},
{
closed = 1;
nodes = (
"758 1672 LINE",
"758 1884 LINE",
"621 1884 LINE",
"621 1672 LINE"
);
}
);
};
components = (
{
name = G;
},
{
name = dotaccent;
transform = "{1, 0, 0, 1, 471, 441}";
}
);
layerId = "E322F6D1-BA90-436B-BB35-51D9BD3EA9D1";
userData = {
com.typemytype.robofont.layerData = {
b = {
anchors = (
);
components = (
);
contours = (
);
lib = {
};
name = Gdotaccent;
unicodes = (
);
width = 1390;
};
};
};
vertWidth = 0;
width = 1390;
}
);
unicode = 0120;
},
{
glyphname = H;
lastChange = "2023-02-01 16:10:13 +0000";
layers = (
{
anchors = (
{
name = top;
position = "{741.5, 1464}";
}
);
background = {
anchors = (
{
name = top;
position = "{741.5, 1464}";
}
);
paths = (
{
closed = 1;
nodes = (
"321 0 LINE",
"321 700 LINE",
"1162 700 LINE",
"1162 0 LINE",
"1337 0 LINE",
"1337 1464 LINE",
"1162 1464 LINE",
"1162 839 LINE",
"321 839 LINE",
"321 1464 LINE",
"146 1464 LINE",
"146 0 LINE"
);
}
);
};
layerId = "8E6A00A3-5EF9-4E6D-9A7B-9C1BBC7D44AD";
paths = (
{
closed = 1;
nodes = (
"321 0 LINE",
"321 700 LINE",
"1162 700 LINE",
"1162 0 LINE",
"1337 0 LINE",
"1337 1464 LINE",
"1162 1464 LINE",
"1162 839 LINE",
"321 839 LINE",
"321 1464 LINE",
"146 1464 LINE",
"146 0 LINE"
);
}
);
userData = {
anchors = (
);
b = {
};
com.typemytype.robofont.layerData = {
};
components = (
);
contours = {
};
lib = {
};
name = H;
points = {
};
segmentType = line;
unicodes = (
);
width = "1457";
x = "294";
y = "836";
};
vertWidth = 0;
width = 1483;
},
{
anchors = (
{
name = top;
position = "{750, 1464}";
}
);
background = {
anchors = (
{
name = top;
position = "{750, 1464}";
}
);
paths = (
{
closed = 1;
nodes = (
"344 0 LINE",
"344 679 LINE",
"1155 679 LINE",
"1155 0 LINE",
"1360 0 LINE",
"1360 1464 LINE",
"1155 1464 LINE",
"1155 842 LINE",
"344 842 LINE",
"344 1464 LINE",
"139 1464 LINE",
"139 0 LINE"
);
}
);
};
layerId = "8DE4C137-4DC6-43A7-909D-C9F8072E6A1C";
paths = (
{
closed = 1;
nodes = (
"344 0 LINE",
"344 679 LINE",
"1155 679 LINE",
"1155 0 LINE",
"1360 0 LINE",
"1360 1464 LINE",
"1155 1464 LINE",
"1155 842 LINE",
"344 842 LINE",
"344 1464 LINE",
"139 1464 LINE",
"139 0 LINE"
);
}
);
userData = {
anchors = (
);
b = {
};
com.typemytype.robofont.layerData = {
};
components = (
);
contours = {
};
lib = {
};
name = H;
points = {
};
segmentType = line;
unicodes = (
);
width = "1457";
x = "294";
y = "836";
};
vertWidth = 0;
width = 1500;
},
{
anchors = (
{
name = bot;
position = "{757, 0}";
},
{
name = top;
position = "{757, 1464}";
}
);
background = {
anchors = (
{
name = bot;
position = "{757, 0}";
},
{
name = top;
position = "{757, 1464}";
}
);
paths = (
{
closed = 1;
nodes = (
"365 0 LINE",
"365 661 LINE",
"1150 661 LINE",
"1150 0 LINE",
"1381 0 LINE",
"1381 1464 LINE",
"1150 1464 LINE",
"1150 845 LINE",
"365 845 LINE",
"365 1464 LINE",
"134 1464 LINE",
"134 0 LINE"
);
}
);
};
layerId = "28683A17-BAD2-44EA-B42B-E882FFDD4FE1";
paths = (
{
closed = 1;
nodes = (
"365 0 LINE",
"365 661 LINE",
"1150 661 LINE",
"1150 0 LINE",
"1381 0 LINE",
"1381 1464 LINE",
"1150 1464 LINE",
"1150 845 LINE",
"365 845 LINE",
"365 1464 LINE",
"134 1464 LINE",
"134 0 LINE"
);
}
);
userData = {
anchors = (
);
b = {
};
com.typemytype.robofont.layerData = {
};
components = (
);
contours = {
};
lib = {
};
name = H;
points = {
};
segmentType = line;
unicodes = (
);
width = "1457";
x = "294";
y = "836";
};
vertWidth = 0;
width = 1514;
},
{
anchors = (
{
name = top;
position = "{731, 1464}";
}
);
background = {
anchors = (
{
name = top;
position = "{731, 1464}";
}
);
paths = (
{
closed = 1;
nodes = (
"292 0 LINE",
"292 725 LINE",
"1170 725 LINE",
"1170 0 LINE",
"1308 0 LINE",
"1308 1464 LINE",
"1170 1464 LINE",
"1170 835 LINE",
"292 835 LINE",
"292 1464 LINE",
"154 1464 LINE",
"154 0 LINE"
);
}
);
};
layerId = "E322F6D1-BA90-436B-BB35-51D9BD3EA9D1";
paths = (
{
closed = 1;
nodes = (
"292 0 LINE",
"292 725 LINE",
"1170 725 LINE",
"1170 0 LINE",
"1308 0 LINE",
"1308 1464 LINE",
"1170 1464 LINE",
"1170 835 LINE",
"292 835 LINE",
"292 1464 LINE",
"154 1464 LINE",
"154 0 LINE"
);
}
);
userData = {
anchors = (
);
b = {
};
com.typemytype.robofont.layerData = {
b = {
anchors = (
);
components = (
);
contours = (
);
lib = {
};
name = H;
unicodes = (
);
width = 1462;
};
};
components = (
);
contours = {
};
lib = {
};
name = H;
points = {
};
segmentType = line;
unicodes = (
);
width = "1457";
x = "294";
y = "836";
};
vertWidth = 0;
width = 1462;
}
);
unicode = 0048;
},
{
glyphname = Hbar;
lastChange = "2023-02-01 16:10:23 +0000";
layers = (
{
background = {
anchors = (
{
name = top;
position = "{741.5, 1464}";
}
);
paths = (
{
closed = 1;
nodes = (
"1423 1144 LINE",
"1423 1240 LINE",
"48 1240 LINE",
"48 1144 LINE"
);
},
{
closed = 1;
nodes = (
"321 0 LINE",
"321 700 LINE",
"1162 700 LINE",
"1162 0 LINE",
"1337 0 LINE",
"1337 1464 LINE",
"1162 1464 LINE",
"1162 839 LINE",
"321 839 LINE",
"321 1464 LINE",
"146 1464 LINE",
"146 0 LINE"
);
}
);
};
components = (
{
name = H;
}
);
layerId = "8E6A00A3-5EF9-4E6D-9A7B-9C1BBC7D44AD";
paths = (
{
closed = 1;
nodes = (
"1423 1144 LINE",
"1423 1240 LINE",
"48 1240 LINE",
"48 1144 LINE"
);
}
);
vertWidth = 0;
width = 1457;
},
{
background = {
anchors = (
{
name = top;
position = "{750, 1464}";
}
);
paths = (
{
closed = 1;
nodes = (
"1446 1144 LINE",
"1446 1249 LINE",
"48 1249 LINE",
"48 1144 LINE"
);
},
{
closed = 1;
nodes = (
"344 0 LINE",
"344 679 LINE",
"1155 679 LINE",
"1155 0 LINE",
"1360 0 LINE",
"1360 1464 LINE",
"1155 1464 LINE",
"1155 842 LINE",
"344 842 LINE",
"344 1464 LINE",
"139 1464 LINE",
"139 0 LINE"
);
}
);
};
components = (
{
name = H;
}
);
layerId = "8DE4C137-4DC6-43A7-909D-C9F8072E6A1C";
paths = (
{
closed = 1;
nodes = (
"1446 1144 LINE",
"1446 1249 LINE",
"48 1249 LINE",
"48 1144 LINE"
);
}
);
vertWidth = 0;
width = 1457;
},
{
background = {
anchors = (
{
name = bot;
position = "{757, 0}";
},
{
name = top;
position = "{757, 1464}";
}
);
paths = (
{
closed = 1;
nodes = (
"1467 1144 LINE",
"1467 1258 LINE",
"48 1258 LINE",
"48 1144 LINE"
);
},
{
closed = 1;
nodes = (
"365 0 LINE",
"365 661 LINE",
"1150 661 LINE",
"1150 0 LINE",
"1381 0 LINE",
"1381 1464 LINE",
"1150 1464 LINE",
"1150 845 LINE",
"365 845 LINE",
"365 1464 LINE",
"134 1464 LINE",
"134 0 LINE"
);
}
);
};
components = (
{
name = H;
}
);
layerId = "28683A17-BAD2-44EA-B42B-E882FFDD4FE1";
paths = (
{
closed = 1;
nodes = (
"1467 1144 LINE",
"1467 1258 LINE",
"48 1258 LINE",
"48 1144 LINE"
);
}
);
vertWidth = 0;
width = 1457;
},
{
background = {
anchors = (
{
name = top;
position = "{731, 1464}";
}
);
paths = (
{
closed = 1;
nodes = (
"1394 1144 LINE",
"1394 1228 LINE",
"48 1228 LINE",
"48 1144 LINE"
);
},
{
closed = 1;
nodes = (
"292 0 LINE",
"292 725 LINE",
"1170 725 LINE",
"1170 0 LINE",
"1308 0 LINE",
"1308 1464 LINE",
"1170 1464 LINE",
"1170 835 LINE",
"292 835 LINE",
"292 1464 LINE",
"154 1464 LINE",
"154 0 LINE"
);
}
);
};
components = (
{
name = H;
}
);
layerId = "E322F6D1-BA90-436B-BB35-51D9BD3EA9D1";
paths = (
{
closed = 1;
nodes = (
"1394 1144 LINE",
"1394 1228 LINE",
"48 1228 LINE",
"48 1144 LINE"
);
}
);
vertWidth = 0;
width = 1457;
}
);
unicode = 0126;
},
{
glyphname = Hcircumflex;
lastChange = "2023-02-01 16:10:23 +0000";
layers = (
{
background = {
anchors = (
{
name = top;
position = "{741.5, 1464}";
}
);
paths = (
{
closed = 1;
nodes = (
"321 0 LINE",
"321 700 LINE",
"1162 700 LINE",
"1162 0 LINE",
"1337 0 LINE",
"1337 1464 LINE",
"1162 1464 LINE",
"1162 839 LINE",
"321 839 LINE",
"321 1464 LINE",
"146 1464 LINE",
"146 0 LINE"
);
},
{
closed = 1;
nodes = (
"573 1595 LINE",
"734 1834 LINE",
"896 1595 LINE",
"1011 1595 LINE",
"838 1915 LINE",
"631 1915 LINE",
"458 1595 LINE"
);
}
);
};
components = (
{
name = H;
},
{
name = circumflex;
transform = "{1, 0, 0, 1, 323, 441}";
}
);
layerId = "8E6A00A3-5EF9-4E6D-9A7B-9C1BBC7D44AD";
vertWidth = 0;
width = 1483;
},
{
background = {
anchors = (
{
name = top;
position = "{750, 1464}";
}
);
paths = (
{
closed = 1;
nodes = (
"344 0 LINE",
"344 679 LINE",
"1155 679 LINE",
"1155 0 LINE",
"1360 0 LINE",
"1360 1464 LINE",
"1155 1464 LINE",
"1155 842 LINE",
"344 842 LINE",
"344 1464 LINE",
"139 1464 LINE",
"139 0 LINE"
);
},
{
closed = 1;
nodes = (
"604 1595 LINE",
"751 1820 LINE",
"899 1595 LINE",
"1032 1595 LINE",
"871 1915 LINE",
"632 1915 LINE",
"471 1595 LINE"
);
}
);
};
components = (
{
name = H;
},
{
name = circumflex;
transform = "{1, 0, 0, 1, 331, 441}";
}
);
layerId = "8DE4C137-4DC6-43A7-909D-C9F8072E6A1C";
vertWidth = 0;
width = 1500;
},
{
background = {
anchors = (
{
name = bot;
position = "{757, 0}";
},
{
name = top;
position = "{757, 1464}";
}
);
paths = (
{
closed = 1;
nodes = (
"365 0 LINE",
"365 661 LINE",
"1150 661 LINE",
"1150 0 LINE",
"1381 0 LINE",
"1381 1464 LINE",
"1150 1464 LINE",
"1150 845 LINE",
"365 845 LINE",
"365 1464 LINE",
"134 1464 LINE",
"134 0 LINE"
);
},
{
closed = 1;
nodes = (
"631 1595 LINE",
"765 1808 LINE",
"901 1595 LINE",
"1050 1595 LINE",
"899 1915 LINE",
"632 1915 LINE",
"482 1595 LINE"
);
}
);
};
components = (
{
name = H;
},
{
name = circumflex;
transform = "{1, 0, 0, 1, 338, 441}";
}
);
layerId = "28683A17-BAD2-44EA-B42B-E882FFDD4FE1";
vertWidth = 0;
width = 1514;
},
{
background = {
anchors = (
{
name = top;
position = "{731, 1464}";
}
);
paths = (
{
closed = 1;
nodes = (
"292 0 LINE",
"292 725 LINE",
"1170 725 LINE",
"1170 0 LINE",
"1308 0 LINE",
"1308 1464 LINE",
"1170 1464 LINE",
"1170 835 LINE",
"292 835 LINE",
"292 1464 LINE",
"154 1464 LINE",
"154 0 LINE"
);
},
{
closed = 1;
nodes = (
"533 1595 LINE",
"712 1852 LINE",
"891 1595 LINE",
"984 1595 LINE",
"796 1915 LINE",
"629 1915 LINE",
"441 1595 LINE"
);
}
);
};
components = (
{
name = H;
},
{
name = circumflex;
transform = "{1, 0, 0, 1, 312, 441}";
}
);
layerId = "E322F6D1-BA90-436B-BB35-51D9BD3EA9D1";
vertWidth = 0;
width = 1462;
}
);
unicode = 0124;
},
{
glyphname = I;
lastChange = "2023-02-01 16:10:13 +0000";
layers = (
{
anchors = (
{
name = ogonek;
position = "{237, 0}";
},
{
name = top;
position = "{232, 1464}";
}
);
background = {
anchors = (
{
name = ogonek;
position = "{237, 0}";
},
{
name = top;
position = "{232, 1464}";
}
);
paths = (
{
closed = 1;
nodes = (
"323 0 LINE",
"323 1464 LINE",
"148 1464 LINE",
"148 0 LINE"
);
}
);
};
layerId = "8E6A00A3-5EF9-4E6D-9A7B-9C1BBC7D44AD";
paths = (
{
closed = 1;
nodes = (
"323 0 LINE",
"323 1464 LINE",
"148 1464 LINE",
"148 0 LINE"
);
}
);
userData = {
com.typemytype.robofont.layerData = {
};
};
vertWidth = 0;
width = 464;
},
{
anchors = (
{
name = ogonek;
position = "{231, 0}";
},
{
name = top;
position = "{232, 1464}";
}
);
background = {
anchors = (
{
name = ogonek;
position = "{231, 0}";
},
{
name = top;
position = "{232, 1464}";
}
);
paths = (
{
closed = 1;
nodes = (
"338 0 LINE",
"338 1464 LINE",
"133 1464 LINE",
"133 0 LINE"
);
}
);
};
layerId = "8DE4C137-4DC6-43A7-909D-C9F8072E6A1C";
paths = (
{
closed = 1;
nodes = (
"338 0 LINE",
"338 1464 LINE",
"133 1464 LINE",
"133 0 LINE"
);
}
);
userData = {
com.typemytype.robofont.layerData = {
};
};
vertWidth = 0;
width = 464;
},
{
anchors = (
{
name = bot;
position = "{232, 0}";
},
{
name = ogonek;
position = "{232, 0}";
},
{
name = top;
position = "{232, 1464}";
}
);
background = {
anchors = (
{
name = bot;
position = "{232, 0}";
},
{
name = ogonek;
position = "{232, 0}";
},
{
name = top;
position = "{232, 1464}";
}
);
paths = (
{
closed = 1;
nodes = (
"350 0 LINE",
"350 1464 LINE",
"119 1464 LINE",
"119 0 LINE"
);
}
);
};
layerId = "28683A17-BAD2-44EA-B42B-E882FFDD4FE1";
paths = (
{
closed = 1;
nodes = (
"350 0 LINE",
"350 1464 LINE",
"119 1464 LINE",
"119 0 LINE"
);
}
);
userData = {
com.typemytype.robofont.layerData = {
};
};
vertWidth = 0;
width = 464;
},
{
anchors = (
{
name = ogonek;
position = "{247, 0}";
},
{
name = top;
position = "{232, 1464}";
}
);
background = {
anchors = (
{
name = ogonek;
position = "{247, 0}";
},
{
name = top;
position = "{232, 1464}";
}
);
paths = (
{
closed = 1;
nodes = (
"305 0 LINE",
"305 1464 LINE",
"167 1464 LINE",
"167 0 LINE"
);
}
);
};
layerId = "E322F6D1-BA90-436B-BB35-51D9BD3EA9D1";
paths = (
{
closed = 1;
nodes = (
"305 0 LINE",
"305 1464 LINE",
"167 1464 LINE",
"167 0 LINE"
);
}
);
userData = {
com.typemytype.robofont.layerData = {
b = {
anchors = (
);
components = (
);
contours = (
);
lib = {
};
name = I;
unicodes = (
);
width = 464;
};
};
};
vertWidth = 0;
width = 464;
}
);
unicode = 0049;
},
{
glyphname = IJ;
lastChange = "2023-02-01 16:10:23 +0000";
layers = (
{
background = {
anchors = (
{
name = ogonek;
position = "{237, 0}";
},
{
name = top;
position = "{1240, 1464}";
}
);
paths = (
{
closed = 1;
nodes = (
"323 0 LINE",
"323 1464 LINE",
"148 1464 LINE",
"148 0 LINE"
);
},
{
closed = 1;
nodes = (
"1204 -23 OFFCURVE",
"1325 166 OFFCURVE",
"1325 544 CURVE SMOOTH",
"1325 1464 LINE",
"1150 1464 LINE",
"1150 541 LINE SMOOTH",
"1150 294 OFFCURVE",
"1117 120 OFFCURVE",
"899 119 CURVE SMOOTH",
"763 119 OFFCURVE",
"686 205 OFFCURVE",
"648 376 CURVE",
"491 333 LINE",
"534 116 OFFCURVE",
"662 -23 OFFCURVE",
"890 -23 CURVE SMOOTH"
);
}
);
};
components = (
{
name = I;
},
{
name = J;
transform = "{1, 0, 0, 1, 464, 0}";
}
);
layerId = "8E6A00A3-5EF9-4E6D-9A7B-9C1BBC7D44AD";
vertWidth = 0;
width = 1461;
},
{
background = {
anchors = (
{
name = ogonek;
position = "{231, 0}";
},
{
name = top;
position = "{1269, 1464}";
}
);
paths = (
{
closed = 1;
nodes = (
"338 0 LINE",
"338 1464 LINE",
"133 1464 LINE",
"133 0 LINE"
);
},
{
closed = 1;
nodes = (
"1227 -21 OFFCURVE",
"1368 166 OFFCURVE",
"1368 544 CURVE SMOOTH",
"1368 1464 LINE",
"1163 1464 LINE",
"1163 541 LINE SMOOTH",
"1163 281 OFFCURVE",
"1112 145 OFFCURVE",
"918 145 CURVE SMOOTH",
"808 145 OFFCURVE",
"719 212 OFFCURVE",
"681 383 CURVE",
"496 332 LINE",
"539 115 OFFCURVE",
"681 -21 OFFCURVE",
"911 -21 CURVE SMOOTH"
);
}
);
};
components = (
{
name = I;
},
{
name = J;
transform = "{1, 0, 0, 1, 464, 0}";
}
);
layerId = "8DE4C137-4DC6-43A7-909D-C9F8072E6A1C";
vertWidth = 0;
width = 1504;
},
{
background = {
anchors = (
{
name = bot;
position = "{1002.5, 0}";
},
{
name = ogonek;
position = "{232, 0}";
},
{
name = top;
position = "{1267, 1464}";
}
);
paths = (
{
closed = 1;
nodes = (
"350 0 LINE",
"350 1464 LINE",
"119 1464 LINE",
"119 0 LINE"
);
},
{
closed = 1;
nodes = (
"1246 -19 OFFCURVE",
"1405 166 OFFCURVE",
"1405 544 CURVE SMOOTH",
"1405 1464 LINE",
"1174 1464 LINE",
"1174 541 LINE SMOOTH",
"1174 270 OFFCURVE",
"1108 167 OFFCURVE",
"934 168 CURVE SMOOTH",
"847 168 OFFCURVE",
"748 219 OFFCURVE",
"710 390 CURVE",
"501 332 LINE",
"544 115 OFFCURVE",
"698 -19 OFFCURVE",
"929 -19 CURVE SMOOTH"
);
}
);
};
components = (
{
name = I;
},
{
name = J;
transform = "{1, 0, 0, 1, 464, 0}";
}
);
layerId = "28683A17-BAD2-44EA-B42B-E882FFDD4FE1";
vertWidth = 0;
width = 1541;
},
{
background = {
anchors = (
{
name = ogonek;
position = "{247, 0}";
},
{
name = top;
position = "{1203, 1464}";
}
);
paths = (
{
closed = 1;
nodes = (
"305 0 LINE",
"305 1464 LINE",
"167 1464 LINE",
"167 0 LINE"
);
},
{
closed = 1;
nodes = (
"1176 -26 OFFCURVE",
"1271 166 OFFCURVE",
"1271 544 CURVE SMOOTH",
"1271 1464 LINE",
"1134 1464 LINE",
"1134 541 LINE SMOOTH",
"1134 309 OFFCURVE",
"1122 89 OFFCURVE",
"876 87 CURVE SMOOTH",
"708 87 OFFCURVE",
"645 196 OFFCURVE",
"607 367 CURVE",
"484 334 LINE",
"527 117 OFFCURVE",
"638 -26 OFFCURVE",
"864 -26 CURVE SMOOTH"
);
}
);
};
components = (
{
name = I;
},
{
name = J;
transform = "{1, 0, 0, 1, 464, 0}";
}
);
layerId = "E322F6D1-BA90-436B-BB35-51D9BD3EA9D1";
vertWidth = 0;
width = 1407;
}
);
unicode = 0132;
},
{
glyphname = Iacute;
lastChange = "2023-02-01 16:10:23 +0000";
layers = (
{
background = {
anchors = (
{
name = ogonek;
position = "{237, 0}";
},
{
name = top;
position = "{232, 1464}";
}
);
paths = (
{
closed = 1;
nodes = (
"323 0 LINE",
"323 1464 LINE",
"148 1464 LINE",
"148 0 LINE"
);
},
{
closed = 1;
nodes = (
"568 1911 LINE",
"335 1911 LINE",
"131 1592 LINE",
"244 1591 LINE"
);
}
);
};
components = (
{
name = I;
},
{
name = acute;
transform = "{1, 0, 0, 1, 84, 441}";
}
);
layerId = "8E6A00A3-5EF9-4E6D-9A7B-9C1BBC7D44AD";
userData = {
com.typemytype.robofont.layerData = {
};
};
vertWidth = 0;
width = 464;
},
{
background = {
anchors = (
{
name = ogonek;
position = "{231, 0}";
},
{
name = top;
position = "{232, 1464}";
}
);
paths = (
{
closed = 1;
nodes = (
"338 0 LINE",
"338 1464 LINE",
"133 1464 LINE",
"133 0 LINE"
);
},
{
closed = 1;
nodes = (
"265 1587 LINE",
"607 1907 LINE",
"336 1907 LINE",
"133 1587 LINE"
);
}
);
};
components = (
{
name = I;
},
{
name = acute;
transform = "{1, 0, 0, 1, 114, 441}";
}
);
layerId = "8DE4C137-4DC6-43A7-909D-C9F8072E6A1C";
userData = {
com.typemytype.robofont.layerData = {
};
};
vertWidth = 0;
width = 464;
},
{
background = {
anchors = (
{
name = bot;
position = "{232, 0}";
},
{
name = ogonek;
position = "{232, 0}";
},
{
name = top;
position = "{232, 1464}";
}
);
paths = (
{
closed = 1;
nodes = (
"350 0 LINE",
"350 1464 LINE",
"119 1464 LINE",
"119 0 LINE"
);
},
{
closed = 1;
nodes = (
"267 1584 LINE",
"624 1904 LINE",
"320 1904 LINE",
"118 1583 LINE"
);
}
);
};
components = (
{
name = I;
},
{
name = acute;
transform = "{1, 0, 0, 1, 124, 441}";
}
);
layerId = "28683A17-BAD2-44EA-B42B-E882FFDD4FE1";
userData = {
com.typemytype.robofont.layerData = {
};
};
vertWidth = 0;
width = 464;
},
{
background = {
anchors = (
{
name = ogonek;
position = "{247, 0}";
},
{
name = top;
position = "{232, 1464}";
}
);
paths = (
{
closed = 1;
nodes = (
"305 0 LINE",
"305 1464 LINE",
"167 1464 LINE",
"167 0 LINE"
);
},
{
closed = 1;
nodes = (
"517 1916 LINE",
"331 1916 LINE",
"126 1597 LINE",
"215 1596 LINE"
);
}
);
};
components = (
{
name = I;
},
{
name = acute;
transform = "{1, 0, 0, 1, 44, 441}";
}
);
layerId = "E322F6D1-BA90-436B-BB35-51D9BD3EA9D1";
userData = {
com.typemytype.robofont.layerData = {
b = {
anchors = (
);
components = (
);
contours = (
);
lib = {
};
name = Iacute;
unicodes = (
);
width = 464;
};
};
};
vertWidth = 0;
width = 464;
}
);
unicode = 00CD;
},
{
glyphname = Ibreve;
lastChange = "2023-02-01 16:10:23 +0000";
layers = (
{
background = {
anchors = (
{
name = ogonek;
position = "{237, 0}";
},
{
name = top;
position = "{232, 1464}";
}
);
paths = (
{
closed = 1;
nodes = (
"323 0 LINE",
"323 1464 LINE",
"148 1464 LINE",
"148 0 LINE"
);
},
{
closed = 1;
nodes = (
"372 1666 OFFCURVE",
"502 1741 OFFCURVE",
"506 1929 CURVE",
"368 1929 LINE",
"368 1838 OFFCURVE",
"327 1790 OFFCURVE",
"229 1790 CURVE SMOOTH",
"132 1790 OFFCURVE",
"91 1838 OFFCURVE",
"91 1929 CURVE",
"-48 1929 LINE",
"-44 1741 OFFCURVE",
"86 1666 OFFCURVE",
"229 1666 CURVE SMOOTH"
);
}
);
};
components = (
{
name = I;
},
{
name = breve;
transform = "{1, 0, 0, 1, -171, 441}";
}
);
layerId = "8E6A00A3-5EF9-4E6D-9A7B-9C1BBC7D44AD";
userData = {
com.typemytype.robofont.layerData = {
};
};
vertWidth = 0;
width = 464;
},
{
background = {
anchors = (
{
name = ogonek;
position = "{231, 0}";
},
{
name = top;
position = "{232, 1464}";
}
);
paths = (
{
closed = 1;
nodes = (
"338 0 LINE",
"338 1464 LINE",
"133 1464 LINE",
"133 0 LINE"
);
},
{
closed = 1;
nodes = (
"369 1648 OFFCURVE",
"505 1724 OFFCURVE",
"509 1920 CURVE",
"347 1920 LINE",
"347 1845 OFFCURVE",
"326 1793 OFFCURVE",
"230 1793 CURVE SMOOTH",
"135 1793 OFFCURVE",
"114 1845 OFFCURVE",
"114 1920 CURVE",
"-48 1920 LINE",
"-44 1724 OFFCURVE",
"91 1648 OFFCURVE",
"230 1648 CURVE SMOOTH"
);
}
);
};
components = (
{
name = I;
},
{
name = breve;
transform = "{1, 0, 0, 1, -171, 441}";
}
);
layerId = "8DE4C137-4DC6-43A7-909D-C9F8072E6A1C";
userData = {
com.typemytype.robofont.layerData = {
};
};
vertWidth = 0;
width = 464;
},
{
background = {
anchors = (
{
name = bot;
position = "{232, 0}";
},
{
name = ogonek;
position = "{232, 0}";
},
{
name = top;
position = "{232, 1464}";
}
);
paths = (
{
closed = 1;
nodes = (
"350 0 LINE",
"350 1464 LINE",
"119 1464 LINE",
"119 0 LINE"
);
},
{
closed = 1;
nodes = (
"367 1632 OFFCURVE",
"507 1708 OFFCURVE",
"511 1911 CURVE",
"329 1911 LINE",
"329 1850 OFFCURVE",
"325 1795 OFFCURVE",
"231 1795 CURVE SMOOTH",
"138 1795 OFFCURVE",
"134 1850 OFFCURVE",
"134 1911 CURVE",
"-48 1911 LINE",
"-44 1708 OFFCURVE",
"96 1632 OFFCURVE",
"231 1632 CURVE SMOOTH"
);
}
);
};
components = (
{
name = I;
},
{
name = breve;
transform = "{1, 0, 0, 1, -171, 441}";
}
);
layerId = "28683A17-BAD2-44EA-B42B-E882FFDD4FE1";
userData = {
com.typemytype.robofont.layerData = {
};
};
vertWidth = 0;
width = 464;
},
{
background = {
anchors = (
{
name = ogonek;
position = "{247, 0}";
},
{
name = top;
position = "{232, 1464}";
}
);
paths = (
{
closed = 1;
nodes = (
"305 0 LINE",
"305 1464 LINE",
"167 1464 LINE",
"167 0 LINE"
);
},
{
closed = 1;
nodes = (
"376 1689 OFFCURVE",
"499 1763 OFFCURVE",
"503 1941 CURVE",
"393 1941 LINE",
"393 1830 OFFCURVE",
"328 1786 OFFCURVE",
"228 1786 CURVE SMOOTH",
"128 1786 OFFCURVE",
"62 1830 OFFCURVE",
"62 1941 CURVE",
"-48 1941 LINE",
"-44 1763 OFFCURVE",
"80 1689 OFFCURVE",
"228 1689 CURVE SMOOTH"
);
}
);
};
components = (
{
name = I;
},
{
name = breve;
transform = "{1, 0, 0, 1, -171, 441}";
}
);
layerId = "E322F6D1-BA90-436B-BB35-51D9BD3EA9D1";
userData = {
com.typemytype.robofont.layerData = {
b = {
anchors = (
);
components = (
);
contours = (
);
lib = {
};
name = Ibreve;
unicodes = (
);
width = 464;
};
};
};
vertWidth = 0;
width = 464;
}
);
unicode = 012C;
},
